<svg width="640" height="43.688" version="1.1" viewBox="0 0 160 10.922" xmlns="http://www.w3.org/2000/svg"><g transform="matrix(1.7921 0 0 1.7921 0 .16902)" font-family="serif" font-size="5.6px" stroke-width=".26"><text x="-0.2128" y="4.538156" style="font-variant-caps:normal;font-variant-east-asian:normal;font-variant-ligatures:normal;font-variant-numeric:normal" xml:space="preserve"><tspan x="-0.2128" y="4.538156" fill="#000000" font-family="serif" font-size="5.6px" stroke-width=".26" style="font-variant-caps:normal;font-variant-east-asian:normal;font-variant-ligatures:normal;font-variant-numeric:normal">Expertise</tspan></text><text x="43.730766" y="4.4054236" style="font-variant-caps:normal;font-variant-east-asian:normal;font-variant-ligatures:normal;font-variant-numeric:normal" xml:space="preserve"><tspan x="43.730766" y="4.4054236" stroke-width=".26">Script</tspan></text><text x="78.764305" y="4.2766223" style="font-variant-caps:normal;font-variant-east-asian:normal;font-variant-ligatures:normal;font-variant-numeric:normal" xml:space="preserve"><tspan x="78.764305" y="4.2766223" stroke-width=".26">App</tspan></text></g><path d="m51.654 5.6191h16.867" color="#000000" stroke-width="1.5813" style="-inkscape-stroke:none"/><path d="m51.654 4.8281v1.582h16.867v-1.582z" color="#000000" fill="#448cd2" style="-inkscape-stroke:none"/><path d="m64.715 0.31641-1.1172 1.1172 4.1855 4.1855-4.1855 4.1855 1.1172 1.1172 5.3047-5.3027z" color="#000000" fill="#448cd2" style="-inkscape-stroke:none"/><path d="m113.85 5.3028h16.867" color="#000000" stroke-width="1.5812" style="-inkscape-stroke:none"/><path d="m113.85 4.5117v1.582h16.867v-1.582z" color="#000000" fill="#ee2e21" style="-inkscape-stroke:none"/><path d="m126.91 0-1.1191 1.1172 4.1856 4.1855-4.1856 4.1855 1.1191 1.1172 5.3027-5.3027z" color="#000000" fill="#ee2e21" style="-inkscape-stroke:none"/></svg>
