<svg width="640" height="480" version="1.1" viewBox="0 0 169 127" xmlns="http://www.w3.org/2000/svg">
 <g stroke-width="2">
  <path d="m8.3 55c2.1-3.1 4.4-6.1 6.8-9 1.6-2 3.2-4 4.8-6l-3.1-1.9c-1.6 2-3.1 4.1-4.7 6.1-2.4 2.9-4.7 5.9-7.1 8.8z" fill="#f00"/>
  <path d="m13 75c2-2.4 4-4.9 5.8-7.4 0.7-1 1.3-2 2-3.1l-3.3-1.9c-0.61 1-1.2 2.1-1.9 3.1-1.8 2.5-3.8 5-6 7.2z" fill="#f00"/>
  <g fill="#00f">
   <path d="m12 98c2.6-2.3 5-4.7 7.1-7.5 0.5-0.68 0.95-1.4 1.4-2.1 1.6-2.7 2.9-5.5 4.1-8.4l-3.2-1.8c-1.1 2.9-2.4 5.8-4 8.4-0.47 0.69-0.92 1.4-1.4 2.1-2.1 2.8-4.5 5.3-7.3 7.3z"/>
   <path d="m140 39c2.2 3.4 4.2 6.9 6.3 10 1.3 2.1 0.66 1.1 1.9 3.1l3.4 1.5c-1.3-2-0.61-0.97-1.9-3.1-2.1-3.4-4.1-6.9-6.1-10z"/>
   <path d="m140 56c2.3 3.6 5 6.9 7.6 10 1.9 2.4 4 4.6 6.1 6.8l3.5 1.5c-2.2-2.2-4.3-4.5-6.3-6.9-2.6-3.3-5.2-6.5-7.3-10z"/>
  </g>
  <path d="m142 80c1.7 3.2 3.9 6.1 6.1 8.9 1.9 2.4 3.8 4.8 5.7 7.1l3.5 1.5c-2-2.3-3.9-4.7-5.8-7.1-2.1-2.8-4.3-5.6-5.8-8.8z" fill="#f00"/>
 </g>
</svg>
