<svg width="428.81pt" height="34.687pt" version="1.1" viewBox="0 0 428.81 34.687" xmlns="http://www.w3.org/2000/svg" xmlns:xlink="http://www.w3.org/1999/xlink"><defs><g id="n"><path d="m16.547-23.875 0.1875 7.7812h-0.70312c-0.33594-1.9453-1.1523-3.5156-2.4531-4.7031-1.3047-1.1875-2.7109-1.7812-4.2188-1.7812-1.1797 0-2.1094 0.3125-2.7969 0.9375-0.67969 0.625-1.0156 1.3438-1.0156 2.1562 0 0.52344 0.125 0.98047 0.375 1.375 0.33203 0.54297 0.86328 1.0781 1.5938 1.6094 0.53906 0.375 1.7852 1.043 3.7344 2 2.7266 1.3438 4.5664 2.6172 5.5156 3.8125 0.9375 1.1875 1.4062 2.5547 1.4062 4.0938 0 1.9492-0.76172 3.625-2.2812 5.0312-1.5117 1.4062-3.4375 2.1094-5.7812 2.1094-0.73047 0-1.4219-0.074219-2.0781-0.21875-0.65625-0.14844-1.4766-0.42578-2.4531-0.84375-0.55469-0.22656-1.0078-0.34375-1.3594-0.34375-0.30469 0-0.62109 0.11719-0.95312 0.34375-0.33594 0.23047-0.60547 0.57812-0.8125 1.0469h-0.625v-8.8125h0.625c0.50781 2.4805 1.4844 4.3711 2.9219 5.6719 1.4375 1.3047 2.9883 1.9531 4.6562 1.9531 1.2812 0 2.3008-0.34766 3.0625-1.0469 0.75781-0.69531 1.1406-1.5078 1.1406-2.4375 0-0.55078-0.14844-1.082-0.4375-1.5938-0.29297-0.51953-0.73438-1.0156-1.3281-1.4844s-1.6523-1.0703-3.1719-1.8125c-2.1172-1.0508-3.6367-1.9414-4.5625-2.6719-0.92969-0.73828-1.6406-1.5625-2.1406-2.4688s-0.75-1.8984-0.75-2.9844c0-1.8633 0.67969-3.4453 2.0469-4.75 1.3633-1.3125 3.082-1.9688 5.1562-1.9688 0.75781 0 1.4922 0.09375 2.2031 0.28125 0.53906 0.13672 1.1953 0.39062 1.9688 0.76562 0.76953 0.375 1.3125 0.5625 1.625 0.5625 0.28906 0 0.51953-0.09375 0.6875-0.28125 0.17578-0.1875 0.34375-0.62891 0.5-1.3281z"/></g><g id="m"><path d="m14.312-4.1406 0.53125 0.40625c-0.76172 1.4297-1.7109 2.4922-2.8438 3.1875-1.125 0.6875-2.3242 1.0312-3.5938 1.0312-2.1484 0-3.8594-0.80469-5.1406-2.4219-1.2812-1.625-1.9219-3.5703-1.9219-5.8438 0-2.1875 0.58203-4.1133 1.75-5.7812 1.4062-2.0078 3.3477-3.0156 5.8281-3.0156 1.6641 0 2.9883 0.42188 3.9688 1.2656 0.97656 0.83594 1.4688 1.7656 1.4688 2.7969 0 0.65625-0.19922 1.1836-0.59375 1.5781-0.39844 0.38672-0.91797 0.57812-1.5625 0.57812-0.67969 0-1.2344-0.22266-1.6719-0.67188-0.4375-0.44531-0.71094-1.2422-0.8125-2.3906-0.074219-0.72656-0.24219-1.2344-0.5-1.5156-0.26172-0.28906-0.57422-0.4375-0.9375-0.4375-0.54297 0-1.0117 0.29297-1.4062 0.875-0.59375 0.88672-0.89062 2.2422-0.89062 4.0625 0 1.5234 0.23828 2.9766 0.71875 4.3594 0.47656 1.375 1.1406 2.4023 1.9844 3.0781 0.625 0.5 1.3672 0.75 2.2344 0.75 0.5625 0 1.0938-0.12891 1.5938-0.39062 0.50781-0.26953 1.1094-0.76953 1.7969-1.5z"/></g><g id="l"><path d="m7.8594-16.094v3.6562c1.0625-1.6641 1.9922-2.7695 2.7969-3.3125 0.80078-0.55078 1.5781-0.82812 2.3281-0.82812 0.64453 0 1.1562 0.19922 1.5312 0.59375 0.38281 0.39844 0.57812 0.96094 0.57812 1.6875 0 0.76172-0.1875 1.3555-0.5625 1.7812-0.36719 0.42969-0.8125 0.64062-1.3438 0.64062-0.60547 0-1.1328-0.19141-1.5781-0.57812-0.44922-0.39453-0.71484-0.61328-0.79688-0.65625-0.11719-0.07031-0.24609-0.10938-0.39062-0.10938-0.33594 0-0.65234 0.125-0.95312 0.375-0.46875 0.39844-0.82422 0.95312-1.0625 1.6719-0.36719 1.1172-0.54688 2.3438-0.54688 3.6875v3.7031l0.015625 0.95312c0 0.65625 0.039062 1.0781 0.125 1.2656 0.13281 0.30469 0.33594 0.52734 0.60938 0.67188 0.26953 0.14844 0.72266 0.23438 1.3594 0.26562v0.625h-8.6719v-0.625c0.69531-0.050781 1.1641-0.23828 1.4062-0.5625 0.25-0.33203 0.375-1.1953 0.375-2.5938v-8.9062c0-0.91406-0.046875-1.5-0.14062-1.75-0.11719-0.32031-0.28125-0.55469-0.5-0.70312-0.21875-0.15625-0.60156-0.25781-1.1406-0.3125v-0.64062z"/></g><g id="k"><path d="m5.0625-23.891c0.73828 0 1.3633 0.26172 1.875 0.78125 0.51953 0.52344 0.78125 1.1523 0.78125 1.8906 0 0.73047-0.26172 1.3555-0.78125 1.875-0.52344 0.51172-1.1484 0.76562-1.875 0.76562-0.74219 0-1.3711-0.25391-1.8906-0.76562-0.51172-0.51953-0.76562-1.1445-0.76562-1.875 0-0.73828 0.25391-1.3672 0.76562-1.8906 0.51953-0.51953 1.1484-0.78125 1.8906-0.78125zm2.4062 7.7969v12.75c0 1.1367 0.12891 1.8672 0.39062 2.1875 0.25781 0.3125 0.77344 0.49219 1.5469 0.53125v0.625h-8.6875v-0.625c0.70703-0.019531 1.2344-0.22266 1.5781-0.60938 0.22656-0.26953 0.34375-0.97266 0.34375-2.1094v-9.3906c0-1.1328-0.13281-1.8594-0.39062-2.1719-0.26172-0.32031-0.77344-0.50391-1.5312-0.54688v-0.64062z"/></g><g id="j"><path d="m7.4062-1.6406v6c0 0.82031 0.066406 1.3789 0.20312 1.6719 0.13281 0.30078 0.33594 0.51953 0.60938 0.65625 0.26953 0.14453 0.8125 0.21875 1.625 0.21875v0.625h-9.1719v-0.625c0.70703-0.023438 1.2344-0.22656 1.5781-0.60938 0.22656-0.26172 0.34375-0.94531 0.34375-2.0469v-16.984c0-1.1328-0.13281-1.8594-0.39062-2.1719-0.26172-0.32031-0.77344-0.50391-1.5312-0.54688v-0.64062h6.7344v2.125c0.5625-0.83203 1.1328-1.4297 1.7188-1.7969 0.84375-0.53906 1.7539-0.8125 2.7344-0.8125 1.1875 0 2.2656 0.375 3.2344 1.125 0.96875 0.74219 1.7031 1.7734 2.2031 3.0938 0.50781 1.3125 0.76562 2.7266 0.76562 4.2344 0 1.625-0.26562 3.1172-0.79688 4.4688-0.52344 1.3438-1.2773 2.3711-2.2656 3.0781-0.99219 0.70703-2.0938 1.0625-3.3125 1.0625-0.875 0-1.6992-0.19922-2.4688-0.59375-0.57422-0.28906-1.1797-0.80078-1.8125-1.5312zm0-1.7344c0.98828 1.3984 2.0469 2.0938 3.1719 2.0938 0.61328 0 1.125-0.32031 1.5312-0.96875 0.59375-0.96875 0.89062-2.8047 0.89062-5.5156 0-2.7695-0.32812-4.6641-0.98438-5.6875-0.4375-0.67578-1.0234-1.0156-1.75-1.0156-1.1562 0-2.1094 0.83594-2.8594 2.5z"/></g><g id="i"><path d="m7.5625-21.984v5.8906h3.8281v1.7031h-3.8281v9.9375c0 0.92969 0.039062 1.5273 0.125 1.7969 0.09375 0.27344 0.25 0.49219 0.46875 0.65625 0.21875 0.16797 0.41406 0.25 0.59375 0.25 0.75 0 1.457-0.56641 2.125-1.7031l0.51562 0.375c-0.9375 2.1992-2.4492 3.2969-4.5312 3.2969-1.0234 0-1.8867-0.28125-2.5938-0.84375-0.69922-0.57031-1.1484-1.207-1.3438-1.9062-0.11719-0.38281-0.17188-1.4414-0.17188-3.1719v-8.6875h-2.0938v-0.59375c1.4375-1.0312 2.6602-2.1016 3.6719-3.2188 1.0195-1.125 1.9102-2.3828 2.6719-3.7812z"/></g><g id="h"><path d="m14.656-6.6406h-8.2344l-0.98438 2.2656c-0.32422 0.76172-0.48438 1.3867-0.48438 1.875 0 0.65625 0.26562 1.1406 0.79688 1.4531 0.30078 0.17969 1.0625 0.3125 2.2812 0.40625v0.64062h-7.75v-0.64062c0.83203-0.125 1.5156-0.46875 2.0469-1.0312 0.53906-0.57031 1.207-1.75 2-3.5312l8.3438-18.625h0.32812l8.4219 19.141c0.80078 1.8125 1.457 2.9609 1.9688 3.4375 0.39453 0.35547 0.94531 0.55859 1.6562 0.60938v0.64062h-11.281v-0.64062h0.46875c0.90625 0 1.5391-0.125 1.9062-0.375 0.25-0.1875 0.375-0.45312 0.375-0.79688 0-0.19531-0.03906-0.40625-0.10938-0.625-0.02344-0.10156-0.19531-0.53516-0.51562-1.2969zm-0.57812-1.2812-3.4844-8.0312-3.5781 8.0312z"/></g><g id="g"><path d="m16.719-16.094v12.594c0 1.2305 0.11328 2 0.34375 2.3125 0.22656 0.30469 0.69141 0.49219 1.3906 0.5625v0.625h-6.5469v-2.1562c-0.77344 0.91797-1.543 1.5898-2.3125 2.0156-0.76172 0.41406-1.6211 0.625-2.5781 0.625-0.90625 0-1.7148-0.27734-2.4219-0.82812-0.69922-0.5625-1.168-1.2109-1.4062-1.9531-0.24219-0.75-0.35938-2.0547-0.35938-3.9219v-6.375c0-1.2188-0.11719-1.9727-0.34375-2.2656-0.21875-0.30078-0.6875-0.5-1.4062-0.59375v-0.64062h6.5625v11c0 1.1484 0.050781 1.8867 0.15625 2.2188 0.11328 0.33594 0.28516 0.58984 0.51562 0.76562 0.23828 0.16797 0.51562 0.25 0.82812 0.25 0.40625 0 0.77344-0.10938 1.1094-0.32812 0.45703-0.30078 1.0078-0.90625 1.6562-1.8125v-8.5938c0-1.2188-0.11719-1.9727-0.34375-2.2656-0.21875-0.30078-0.68359-0.5-1.3906-0.59375v-0.64062z"/></g><g id="b"><path d="m7.5625-21.984v5.8906h3.8281v1.7031h-3.8281v9.9375c0 0.92969 0.039062 1.5273 0.125 1.7969 0.09375 0.27344 0.25 0.49219 0.46875 0.65625 0.21875 0.16797 0.41406 0.25 0.59375 0.25 0.75 0 1.457-0.56641 2.125-1.7031l0.51562 0.375c-0.92969 2.1992-2.4375 3.2969-4.5312 3.2969-1.0234 0-1.8867-0.28125-2.5938-0.84375-0.69922-0.57031-1.1484-1.207-1.3438-1.9062-0.11719-0.38281-0.17188-1.4414-0.17188-3.1719v-8.6875h-2.0938v-0.59375c1.4453-1.0312 2.6758-2.1016 3.6875-3.2188 1.0078-1.125 1.8945-2.3828 2.6562-3.7812z"/></g><g id="a"><path d="m8.7812-16.578c1.3945 0 2.6914 0.36719 3.8906 1.0938 1.207 0.71875 2.125 1.7461 2.75 3.0781 0.625 1.3359 0.9375 2.793 0.9375 4.375 0 2.2812-0.57812 4.1875-1.7344 5.7188-1.3984 1.8672-3.3281 2.7969-5.7969 2.7969-2.418 0-4.2812-0.84766-5.5938-2.5469-1.3125-1.6953-1.9688-3.6641-1.9688-5.9062 0-2.3008 0.66406-4.3125 2-6.0312 1.3438-1.7188 3.1797-2.5781 5.5156-2.5781zm0.0625 1.2188c-0.58594 0-1.0898 0.22656-1.5156 0.67188-0.41797 0.4375-0.69531 1.3086-0.82812 2.6094-0.125 1.3047-0.1875 3.1172-0.1875 5.4375 0 1.2305 0.082031 2.375 0.25 3.4375 0.125 0.8125 0.39062 1.4336 0.79688 1.8594 0.41406 0.42969 0.89062 0.64062 1.4219 0.64062 0.50781 0 0.9375-0.14453 1.2812-0.4375 0.44531-0.38281 0.74219-0.92578 0.89062-1.625 0.22656-1.0938 0.34375-3.2969 0.34375-6.6094 0-1.957-0.10938-3.3008-0.32812-4.0312-0.21094-0.72656-0.52734-1.2539-0.95312-1.5781-0.30469-0.25-0.69531-0.375-1.1719-0.375z"/></g><g id="f"><path d="m7.8594-16.094v2.125c0.88281-0.96875 1.7031-1.6445 2.4531-2.0312 0.75-0.38281 1.5703-0.57812 2.4688-0.57812 1.0312 0 1.8945 0.24609 2.5938 0.73438 0.70703 0.48047 1.25 1.2109 1.625 2.1875 0.91406-1.0312 1.7969-1.7734 2.6406-2.2344 0.84375-0.45703 1.7227-0.6875 2.6406-0.6875 1.1133 0 2 0.25781 2.6562 0.76562 0.65625 0.51172 1.1133 1.1641 1.375 1.9531 0.25781 0.78125 0.39062 2.0312 0.39062 3.75v6.5938c0 1.2422 0.10938 2.0117 0.32812 2.3125 0.22656 0.30469 0.69531 0.49609 1.4062 0.57812v0.625h-8.3125v-0.625c0.65625-0.050781 1.1406-0.30078 1.4531-0.75 0.20703-0.3125 0.3125-1.0234 0.3125-2.1406v-6.9219c0-1.4258-0.05859-2.332-0.17188-2.7188-0.11719-0.39453-0.29688-0.6875-0.54688-0.875-0.25-0.19531-0.54297-0.29688-0.875-0.29688-0.49219 0-0.99219 0.18359-1.5 0.54688-0.5 0.36719-1.0117 0.90625-1.5312 1.625v8.6406c0 1.168 0.09766 1.8984 0.29688 2.1875 0.26953 0.42969 0.77344 0.66406 1.5156 0.70312v0.625h-8.3281v-0.625c0.44531-0.019531 0.80078-0.12891 1.0625-0.32812 0.25781-0.19531 0.42969-0.4375 0.51562-0.71875 0.08203-0.28125 0.125-0.89453 0.125-1.8438v-6.9219c0-1.4453-0.05859-2.3516-0.17188-2.7188-0.11719-0.375-0.30859-0.66406-0.57812-0.875-0.27344-0.20703-0.55859-0.3125-0.85938-0.3125-0.46094 0-0.88281 0.125-1.2656 0.375-0.53125 0.35547-1.1055 0.96094-1.7188 1.8125v8.6406c0 1.1367 0.10938 1.8867 0.32812 2.25 0.22656 0.36719 0.69531 0.57812 1.4062 0.64062v0.625h-8.2812v-0.625c0.67578-0.0625 1.1562-0.28125 1.4375-0.65625 0.19531-0.25 0.29688-0.99219 0.29688-2.2344v-9.0781c0-1.2188-0.11719-1.9727-0.34375-2.2656-0.21875-0.30078-0.68359-0.5-1.3906-0.59375v-0.64062z"/></g><g id="e"><path d="m10.062-2.375c-1.9609 1.7305-3.7188 2.5938-5.2812 2.5938-0.91797 0-1.6836-0.29688-2.2969-0.89062-0.60547-0.60156-0.90625-1.3594-0.90625-2.2656 0-1.2266 0.52344-2.332 1.5781-3.3125 1.0625-0.98828 3.3633-2.2969 6.9062-3.9219v-1.625c0-1.207-0.070312-1.9688-0.20312-2.2812-0.125-0.32031-0.375-0.59766-0.75-0.82812-0.36719-0.23828-0.77734-0.35938-1.2344-0.35938-0.74219 0-1.3555 0.16797-1.8438 0.5-0.29297 0.21094-0.4375 0.44922-0.4375 0.71875 0 0.24219 0.16016 0.53906 0.48438 0.89062 0.4375 0.5 0.65625 0.98047 0.65625 1.4375 0 0.5625-0.21484 1.043-0.64062 1.4375-0.41797 0.39844-0.96484 0.59375-1.6406 0.59375-0.71875 0-1.3242-0.21875-1.8125-0.65625-0.49219-0.4375-0.73438-0.94531-0.73438-1.5312 0-0.82031 0.32812-1.6094 0.98438-2.3594 0.65625-0.75781 1.5664-1.3359 2.7344-1.7344 1.1641-0.40625 2.3789-0.60938 3.6406-0.60938 1.5312 0 2.7383 0.32812 3.625 0.98438 0.89453 0.64844 1.4727 1.3438 1.7344 2.0938 0.15625 0.49219 0.23438 1.6016 0.23438 3.3281v6.25c0 0.73047 0.02344 1.1953 0.07813 1.3906 0.0625 0.1875 0.14844 0.32812 0.26562 0.42188 0.11328 0.085937 0.25 0.125 0.40625 0.125 0.28906 0 0.59375-0.20703 0.90625-0.625l0.51562 0.40625c-0.57422 0.85547-1.168 1.4766-1.7812 1.8594-0.61719 0.375-1.3125 0.5625-2.0938 0.5625-0.91797 0-1.6367-0.21484-2.1563-0.64062-0.51172-0.42578-0.82422-1.0781-0.9375-1.9531zm0-1.25v-5.3906c-1.3867 0.8125-2.418 1.6836-3.0938 2.6094-0.44922 0.625-0.67188 1.25-0.67188 1.875 0 0.53125 0.1875 1 0.5625 1.4062 0.28906 0.30469 0.69141 0.45312 1.2031 0.45312 0.57031 0 1.2383-0.31641 2-0.95312z"/></g><g id="d"><path d="m5.0625-23.891c0.73828 0 1.3633 0.26172 1.875 0.78125 0.51953 0.52344 0.78125 1.1523 0.78125 1.8906 0 0.73047-0.26172 1.3555-0.78125 1.875-0.52344 0.51172-1.1484 0.76562-1.875 0.76562-0.74219 0-1.3711-0.25391-1.8906-0.76562-0.51172-0.51953-0.76562-1.1445-0.76562-1.875 0-0.73828 0.25391-1.3672 0.76562-1.8906 0.51953-0.51953 1.1484-0.78125 1.8906-0.78125zm2.4062 7.7969v12.75c0 1.1367 0.12891 1.8672 0.39062 2.1875 0.26953 0.3125 0.78516 0.49219 1.5469 0.53125v0.625h-8.6875v-0.625c0.71875-0.019531 1.25-0.22266 1.5938-0.60938 0.22656-0.26953 0.34375-0.97266 0.34375-2.1094v-9.3906c0-1.1328-0.13672-1.8594-0.40625-2.1719-0.26172-0.32031-0.77344-0.50391-1.5312-0.54688v-0.64062z"/></g><g id="c"><path d="m7.7656-16.094v2.0781c0.82031-0.89453 1.6094-1.5469 2.3594-1.9531 0.75781-0.40625 1.5781-0.60938 2.4531-0.60938 1.0391 0 1.9062 0.29297 2.5938 0.875 0.6875 0.57422 1.1445 1.293 1.375 2.1562 0.1875 0.65625 0.28125 1.9141 0.28125 3.7656v6.2656c0 1.2422 0.10938 2.0156 0.32812 2.3281 0.22656 0.30469 0.69531 0.49219 1.4062 0.5625v0.625h-8.1406v-0.625c0.61328-0.070312 1.0508-0.32031 1.3125-0.75 0.1875-0.28906 0.28125-1.0039 0.28125-2.1406v-7.1562c0-1.3203-0.05469-2.1562-0.15625-2.5-0.10547-0.34375-0.28125-0.60938-0.53125-0.79688s-0.52344-0.28125-0.8125-0.28125c-0.99219 0-1.9062 0.70312-2.75 2.1094v8.625c0 1.2109 0.10938 1.9766 0.32812 2.2969 0.22656 0.32422 0.64453 0.52344 1.25 0.59375v0.625h-8.1406v-0.625c0.67578-0.0625 1.1602-0.28125 1.4531-0.65625 0.1875-0.25 0.28125-0.99219 0.28125-2.2344v-9.0781c0-1.2188-0.11719-1.9727-0.34375-2.2656-0.21875-0.30078-0.68359-0.5-1.3906-0.59375v-0.64062z"/></g></defs><g transform="translate(-101.5 -105.98)" fill="#f24726"><use x="99.674225" y="133.13669" xlink:href="#n"/><use x="119.26502" y="133.13669" xlink:href="#m"/><use x="134.89981" y="133.13669" xlink:href="#l"/><use x="150.53461" y="133.13669" xlink:href="#k"/><use x="160.32141" y="133.13669" xlink:href="#j"/><use x="179.9122" y="133.13669" xlink:href="#i"/></g><g transform="translate(-101.5 -105.98)" fill="#2d9bf0"><use x="351.26633" y="133.13669" xlink:href="#h"/><use x="376.70923" y="133.13669" xlink:href="#g"/><use x="396.30316" y="133.13669" xlink:href="#b"/><use x="408.03546" y="133.13669" xlink:href="#a"/><use x="425.65109" y="133.13669" xlink:href="#f"/><use x="454.99899" y="133.13669" xlink:href="#e"/><use x="472.61462" y="133.13669" xlink:href="#b"/><use x="484.34692" y="133.13669" xlink:href="#d"/><use x="494.13528" y="133.13669" xlink:href="#a"/><use x="511.75092" y="133.13669" xlink:href="#c"/></g><path d="m125.03 17.265h79.523" fill="none" stroke="#1a1a1a" stroke-width="3.915"/><path d="m198.86 1.2454 16.012 16.02-16.012 16.02m0-16.02h16.012" fill="none" stroke="#1a1a1a" stroke-width="3.5235"/></svg>
