<svg width="630.96pt" height="280.08pt" version="1.2" viewBox="0 0 630.96 280.08" xmlns="http://www.w3.org/2000/svg"><defs><clipPath id="b"><path d="m0 0h630.96v279.53h-630.96z"/></clipPath><clipPath id="a"><path d="m0.62109 0h630.34v279.53h-630.34z"/></clipPath></defs><g clip-path="url(#b)"><rect width="630.96" height="280.08" fill="#fff"/></g><g clip-path="url(#a)"><path d="m0.62109-0.35938h631v281.03h-631z" fill="#fff"/></g><g fill="none" stroke-linecap="round" stroke-linejoin="round"><g stroke="#2b99f0" stroke-width="4.2837"><path d="m169.89 80.133v-0.31641-0.53516 0 0.58594 1.0391 1.7461s0 1.0625 0.0469 1.9805c0 0 0.0469 0.91016 0.26953 2.4687 0 0 0.21875 1.5508 0.26563 2.875 0 0 0.0469 1.3242 0.0469 3.5078 0 0 0 2.1836-0.0469 4.1641 0 0-0.0469 1.9844-0.31641 3.8242 0 0-0.26562 1.8359-0.52734 3.4102 0 0-0.26953 1.5703-0.31641 2.7812 0 0-0.0508 1.2109-0.0508 1.9375 0 0 0 0.72265 0.0508 1.2578 0 0 0.0469 0.53125 0.31641 0.6289l0.26172 0.0937"/><path d="m364.83 87.336v-0.31641s0-0.31641-0.043-0.57812c0 0-0.0469-0.26562-0.31641-0.31641 0 0-0.26562-0.04687-0.53515 0 0 0-0.26563 0.05078-0.31641 0.31641 0 0-0.0469 0.26172-0.13672 0.67578 0 0-0.0976 0.40625-0.53906 1.1641 0 0-0.4375 0.7539-0.625 1.3047 0 0-0.19141 0.55078-0.72656 1.6641 0 0-0.53516 1.1211-1.2109 2.3789 0 0-0.67578 1.2539-1.5195 2.6094 0 0-0.85156 1.3477-1.5742 3.1406 0 0-0.72266 1.7969-1.6172 3.7773 0 0-0.90234 1.9805-1.8438 4.3594 0 0-0.94531 2.3711-1.8906 4.5703 0 0-0.94141 2.2031-1.8359 4.0938 0 0-0.89844 1.8828-1.4766 3.3633 0 0-0.58594 1.4766-0.72266 2.3438 0 0-0.14453 0.86328-0.36328 1.8867 0 0-0.22265 1.0156-0.17187 1.4297 0 0 0.0469 0.40625 0.58203 0.45312l0.53125 0.0469"/><path d="m466.53 91.477-0.26563 0.04687s-0.26953 0.04687-0.35937 0.31641c0 0-0.0977 0.26172-0.26953 0.57812 0 0-0.17578 0.3164 0.0937 0.58203 0 0 0.26562 0.26953 0.85156 0.36328 0 0 0.57812 0.09375 1.3476 0.3125 0 0 0.77344 0.21875 2.0625 0.26953 0 0 1.2852 0.04687 2.293 0.09375 0 0 1.0039 0.04297 2.832 0.26953 0 0 1.8242 0.21875 3.2226 0.31641 0 0 1.3984 0.08984 2.6562 0.35547l1.2578 0.26953m5.1094-6.5117-0.26562-0.62891s-0.26953-0.625-0.31641-1.2109c0 0-0.0508-0.58203-0.0508-0.98828v-0.99219-1.2578-1.5703s0-0.89844-0.043-1.8398c0 0-0.0469-0.9414-0.3125-1.793 0 0-0.26953-0.85156-0.67578-1.3984 0 0-0.41406-0.55078-1.168-1.5273 0 0-0.7539-0.97266-1.3008-1.4297 0 0-0.55078-0.46094-1.5273-0.72266 0 0-0.97656-0.26953-1.5234-0.3164 0 0-0.55078-0.04687-1.3086 0 0 0-0.7539 0.04687-1.207 0.45703 0 0-0.45703 0.40625-0.99218 1.5742 0 0-0.53516 1.1602-0.89453 2.7344 0 0-0.36328 1.5703-0.67969 3.3633 0 0-0.31641 1.793-0.57812 3.5078 0 0-0.26954 1.7148-0.31641 3.6289 0 0-0.0469 1.918-0.0469 3.2422 0 0 0 1.3203 0.0469 3.1016 0 0 0.0469 1.7695 0.31641 2.6328 0 0 0.26171 0.86719 0.62499 1.4492 0 0 0.36329 0.58594 0.94922 0.94531l0.57812 0.36328m-14.559-28.09-0.30859 0.36328s-0.31641 0.35937-0.58594 0.89453c0 0-0.26562 0.53516-0.3164 1.0391 0 0-0.0469 0.50391-0.0469 1.625v2.4648s0 1.3516-0.043 3.1445c0 0-0.0469 1.7891-0.3164 3.7266 0 0-0.26563 1.9336-0.58203 3.9492 0 0-0.31641 2.0078-0.67578 3.5508 0 0-0.36329 1.5391-0.85157 3.4141 0 0-0.48437 1.8711-0.57812 3.0469 0 0-0.0937 1.1797-0.0469 2.25 0 0 0.0469 1.0703 0.31641 1.5273l0.26172 0.45313m-18.922-9.2305-0.26953 0.05078s-0.26953 0.04688-0.21875 0.3125c0 0 0.0469 0.26953 0.58203 0.53906 0 0 0.53125 0.26562 1.2109 0.30859 0 0 0.67578 0.04688 1.4766 0.04688 0 0 0.79687 0 1.3984-0.04688 0 0 0.60156-0.04297 1.8906-0.30859 0 0 1.2852-0.26953 2.3242-0.62891 0 0 1.0391-0.36328 1.9336-0.98828 0 0 0.89063-0.63281 1.5234-1.4805 0 0 0.62891-0.85156 0.94141-1.5234 0 0 0.3164-0.68359 0.3164-1.3086 0 0 0-0.63281-0.26562-1.2109 0 0-0.26953-0.58203-0.67578-0.9414 0 0-0.41016-0.36328-1.2109-0.67969 0 0-0.80078-0.3164-1.5742-0.57812 0 0-0.76953-0.26953-1.793-0.31641 0 0-1.0234-0.04687-1.5664 0.09766 0 0-0.55469 0.13672-1.3555 0.94141 0 0-0.80468 0.79687-1.4805 1.7891 0 0-0.67188 0.98828-1.207 2.207 0 0-0.53516 1.207-0.67578 2.4648 0 0-0.14454 1.2539-0.36329 2.4219 0 0-0.21875 1.1641-0.125 2.0312 0 0 0.0937 0.85937 0.84766 2.1523 0 0 0.75391 1.2891 1.4336 2.0117 0 0 0.67578 0.72266 1.3008 1.0859 0 0 0.62891 0.35937 1.3555 0.6289 0 0 0.72266 0.26563 1.793 0.31641 0 0 1.0664 0.043 1.7891 0.043h0.72265m-15.605-20.039-0.58203-0.26953s-0.58203-0.26562-0.9414-0.35938c0 0-0.36328-0.09375-0.67578-0.3125 0 0-0.31641-0.22266-0.63281-0.26953 0 0-0.3125-0.04687-0.67188 0.04687 0 0-0.36719 0.09375-0.89453 0.6289 0 0-0.53516 0.53516-0.90234 1.168 0 0-0.35547 0.625-0.67188 1.2578 0 0-0.3164 0.625-0.58593 1.2578 0 0-0.26563 0.625-0.3086 1.2109 0 0-0.0469 0.57812-0.0469 1.0312 0 0 0 0.45703 0.0469 1.2109 0 0 0.043 0.7539 0.35938 1.2109 0 0 0.3164 0.45312 0.85156 0.99219 0 0 0.52734 0.53516 0.98828 0.94531 0 0 0.45703 0.40625 1.2109 0.94141 0 0 0.7539 0.53906 1.1602 0.90234 0 0 0.41016 0.35938 0.72266 0.67578 0 0 0.3164 0.30859 0.58593 0.625 0 0 0.26563 0.31641 0.3086 0.63281 0 0 0.0508 0.30859-0.043 0.67187 0 0-0.0937 0.35938-0.62891 0.89453 0 0-0.53515 0.53516-1.2109 0.94531 0 0-0.67578 0.40625-1.4766 0.94141 0 0-0.80469 0.53515-1.3516 0.94921 0 0-0.55078 0.40625-1.5742 0.89063 0 0-1.0234 0.48828-1.7461 0.6289 0 0-0.72266 0.14454-1.3477 0.41016l-0.63281 0.26953m-31.266-15.418-0.0977 0.36328s-0.0898 0.35937-0.52734 0.89453c0 0-0.44531 0.53516-0.53516 0.89844 0 0-0.0976 0.35938-0.0976 0.72266v0.89453 0.94922s0 0.40625 0.0469 0.9414c0 0 0.0508 0.53125 0.31641 0.99219 0 0 0.26172 0.45312 0.57812 1.2109 0 0 0.31641 0.75391 0.63281 1.1602 0 0 0.3086 0.40625 0.625 0.72266 0 0 0.31641 0.3164 0.67969 0.63281 0 0 0.35937 0.3125 0.99219 0.57812 0 0 0.625 0.26953 1.4297 0.21875 0 0 0.79688-0.04688 1.2578-0.53516 0 0 0.45703-0.48828 0.99219-0.84375 0 0 0.52734-0.36719 0.94141-0.77344 0 0 0.40625-0.40625 0.89453-1.1602 0 0 0.48828-0.75781 0.625-1.2109 0 0 0.14453-0.46094 0.36328-0.99219 0 0 0.22265-0.53516 0.26953-0.75781 0 0 0.0469-0.22266 0.0469 0.26562v1.1211 1.2109s0 0.58203 0.0508 0.94531c0 0 0.043 0.35938 0.3086 0.67578 0 0 0.26953 0.30859 0.67968 0.625 0 0 0.40625 0.3164 1.2578 0.58594 0 0 0.84765 0.26562 1.7461 0.3164 0 0 0.89453 0.04297 1.6641 0.04297h1.8438s1.0664 0 1.7891 0.04688c0 0 0.72265 0.04688 1.3047 0.26562 0 0 0.57812 0.22266 0.84765 0.26953 0 0 0.26563 0.04688 0.0937 0 0 0-0.16797-0.04688-0.26562-0.26953 0 0-0.0977-0.21875-0.31641-0.40625 0 0-0.21875-0.19141-0.30859-0.89844 0 0-0.0977-0.70703-0.31641-1.2578 0 0-0.22266-0.55078-0.26953-1.5273 0 0-0.0469-0.97266-0.0977-1.5703 0 0-0.0469-0.59766-0.26562-1.6211 0 0-0.21875-1.0234-0.21875-1.7461 0 0 0-0.72266 0.26562-1.3477 0 0 0.26953-0.63281 0.58594-1.2109 0 0 0.31641-0.58594 0.62891-0.89453 0 0 0.3125-0.31641 0.76562-0.36328 0 0 0.45703-0.05078 1.4805 0 0 0 1.0234 0.04687 1.7461 0.31641l0.72266 0.26172m-43.098 3.4023-0.3125 0.3125s-0.31641 0.31641-0.63282 0.67969c0 0-0.3164 0.35938-0.57812 0.9414 0 0-0.26563 0.57812-0.31641 1.2578 0 0-0.0469 0.67578-0.0469 1.5273 0 0 0 0.84766 0.0469 1.5703 0 0 0.0508 0.72266 0.36719 1.5664 0 0 0.30859 0.85156 0.89062 1.4375 0 0 0.58204 0.58203 1.2109 0.72656 0 0 0.62891 0.14063 1.2578 0.35938 0 0 0.62891 0.21875 1.2578 0.21875 0 0 0.62891 0 1.2109-0.26563 0 0 0.57812-0.26953 0.99219-0.6289 0 0 0.40625-0.36328 0.89453-0.89844 0 0 0.48437-0.53516 0.6289-0.99219 0 0 0.14063-0.45312 0.35938-1.2578 0 0 0.22265-0.80078 0.22265-1.5234 0 0 0-0.72656-0.26953-1.5703 0 0-0.26953-0.85156-0.625-1.5742 0 0-0.36718-0.72266-0.94531-1.5273 0 0-0.58203-0.80078-1.1602-1.2109 0 0-0.58203-0.40625-1.0391-0.72266 0 0-0.46093-0.31641-1.2578-0.53516 0 0-0.80468-0.21875-1.4297 0.05078 0 0-0.63281 0.26562-0.94141 0.84766 0 0-0.3164 0.58203-0.36719 1.2617 0 0-0.0469 0.67188-0.0469 1.4766v1.2109 0.40625m-27.391-3.7266-0.30859-0.26562s-0.31641-0.26953-0.58594-0.36719c0 0-0.26562-0.08984-0.26562-0.30859 0 0 0-0.21875 0.26562-0.21875 0 0 0.26953 0 0.63281 0.31641 0 0 0.35938 0.30859 0.9375 0.93359 0 0 0.58203 0.63281 1.2148 1.4844 0 0 0.6289 0.85156 1.1641 1.5273 0 0 0.53515 0.67578 0.76953 1.3984 0 0 0.23437 0.72266 0.9414 1.7461 0 0 0.70703 1.0195 1.2109 1.5234 0 0 0.5039 0.50391 1.2578 1.0391 0 0 0.75391 0.53516 1.2578 0.84766 0 0 0.50391 0.3164 1.3555 0.36328l0.84766 0.04688m-77.723-12.332-0.31641 0.26953s-0.3164 0.26562-0.53515 0.31641c0 0-0.21875 0.04297 0.0976 0.04297h1.2109s0.89453 0 2.0117-0.04297c0 0 1.1133-0.05078 2.1211-0.31641 0 0 1.0078-0.26953 3.1484-0.58594 0 0 2.1367-0.31641 4.0703-0.57812 0 0 1.9297-0.26562 3.5039-0.36328 0 0 1.5703-0.09766 3.0625-0.31641 0 0 1.4961-0.21875 3.6836-0.30859 0 0 2.1875-0.09766 3.8984-0.36719l1.7148-0.26562m-18.258-12.965h-0.30859s-0.31641 0-0.58594 0.04687c0 0-0.26562 0.04687-0.26562 0.36328 0 0 0 0.3125 0.21875 0.94141 0 0 0.21875 0.62891 0.30859 1.6172 0 0 0.0977 0.99219 0.36719 2.4687 0 0 0.26562 1.4805 0.58203 3.1484 0 0 0.31641 1.668 0.58203 3.7227 0 0 0.26953 2.0625 0.26953 3.9961 0 0 0 1.9336-0.22656 3.7734 0 0-0.21875 1.8359-0.30859 3.3633 0 0-0.0977 1.5273-0.31641 2.5156 0 0-0.21875 0.99219-0.26953 1.6719l-0.0469 0.67578m-15.82-17.793-0.89453-0.26172s-0.89844-0.26953-1.5312-0.31641c0 0-0.625-0.05078-0.9375 0 0 0-0.31641 0.04687-0.26953 0.31641 0 0 0.0508 0.26172 0.58594 0.57812l0.53125 0.3125m-0.34376 13.719v-0.3125s0-0.3125-0.043-0.58203c0 0-0.0469-0.26562-0.26562-0.21875 0 0-0.21875 0.04687-0.26953 0.63281 0 0-0.0469 0.57812-0.0469 1.3789v1.3008 1.2617 1.2578s0 0.5039 0.0469 1.2578c0 0 0.0508 0.7539 0.3164 1.168l0.26172 0.40625m-62.937-6.4453h-0.57813s-0.58203 0-0.98828 0.04687c0 0-0.41406 0.04297-0.94921 0.3125 0 0-0.53125 0.26562-0.89453 0.58203 0 0-0.36329 0.31641-0.625 0.63281 0 0-0.26954 0.3125-0.31641 0.62891 0 0-0.0469 0.30858 0 0.67186 0 0 0.0469 0.3633 0.26953 0.90235 0 0 0.21875 0.52734 0.3125 0.89062 0 0 0.0937 0.35938 0.41016 0.72657 0 0 0.3125 0.35546 0.84375 0.89063 0 0 0.53515 0.53906 0.94921 0.99218 0 0 0.40625 0.45703 0.98828 1.2109 0 0 0.57813 0.75391 1.2109 1.168 0 0 0.62891 0.40625 1.2109 0.67579 0 0 0.57812 0.26562 1.082 0.3125 0 0 0.5039 0.043 1.5234 0 0 0 1.0234-0.0469 1.8438-0.40625 0 0 0.8125-0.36329 1.8828-1.168 0 0 1.0742-0.80078 1.8438-1.6172 0 0 0.76953-0.81642 1.5742-2.0586 0 0 0.79687-1.2422 1.2109-1.8867 0 0 0.40624-0.64844 0.67187-1.6211 0 0 0.26953-0.97656 0.22266-1.5273 0 0-0.0508-0.55078-0.62891-1.3516 0 0-0.58203-0.80078-1.4766-1.4766 0 0-0.89844-0.67969-1.8906-1.2578 0 0-0.98828-0.58203-2.1523-0.89453 0 0-1.168-0.31641-2.1094-0.36328 0 0-0.94141-0.05078-1.7578 0.09766 0 0-0.81641 0.13672-2.0586 0.84375 0 0-1.2422 0.70703-1.7461 1.2109 0 0-0.5039 0.50391-0.76953 1.2578 0 0-0.26953 0.7539-0.3164 1.168l-0.0508 0.40625m-34.832-16.008-0.3125-0.58594s-0.31641-0.58203-0.58203-0.98828c0 0-0.26954-0.40625-0.22266-0.99219 0 0 0.0508-0.58203 0.53515-1.1133 0 0 0.48829-0.53516 0.89454-0.67578 0 0 0.41015-0.14453 0.99218-0.36328 0 0 0.58203-0.21875 1.3047-0.26953 0 0 0.72265-0.04687 1.8867-0.04687h2.418 2.5195s1.2578 0 2.5156 0.04687c0 0 1.2578 0.05078 2.4688 0.36719 0 0 1.2109 0.30859 2.1992 0.89453 0 0 0.99219 0.57812 1.9336 1.207 0 0 0.94141 0.62891 1.8359 1.3086 0 0 0.89843 0.67578 1.5781 1.5273 0 0 0.67578 0.84375 1.3086 1.5664 0 0 0.625 0.72266 1.2109 1.625 0 0 0.57812 0.89453 0.89453 1.793 0 0 0.30859 0.89453 0.40625 1.6641 0 0 0.0937 0.76562 0.31641 1.8867 0 0 0.21875 1.1133 0.21875 2.1055 0 0 0 0.98828-0.26954 1.9375 0 0-0.26562 0.9414-0.57812 1.8828 0 0-0.31641 0.94531-0.67969 1.8437 0 0-0.36328 0.89453-0.89453 1.5273 0 0-0.53515 0.62499-1.0391 1.0312 0 0-0.5 0.40625-1.5234 0.94141 0 0-1.0234 0.53906-1.8867 0.94922 0 0-0.86719 0.40625-2.1523 0.9414 0 0-1.2891 0.53125-2.2461 0.94532 0 0-0.96484 0.40624-2.4687 0.9414 0 0-1.5117 0.53516-2.4688 0.89844 0 0-0.96484 0.35937-2.207 0.6289 0 0-1.2422 0.26563-1.7891 0.3125 0 0-0.55078 0.043-1.0859 0.043h-0.89453-0.58203s-0.22266 0 0 0h0.21875"/></g><g stroke="#f04523"><path d="m473.23 153.37 0.0469-0.3125s0.0508-0.3164 0.26953-0.6289c0 0 0.21875-0.31641 0.26953-0.63282 0 0 0.0469-0.3125 0.0469-0.625 0 0 0-0.3164 0.0469-0.72265 0 0 0.0508-0.41406 0.26953-1.2109 0 0 0.21875-0.80468 0.21875-1.4766 0 0 0-0.67969-0.21875-1.2578 0 0-0.21875-0.58594-0.36328-1.0898 0 0-0.14062-0.50391-0.67578-1.5234 0 0-0.53516-1.0234-1.1641-1.7461 0 0-0.62891-0.72266-1.2578-1.3516 0 0-0.62891-0.63281-1.2578-1.168 0 0-0.63282-0.53516-1.2109-0.67187 0 0-0.58203-0.14063-0.94141-0.3125 0 0-0.36328-0.17579-0.63281 0.0898 0 0-0.26562 0.26953-0.35547 0.94531 0 0-0.0976 0.67187-0.3164 1.9336 0 0-0.22266 1.2578-0.26953 3.0508 0 0-0.0469 1.793-0.0469 3.7266v4.1328 4.4844 3.8711 3.4609 3.0469 2.2461s0 1.0742 0.0469 1.4805c0 0 0.0469 0.40625 0.3164 0.45312l0.26172 0.0508" stroke-width="4.2837"/><path d="m607.21 171.31h-0.35937-0.98828s-0.63282 0-1.3867-0.043c0 0-0.75781-0.0508-0.84766-0.3164 0 0-0.0977-0.26953 0.21875-0.58203 0 0 0.3125-0.31641 0.89453-0.62891l0.58594-0.31641m0.0742-33.293-0.53906 0.58594s-0.53516 0.57812-0.67188 1.0391c0 0-0.14453 0.45313-0.41406 1.3477 0 0-0.26562 0.89453-0.53515 2.1094 0 0-0.26563 1.2109-0.36329 2.5195 0 0-0.0898 1.3008-0.3125 2.875 0 0-0.21874 1.5664-0.21874 3.3125 0 0 0 1.7461 0.26953 3.0039 0 0 0.26562 1.2578 0.58203 1.9844l0.3125 0.72266m-33.625 6.9141-0.26172 0.31641s-0.26562 0.30859-0.3164 0.67187c0 0-0.0469 0.36719-0.0469 0.89454v0.94921s0 0.40625 0.0469 0.94141c0 0 0.0508 0.53515 0.3164 0.94531 0 0 0.26172 0.40625 0.62891 0.94141 0 0 0.36328 0.53515 0.89453 0.85156 0 0 0.53516 0.30859 0.94531 0.35937 0 0 0.40625 0.0469 1.0391 0.0469 0 0 0.62891 0 1.4766-0.0469 0 0 0.84766-0.0508 1.5703-0.35937 0 0 0.72265-0.31641 1.5742-0.89453 0 0 0.84766-0.58594 1.4766-1.168 0 0 0.62891-0.58203 0.99219-0.99219 0 0 0.35938-0.40625 0.67578-0.9414 0 0 0.31641-0.53516 0.58203-0.89453 0 0 0.26953-0.36328 0.26953-0.63282 0 0 0-0.26562-0.22265-0.26562 0 0-0.22266 0-0.26563 0.36328 0 0-0.0469 0.35938-0.0469 1.1133v1.2578s0 0.50391 0.0469 1.3086c0 0 0.043 0.79687 0.40625 1.4766 0 0 0.35938 0.67578 1.2109 1.3086l0.85156 0.625m-26.437-8.832-1.1133 0.63281s-1.1211 0.625-1.5742 1.207c0 0-0.46094 0.57812-0.72266 0.99219 0 0-0.26953 0.40625-0.3164 0.99218 0 0-0.0508 0.57813-0.0508 1.207 0 0 0 0.62891 0.0508 1.2617 0 0 0.0469 0.625 0.36328 1.207 0 0 0.30859 0.58594 0.89453 0.90234 0 0 0.57812 0.3086 1.1602 0.35547 0 0 0.58594 0.0508 1.0391 0 0 0 0.45703-0.0469 1.2578-0.3125 0 0 0.80078-0.26953 1.5273-0.67578 0 0 0.72266-0.40625 1.5273-1.2109 0 0 0.79688-0.80469 1.207-1.4766 0 0 0.41016-0.67968 0.71875-1.3555 0 0 0.31641-0.67578 0.58203-1.5195 0 0 0.26953-0.85157 0.26953-1.5274 0 0 0-0.67968-0.3164-1.2578 0 0-0.3086-0.58593-0.9375-0.99218 0 0-0.62891-0.41016-1.5234-0.89844 0 0-0.90234-0.48828-1.7969-0.57813 0 0-0.89844-0.0977-1.5234-0.0508 0 0-0.63281 0.0508-0.99218 0.36719 0 0-0.36329 0.30859-0.63282 0.89453 0 0-0.26562 0.57813-0.30859 1.207l-0.0469 0.62891m-4.0547-5.0039-0.3164 0.0508s-0.3086 0.0469-0.625 0.3125c0 0-0.31641 0.26562-0.62891 0.58203 0 0-0.3125 0.3125-0.58203 0.67969 0 0-0.26953 0.35546-0.40625 0.98828 0 0-0.14453 0.6289-0.67578 1.5703 0 0-0.53516 0.9414-1.1602 2.1992 0 0-0.63281 1.2578-1.3086 2.7852 0 0-0.67969 1.5273-1.5742 3.1445 0 0-0.89843 1.6211-1.8398 3.4648 0 0-0.9414 1.8359-1.9336 3.7695 0 0-0.99219 1.9336-2.1523 4.0898 0 0-1.168 2.1523-2.1523 4.3047 0 0-0.99219 2.1523-1.8867 4.043 0 0-0.89844 1.8867-1.5312 3.4141 0 0-0.625 1.5234-0.89453 2.4688 0 0-0.26562 0.94141 0 1.3516 0 0 0.26953 0.41016 0.85156 0.72266l0.57813 0.3125m0.0703-37.418v-0.3125s0-0.31641-0.0508-0.58203c0 0-0.0469-0.26953-0.26562-0.26953 0 0-0.21875 0-0.21875 0.26953 0 0 0 0.26562 0.21875 0.6289 0 0 0.21875 0.35938 0.30859 0.9375 0 0 0.0977 0.58594 0.36328 1.2148 0 0 0.26954 0.62891 0.58594 1.2617 0 0 0.31641 0.625 0.625 1.2578 0 0 0.31641 0.625 0.67969 1.3477 0 0 0.35937 0.72265 0.84765 1.7461 0 0 0.48828 1.0234 0.63281 1.4805 0 0 0.13672 0.45312 0.40625 0.76953l0.26563 0.31641m-45.742 0.43359v0.58203s0 0.58594-0.043 0.85157c0 0-0.0508 0.26171-0.26954 0.043 0 0-0.21875-0.21875-0.26562-0.63281 0 0-0.0508-0.40625-0.0508-1.25v-1.7969s0-0.94141 0.0508-1.8359c0 0 0.0469-0.89843 0.31641-1.5742 0 0 0.26171-0.67578 0.57812-1.3008 0 0 0.3125-0.63282 0.67969-1.2148 0 0 0.35547-0.58593 0.98828-0.89453 0 0 0.6289-0.3164 1.5703-0.3164 0 0 0.9414 0 2.0625 0.21875 0 0 1.1133 0.21875 1.8359 0.26953l0.72266 0.0469m-22.309 1.9374h-0.31641s-0.3164 0-0.625 0.0469c0 0-0.3164 0.043-0.63281 0.3086 0 0-0.3164 0.26953-0.57812 0.67968 0 0-0.26953 0.41016-0.31641 1.2109 0 0-0.0469 0.80078-0.0469 1.4297 0 0 0 0.62891 0.0469 1.0391 0 0 0.0469 0.40625 0.31641 0.94531 0 0 0.26172 0.53515 0.67578 0.89843 0 0 0.40625 0.35938 1.1602 0.625 0 0 0.75391 0.26954 1.2109 0.31641 0 0 0.45312 0.043 0.98828 0 0 0 0.53516-0.0469 0.99219-0.40625 0 0 0.45312-0.36328 1.2578-1.168 0 0 0.80469-0.80468 1.3867-1.4766 0 0 0.57812-0.67968 0.67578-1.3555 0 0 0.0898-0.67578 0.0898-1.5195 0 0 0-0.85156-0.0898-1.5273 0 0-0.0977-0.67968-0.63282-1.3086 0 0-0.53515-0.62891-1.1602-1.207 0 0-0.62891-0.58594-1.2539-0.89453 0 0-0.63281-0.31641-1.2578-0.36719 0 0-0.63281-0.0469-1.168 0.0508 0 0-0.53515 0.0898-0.62499 0.625l-0.0977 0.53516m-18.172-0.37505-0.58594 0.0508s-0.57813 0.0469-0.93359 0.26562c0 0-0.36719 0.22266-0.63282 0.31641 0 0-0.26953 0.0937-0.26953 0.3125 0 0 0 0.21875 0.31641 0.26562 0 0 0.3125 0.0508 0.89453 0.0977 0 0 0.58203 0.0469 1.3047 0.26562 0 0 0.72656 0.22266 1.8437 0.26953 0 0 1.1133 0.043 2.1992 0 0 0 1.082-0.0469 2.5195-0.26953 0 0 1.4297-0.21875 2.7812-0.26562 0 0 1.3516-0.0469 2.875-0.0469h1.5234m-64.219-4.2071-0.40625 0.3164s-0.41406 0.3125-1.0234 0.62891c0 0-0.61718 0.31641-0.17578 0.58203 0 0 0.4375 0.26953 1.2891 0.31641 0 0 0.85157 0.043 1.6719 0.043h2.2422 3.0039 3.1484s1.5664 0 3.0938 0.0469c0 0 1.5273 0.0508 2.832 0.31641 0 0 1.3008 0.26953 2.5586 0.58593l1.2617 0.3086m-10.5-20.758-0.53515 0.90235s-0.53516 0.89453-0.67188 1.5664c0 0-0.14453 0.67578-0.36328 1.3555 0 0-0.22266 0.67578-0.26953 1.8125 0 0-0.0469 1.1289-0.0469 3.2226 0 0 0 2.0859-0.043 3.8672 0 0-0.0508 1.7695-0.31641 4.7578 0 0-0.26953 2.9883-0.58594 5.5547 0 0-0.3125 2.5586-0.57812 4.3516 0 0-0.26563 1.7969-0.31641 2.6562 0 0-0.0469 0.86719 0 1.625 0 0 0.0508 0.75391 0.31641 0.89844l0.26562 0.14062m-9.8984-27.383-0.58203-0.80078s-0.58203-0.80078-0.9414-0.94141c0 0-0.36328-0.14453-0.67578-0.14453 0 0-0.31641 0-0.58203 0.0469 0 0-0.26953 0.0508-0.26953 0.3164 0 0 0 0.26172 0.26953 0.57813l0.26562 0.3164m-0.67188 15.172h-0.3125s-0.3164 0-0.63281 0.0977c0 0-0.3125 0.0898-0.57812 0.72265 0 0-0.26563 0.625-0.3125 1.7461 0 0-0.0508 1.1133-0.0508 2.0547v1.6211 1.3086s0 0.625 0.0508 1.2109c0 0 0.0469 0.57813 0.3125 0.94141l0.26562 0.35937m-37.508-3.1172-0.17187 0.21875s-0.17578 0.21875 0.26171 0.0469c0 0 0.4375-0.17578 0.89844-0.3164 0 0 0.45703-0.13672 1.2578-0.57813 0 0 0.80078-0.44531 1.4805-0.67968 0 0 0.67188-0.23438 1.3047-0.99219 0 0 0.6289-0.7539 1.2109-1.3789 0 0 0.57813-0.63282 0.89063-0.99219 0 0 0.3125-0.36328 0.3125-0.76953 0 0 0-0.41406-0.26172-1.168 0 0-0.26563-0.75-0.67188-1.1562 0 0-0.41406-0.41406-1.168-0.67968 0 0-0.75782-0.26954-1.3086-0.26954 0 0-0.55078 0-1.5664 0.31641 0 0-1.0234 0.3125-1.7969 0.9375 0 0-0.76953 0.63281-1.5742 1.5781 0 0-0.80078 0.94531-1.207 2.1055 0 0-0.40625 1.1641-0.72266 2.1523 0 0-0.3164 0.99219-0.53515 2.0312 0 0-0.22266 1.0391 0 2.3281 0 0 0.21875 1.2891 0.6289 1.8906 0 0 0.41016 0.59375 1.2539 1.3476 0 0 0.85156 0.75781 1.8438 1.1211 0 0 0.98828 0.35938 2.1094 0.45313 0 0 1.1133 0.0937 1.793 0.3125 0 0 0.67578 0.21875 1.0391 0.26562l0.35937 0.0508m-15.078-16-0.89453-0.26562s-0.90235-0.26563-1.5742-0.3125c0 0-0.67578-0.0508-1.2578 0 0 0-0.58594 0.0469-0.99219 0.3125 0 0-0.40625 0.26562-0.9414 0.58203 0 0-0.53516 0.3125-0.94141 0.67969 0 0-0.41406 0.35546-0.94922 0.89453 0 0-0.53125 0.53515-0.89453 0.89843 0 0-0.36328 0.35938-0.625 0.67578 0 0-0.26953 0.3086-0.3164 0.625 0 0-0.0508 0.31641-0.0508 0.63282 0 0 0 0.30859 0.0508 0.57812 0 0 0.0469 0.26563 0.3164 0.31641 0 0 0.26172 0.0469 0.625 0.0937 0 0 0.36328 0.043 0.94922 0.26562 0 0 0.57813 0.21875 1.1602 0.3125 0 0 0.57812 0.0977 0.99218 0.31641 0 0 0.40625 0.22265 1.0312 0.35937 0 0 0.63281 0.14453 1.4375 0.58594 0 0 0.79688 0.4375 1.207 0.53515 0 0 0.40625 0.0898 0.72266 0.0898h0.3125m-9.2891-22.141v-0.57812-0.85157 0 0.94141 1.8438 2.5625 3.3164s0 1.918-0.043 3.6445c0 0-0.0469 1.7305-0.26953 4.5742 0 0-0.22265 2.8476-0.32031 4.8476 0 0-0.0898 1.9961-0.30859 4.0898 0 0-0.22266 2.0898-0.22266 3.0469 0 0 0 0.96093 0.26953 1.7148 0 0 0.26563 0.7539 0.58203 0.89843l0.3125 0.14063m-11.93-10.141-0.26954-0.043s-0.26562-0.0469-0.30859-0.31641c0 0-0.0508-0.26562-0.0508-0.58203v-0.6289s0-0.31641-0.0469-0.625c0 0-0.0469-0.31641-0.26954-0.63281 0 0-0.21875-0.31641-0.26562-0.63282 0 0-0.0469-0.30859-0.0977-0.66796 0 0-0.0469-0.36329-0.30859-0.85157 0 0-0.26953-0.49218-0.62891-0.63281 0 0-0.36328-0.13672-0.94531-0.30859 0 0-0.58593-0.17578-1.1641 0.043 0 0-0.58203 0.21875-0.9414 0.67578 0 0-0.36329 0.45703-0.67969 1.4336 0 0-0.31641 0.97266-0.57813 1.5742 0 0-0.26953 0.59375-0.3164 1.5703 0 0-0.0469 0.97265-0.0469 1.4766v1.0391s0 0.53516 0.0469 0.89844c0 0 0.0469 0.35937 0.3164 0.6289 0 0 0.26172 0.26172 0.625 0.26172 0 0 0.36719 0 0.89453-0.26172 0 0 0.53516-0.26953 0.9961-0.6289 0 0 0.45703-0.36328 1.2109-0.89844 0 0 0.75-0.53515 1.2109-0.89453 0 0 0.45312-0.36328 0.98828-0.63281 0 0 0.53125-0.26563 0.94531-0.26563 0 0 0.40625 0 0.89063 0.26563 0 0 0.48828 0.26953 0.68359 0.72265 0 0 0.1875 0.45704 0.625 1.4805 0 0 0.4375 1.0195 0.63281 1.793 0 0 0.1875 0.76953 0.625 1.5742 0 0 0.4375 0.79687 0.53516 1.2109l0.0898 0.40625m-36.383-8.4531-0.57813 0.26953s-0.58203 0.26563-0.89453 0.36328c0 0-0.3125 0.0899-0.36328 0.35938 0 0-0.0469 0.26562-0.0469 0.6289v0.94532 1.207 1.2109s0 0.58594 0.0469 0.99219c0 0 0.0508 0.40625 0.26953 0.9414 0 0 0.21875 0.53516 0.26563 0.89844 0 0 0.043 0.35938 0.043 0.58203v0-0.6289-1.2109-1.4766-1.3555s0-0.67578 0.0508-1.5195c0 0 0.0469-0.85156 0.3125-1.4805 0 0 0.26953-0.6289 0.58593-1.0352 0 0 0.3086-0.41406 0.67578-0.94922 0 0 0.35547-0.53125 0.89453-0.84766 0 0 0.53516-0.3164 0.89844-0.36328 0 0 0.35938-0.0469 0.72266 0 0 0 0.35937 0.0469 0.89453 0.26953 0 0 0.53515 0.21875 0.89843 0.36329 0 0 0.35938 0.13671 0.625 0.62499 0 0 0.26953 0.48829 0.36719 0.85157 0 0 0.0898 0.35937 0.30859 0.67578 0 0 0.21875 0.3164 0.31641 0.63281 0 0 0.0977 0.30859 0.36328 0.57812 0 0 0.26172 0.26563 0.57813 0.21875 0 0 0.3164-0.0469 0.67968-0.625 0 0 0.35938-0.58593 0.89453-1.3828 0 0 0.53516-0.80468 0.89844-1.2578 0 0 0.35937-0.46094 0.67578-0.94922 0 0 0.3125-0.48828 0.67578-0.57812 0 0 0.35938-0.0977 0.94141 0.0898 0 0 0.58593 0.1875 1.1211 1.1211 0 0 0.52734 0.92578 0.67187 1.5273 0 0 0.14063 0.59375 0.35938 1.6172 0 0 0.21875 1.0195 0.3164 1.793 0 0 0.0899 0.76953 0.35938 1.5742 0 0 0.26562 0.79687 0.58203 1.2109l0.31641 0.40625m-46.16-14.504-0.3125-0.26563s-0.3164-0.26953-0.63281-0.36328c0 0-0.3125-0.0937-0.625-0.3125 0 0-0.31641-0.21875-0.58203-0.21875 0 0-0.26953 0-0.35938 0.26563 0 0-0.0976 0.26953-0.3164 0.58593 0 0-0.22656 0.3086-0.31641 0.67578 0 0-0.0976 0.35547-0.3164 0.89453 0 0-0.21875 0.53516-0.3086 0.94531 0 0-0.0976 0.40625-0.3164 0.94141 0 0-0.22656 0.53125-0.22656 0.94531 0 0 0 0.40625 0.22656 0.94141 0 0 0.21875 0.53515 0.36328 0.89843 0 0 0.14062 0.35938 0.625 0.67578 0 0 0.48828 0.3125 0.94531 0.625 0 0 0.45312 0.31641 1.207 0.58594 0 0 0.75781 0.26563 1.2109 0.31641 0 0 0.45703 0.043 0.99218 0.0898 0 0 0.53516 0.0469 0.89844 0.26953 0 0 0.35937 0.21875 0.625 0.3125 0 0 0.26953 0.0937 0.3125 0.35938 0 0 0.0469 0.26953-0.0977 0.63281 0 0-0.13672 0.35937-0.84375 0.89453 0 0-0.70703 0.53515-1.1133 0.85156 0 0-0.41406 0.30859-0.82031 0.45313 0 0-0.40625 0.14062-1.1641 0.6289 0 0-0.75391 0.48828-1.1602 0.80078 0 0-0.41406 0.31641-0.76953 0.41406 0 0-0.36718 0.0899-0.94531 0.35938 0 0-0.58203 0.26562-1.207 0.58203 0 0-0.63281 0.3125-1.168 0.6289 0 0-0.53515 0.31641-0.6289 0.62891l-0.0937 0.3125m-15.738-11.703 0.0469-0.3125s0.0508-0.31641 0.26953-0.53516c0 0 0.21875-0.21875 0.26563 0 0 0 0.043 0.21875 0.043 0.53516v0.67578 0.89453 0.99219 1.207s0 0.75781 0.0508 1.3086c0 0 0.0469 0.55078 0.3164 1.5273 0 0 0.26563 0.97266 0.58203 1.4766 0 0 0.3086 0.50391 0.67578 1.0391 0 0 0.35547 0.53515 0.89454 0.89843 0 0 0.53515 0.35938 0.94531 0.62891 0 0 0.40625 0.26562 0.99218 0.26562 0 0 0.57813 0 1.1602-0.26562 0 0 0.57812-0.26953 0.99219-0.67578 0 0 0.40625-0.41406 0.9414-1.2148 0 0 0.53516-0.80468 0.89844-1.5273 0 0 0.35937-0.72265 0.67187-1.6172 0 0 0.3125-0.89453 0.58203-1.793 0 0 0.26953-0.89453 0.31641-1.5703 0 0 0.0469-0.67969 0.0469-1.3047v-1.2109-0.94141-0.36719m-59.184-7.0508-0.53124 0.58203s-0.53516 0.57812-0.58594 0.89453c0 0-0.0469 0.3164 0.22265 0.41406 0 0 0.26563 0.0898 0.72266 0.30859 0 0 0.45312 0.21875 1.4297 0.26953 0 0 0.97265 0.0469 1.7109 0.0469h2.4258s1.6836 0 2.8281-0.0469c0 0 1.1445-0.0508 3.1445-0.26953 0 0 1.9961-0.21875 3.4141-0.35937 0 0 1.4141-0.14453 3.6875-0.67969l2.2812-0.53516m-11.168-11.672-0.53515 0.58203s-0.53516 0.57813-0.625 1.082c0 0-0.0977 0.50391-0.0977 1.6719 0 0 0 1.1602 0.0469 2.7812 0 0 0.0508 1.6172 0.31641 3.7227 0 0 0.26172 2.1094 0.53125 4.3125 0 0 0.26562 2.1992 0.36328 4.2617 0 0 0.0977 2.0547 0.31641 3.5976 0 0 0.21875 1.543 0.26562 3.3672 0 0 0.043 1.8242 0.043 2.6914 0 0 0 0.85937 0.0508 1.3945 0 0 0.0469 0.53906 0.31641 0.63281l0.26562 0.0937m-28.266-8.9921 0.0469 0.31641s0.0508 0.3164 0.31641 0.58203c0 0 0.26172 0.26172 0.57812 0.35937 0 0 0.31641 0.0977 0.63282 0.36328 0 0 0.30859 0.26953 0.72265 0.53516 0 0 0.40625 0.26172 1.2109 0.3125 0 0 0.80078 0.0469 1.5234 0.0469h1.5274s0.79687 0 1.2578-0.0469c0 0 0.45703-0.0508 0.99218-0.3125 0 0 0.52735-0.26563 0.89453-0.58203 0 0 0.35938-0.31641 0.67188-0.62891 0 0 0.3164-0.3125 0.58594-0.67187 0 0 0.26562-0.36328 0.3164-0.90234 0 0 0.043-0.53516 0.043-0.89063v-0.68359-0.67188-0.89453-0.89453s0-0.36328-0.0937-0.73047c0 0-0.0937-0.36328-0.58203-0.89453 0 0-0.48828-0.53515-0.89844-0.89062 0 0-0.41015-0.36719-0.9375-0.63281 0 0-0.53515-0.26953-0.99218-0.35938 0 0-0.46094-0.0977-1.2578-0.26953 0 0-0.80469-0.17578-1.4766 0.0937 0 0-0.67968 0.26563-1.2578 0.80078 0 0-0.58593 0.53516-0.94531 1.0391 0 0-0.36328 0.5-0.67969 1.6172 0 0-0.3164 1.1133-0.62499 2.4219 0 0-0.31641 1.3047-0.58204 2.832 0 0-0.26953 1.5273-0.26953 3.0508 0 0 0 1.5234 0.31641 2.7812 0 0 0.31641 1.2578 0.89844 2.1992 0 0 0.57812 0.94532 1.3008 1.5742 0 0 0.72265 0.62891 1.8437 0.99219 0 0 1.1133 0.35937 2.0547 0.625 0 0 0.94141 0.26953 1.6641 0.3164 0 0 0.72266 0.0508 1.625 0.0508h0.89453m-20.176-32.91 0.26953-0.043s0.26562-0.0469 0.30859-0.21875c0 0 0.0469-0.17578 0.0469 0.043v0.63281 1.207 1.7617 3.1445s0 2.1875-0.0469 4.4844c0 0-0.043 2.2891-0.30859 4.7578 0 0-0.26953 2.4688-0.58594 4.8477 0 0-0.3164 2.3711-0.58203 3.9961 0 0-0.26953 1.6172-0.36328 2.7031 0 0-0.0937 1.082-0.3125 2.1523 0 0-0.21875 1.0703-0.21875 1.5273 0 0 0 0.45313 0.26563 0.76953 0 0 0.26953 0.31641 0.58593 0.63282l0.3086 0.30859m375.54-70.445v0.3164 0.53516 0s0-0.21875 0.0469-0.625c0 0 0.0508-0.41406 0.26954-1.2656 0 0 0.21875-0.84765 0.26562-1.7891 0 0 0.043-0.94531 0.0937-1.8906 0 0 0.0469-0.94141 0.31641-1.8828 0 0 0.26562-0.94531 0.6289-1.8398 0 0 0.35938-0.89844 0.94531-1.5234 0 0 0.57813-0.63281 1.1602-0.9414 0 0 0.58203-0.31641 1.0391-0.36719 0 0 0.45313-0.04687 1.3047 0 0 0 0.84765 0.05078 1.7461 0.36719 0 0 0.89453 0.30859 1.6172 0.84375 0 0 0.72265 0.53516 1.5742 0.94141 0 0 0.84766 0.41016 1.5273 0.99219l0.67579 0.58203m-27.664-2.0547-0.0508-0.21875s-0.0469-0.21875-0.30859-0.04297c0 0-0.26953 0.17188-0.58594 0.26953 0 0-0.3125 0.08984-0.625 0.30859 0 0-0.31641 0.22266-0.63281 0.31641 0 0-0.31641 0.09375-0.625 0.35938 0 0-0.31641 0.26953-0.63281 0.58594 0 0-0.31641 0.3125-0.57813 0.625 0 0-0.26562 0.3164-0.36328 0.63281 0 0-0.0977 0.3164-0.36328 0.67969 0 0-0.26953 0.35938-0.53125 0.94141 0 0-0.26562 0.57812-0.31641 1.2109 0 0-0.0469 0.625-0.0469 1.3008 0 0 0 0.67578 0.0469 1.5273 0 0 0.0508 0.84375 0.31641 1.5195 0 0 0.26172 0.67969 0.625 1.2656 0 0 0.36719 0.57813 0.99219 0.94141 0 0 0.625 0.35937 1.4766 0.625 0 0 0.85156 0.26953 1.5742 0.26953 0 0 0.72265 0 1.5273-0.26953 0 0 0.79687-0.26563 1.3008-0.67578 0 0 0.5039-0.40625 1.3047-1.207 0 0 0.80469-0.80469 1.3828-1.4805 0 0 0.58593-0.67187 0.67968-1.3008 0 0 0.0898-0.63281 0.0898-1.2578 0 0 0-0.63281-0.0898-1.2578 0 0-0.0937-0.63281-0.63281-1.2109 0 0-0.53516-0.58203-1.1172-0.89844 0 0-0.57812-0.31641-1.0352-0.40625 0 0-0.45313-0.09766-1.207-0.3164 0 0-0.75781-0.22266-1.2578-0.22266 0 0-0.50391 0-1.2617 0.26953 0 0-0.75391 0.26953-1.1133 0.63281 0 0-0.36328 0.35938-0.41016 0.94141l-0.0508 0.57812" stroke-width="4.2837"/><path d="m60.453 29.969-0.59375-0.69922s-0.59375-0.69531-0.80078-1.293c0 0-0.20703-0.59375-0.69922-0.59375 0 0-0.48828 0-0.59375 0.69922 0 0-0.10156 0.69922-0.10156 1.8867v2.1992s0 1.0078-0.10547 2.6875c0 0-0.10547 1.6719-0.69922 2.8945 0 0-0.59375 1.2187-1.2891 3.4844 0 0-0.69922 2.2656-1.6055 4.3945 0 0-0.90625 2.125-2.5781 6.1719 0 0-1.6758 4.0469-3 7.6797 0 0-1.3281 3.625-3.9766 8.8594 0 0-2.6523 5.2266-4.1875 8.9648 0 0-1.5391 3.7344-4.293 8.375 0 0-2.7539 4.6328-4.3594 7.0391 0 0-1.6055 2.4062-2.3008 3.3203 0 0-0.69922 0.90625-0.80469 1.3984 0 0-0.10156 0.48047 0-0.11328 0 0 0.10547-0.59375 0.90625-2.1992 0 0 0.80469-1.6016 2.6875-4.8789 0 0 1.8867-3.2812 3.9805-7.3594 0 0 2.0859-4.082 4.0781-8.0547 0 0 1.9883-3.9805 3.9141-7.6055 0 0 1.9141-3.6328 5.2617-9.3516 0 0 3.3437-5.7227 5.5781-9.5547 0 0 2.2344-3.8398 5.582-8.3789 0 0 3.3516-4.5352 5.2656-6.6602 0 0 1.918-2.1328 3.6992-3.8047 0 0 1.7734-1.6758 2.582-1.8828 0 0 0.80469-0.21094 0.80469 0.59375 0 0 0 0.80078-0.69922 2.793 0 0-0.69922 1.9883-1.9922 4.7734 0 0-1.2891 2.793-2.6875 6.2812 0 0-1.3945 3.4922-2.8945 7.6797 0 0-1.5 4.1797-3.5859 8.9648 0 0-2.0937 4.7734-4.6797 9.6602 0 0-2.582 4.8789-4.668 9.5586 0 0-2.0937 4.6719-3.8047 8.5859 0 0-1.7148 3.9062-3.9766 8.0547 0 0-2.2656 4.1523-3.2773 6.0664 0 0-1.0156 1.918-1.3945 2.8984 0 0-0.38672 0.97266 0.69922-0.10546 0 0 1.0742-1.082 2.5742-3.1758 0 0 1.5-2.0977 3.4922-4.8789 0 0 1.9883-2.793 4.082-6.3867 0 0 2.0859-3.5977 4.0781-7.8516 0 0 1.9883-4.2539 3.9062-7.5 0 0 1.9141-3.2461 5.2617-8.8594 0 0 3.3516-5.6133 5.4805-9.3516 0 0 2.125-3.7344 4.9922-7.8867 0 0 2.8555-4.1484 4.5664-6.4531 0 0 1.707-2.3008 2.8945-3.207 0 0 1.1875-0.90625 1.5-1.3867 0 0 0.3125-0.49219 0.69922 0.10156 0 0 0.38281 0.58594-0.21094 1.9844 0 0-0.59375 1.3945-1.8828 3.5937 0 0-1.293 2.1992-2.6914 5.2734 0 0-1.3945 3.0664-3 5.8945 0 0-1.6016 2.8242-4.1797 7.8789 0 0-2.582 5.0586-5.375 10.539 0 0-2.793 5.4727-5.6797 10.566 0 0-2.8984 5.0937-6.1719 10.258 0 0-3.2812 5.1602-5.8672 8.6523 0 0-2.582 3.4883-3.3828 4.8828 0 0-0.80469 1.3906-0.10547 0.6914 0 0 0.69922-0.69531 2.5859-3.2734 0 0 1.8789-2.5859 4.0742-6.0742 0 0 2.1992-3.4844 4.7812-7.5664 0 0 2.5859-4.0859 4.9922-8.3789 0 0 2.4062-4.2852 5.4805-8.8516 0 0 3.0664-4.5742 5.6797-8.793 0 0 2.6133-4.2266 6.168-9.9453 0 0 3.5586-5.7148 6.0742-8.5391 0 0 2.5117-2.8281 4.8867-4.7148 0 0 2.3711-1.8867 3.3789-2.5859 0 0 1.0117-0.69531 1.6055-0.20703 0 0 0.59375 0.49219 0.59375 1.5 0 0 0 1.0117-0.59375 3.2812 0 0-0.59375 2.2656-1.5 4.3984 0 0-0.90625 2.125-2.6836 6.0664 0 0-1.7812 3.9453-3.6016 7.0859 0 0-1.8086 3.1328-4.668 8.2656 0 0-2.8594 5.1211-4.9844 8.9609 0 0-2.1289 3.8398-5.6875 9.1797 0 0-3.5625 5.332-6.3477 9.1367 0 0-2.793 3.8008-4.293 6.2812 0 0-1.5 2.4727-2.0937 2.8945 0 0-0.59375 0.41796 0 0 0 0 0.59375-0.42188 1.7812-2.582 0 0 1.1836-2.1641 2.4062-4.2852 0 0 1.2188-2.1328 3.9727-6.1797 0 0 2.7578-4.0469 4.8867-7.6797 0 0 2.125-3.6211 5.4727-8.7461 0 0 3.3477-5.1328 5.5859-8.4805 0 0 2.2344-3.3516 5.6875-8.3711 0 0 3.4531-5.0273 5.7539-7.6406 0 0 2.3008-2.6211 3.6953-3.9062 0 0 1.3984-1.293 2.0938-1.3984 0 0 0.6914-0.10156 0.58984 0.69922 0 0-0.10547 0.80078-1.1836 2.4805 0 0-1.082 1.6719-2.0937 3.207 0 0-1.0078 1.5312-2.8945 5.5781 0 0-1.8867 4.0469-4.082 7.9531 0 0-2.1992 3.9062-4.9844 8.6836 0 0-2.793 4.7812-6.1797 10.262 0 0-3.375 5.4727-6.7617 10.953 0 0-3.3867 5.4727-6.1719 10.152 0 0-2.793 4.6719-4.6758 7.4648 0 0-1.8867 2.7891-2.0937 3.5938 0 0-0.21094 0.80079 0.59375-0.10546 0 0 0.80078-0.91407 2.4766-3.668 0 0 1.6719-2.7539 3-5.1914 0 0 1.3242-2.4414 4.293-7.6797 0 0 2.9648-5.2344 5.8594-9.6211 0 0 2.8867-4.3984 5.4727-7.8867 0 0 2.582-3.4922 4.7148-6.6992 0 0 2.125-3.2109 5.9609-7.3594 0 0 3.832-4.1523 5.8594-6.5586 0 0 2.0195-2.4062 3.8008-3.6992 0 0 1.7773-1.293 2.4727-1.1875 0 0 0.69921 0.10547 0.21093 1.7812 0 0-0.49219 1.6719-1.3984 3.6992 0 0-0.90625 2.0195-2.6797 5.9648 0 0-1.7813 3.9414-3.5938 7.082 0 0-1.8125 3.1367-4.6719 8.3711 0 0-2.8633 5.2266-5.1016 9.7656 0 0-2.2266 4.5352-6.0664 10.848 0 0-3.8359 6.3125-6.0664 10.152 0 0-2.2344 3.8398-4.8828 7.7852 0 0-2.6523 3.9336-3.2773 5.1523 0 0-0.62891 1.2266-1.0078 1.2266 0 0-0.38672 0 0.3125-0.80468 0 0 0.69531-0.80079 2.375-2.5742 0 0 1.6719-1.7852 2.8867-3.9062 0 0 1.2188-2.1328 3.4922-6.5586 0 0 2.2656-4.4336 4.293-7.6797 0 0 2.0195-3.2461 5.3672-8.3672 0 0 3.3477-5.1328 5.6875-9.0742 0 0 2.332-3.9453 6.1719-9.5586 0 0 3.8359-5.6133 6.0742-8.6523 0 0 2.2266-3.0391 4.9805-5.8984 0 0 2.7539-2.8555 3.875-3.9727 0 0 1.1133-1.1211 1.707-1.5 0 0 0.59766-0.38672 0.59766 0.59375 0 0 0 0.97266-0.8047 2.1992 0 0-0.80859 1.2188-2.4805 3.9727 0 0-1.668 2.7578-2.8867 4.9922 0 0-1.2266 2.2266-3.707 6.4844 0 0-2.4726 4.2617-5.3672 8.6562 0 0-2.8945 4.3906-6.0664 8.8594 0 0-3.1797 4.4648-5.9023 8.3984 0 0-2.7187 3.9453-6.7656 10.645 0 0-4.0469 6.6992-6.7656 10.535 0 0-2.7148 3.8398-5.3672 6.9844 0 0-2.6523 3.1328-2.3672 2.2617 0 0 0.27344-0.875 2.0547-3.9414 0 0 1.7773-3.0664 3.6992-6.4844 0 0 1.9141-3.4219 5.2656-8.6523 0 0 3.3398-5.2344 5.6797-9.1758 0 0 2.3398-3.9453 6.2812-9.6641 0 0 3.9414-5.7266 6.7734-9.5625 0 0 2.8203-3.832 6.375-8.4766 0 0 3.5586-4.6406 6.0664-7.3594 0 0 2.5117-2.7148 4.8867-5.0859 0 0 2.3711-2.375 3.3867-3.2812 0 0 1.0117-0.91406 1.6055-0.80859 0 0 0.58594 0.10938 0.58594 1.1953 0 0 0 1.0742-0.80469 2.4062 0 0-0.80078 1.3203-2.5742 4.668 0 0-1.7812 3.3516-3.6016 6.3867 0 0-1.8125 3.0312-4.6719 8.1641 0 0-2.8594 5.1211-5.0859 9.1719 0 0-2.2344 4.0469-6.1758 10.254 0 0-3.9453 6.207-6.7656 10.258 0 0-2.8281 4.0469-6.2812 9.1758 0 0-3.4531 5.125-5.1602 7.7461 0 0-1.7109 2.6133-2.3047 3.6914 0 0-0.59375 1.0859 0 0.11328 0 0 0.59375-0.98047 1.9922-2.5859 0 0 1.3945-1.6055 3.2812-4.0781 0 0 1.8789-2.4805 3.6914-5.1992 0 0 1.8125-2.7227 4.7812-7.3633 0 0 2.9609-4.6445 5.582-8.2656 0 0 2.6133-3.6328 6.0664-8.2656 0 0 3.4531-4.6445 5.6875-7.6797 0 0 2.2305-3.0391 5.5781-6.9727 0 0 3.3477-3.9453 5.1602-5.8672 0 0 1.8125-1.918 3.1055-3.0977 0 0 1.2891-1.1875 1.8867-1.1875 0 0 0.59376 0 0.10157 1.1875 0 0-0.48828 1.1797-1.1875 2.5781 0 0-0.69922 1.3945-1.707 3.207 0 0-1.0117 1.8125-3.3789 5.4805 0 0-2.375 3.6602-4.5742 7.3594 0 0-2.1992 3.6992-4.1797 7.5742 0 0-1.9922 3.8711-4.0117 7.5 0 0-2.0273 3.625-5.8633 9.2383 0 0-3.8398 5.6172-5.9648 8.6523 0 0-2.1289 3.0391-4.293 5.8984 0 0-2.1602 2.8594-2.5742 3.7656 0 0-0.42188 0.90235-0.42188 0.42188 0 0 0-0.49219 0.31641-1.5 0 0 0.3125-1.0195 2.0937-3.6016 0 0 1.7773-2.5781 3.9727-5.957 0 0 2.1992-3.3867 4.6797-6.6602 0 0 2.4727-3.2813 4.4922-6.2148 0 0 2.0195-2.9336 5.3672-7.957 0 0 3.3516-5.0195 5.5859-8.2617 0 0 2.2344-3.2461 5.4726-7.5703 0 0 3.2422-4.3281 4.6758-5.8672 0 0 1.4336-1.5273 3.1133-2.6133 0 0 1.668-1.082 2.4726-1.1875 0 0 0.80078-0.10547 0.69532 0.80078 0 0-0.10938 0.90625-1.1875 3.0742 0 0-1.082 2.1641-2.0937 3.5977 0 0-1.0078 1.4258-2.6875 4.2812 0 0-1.6719 2.8594-2.9922 5.4844 0 0-1.3281 2.6133-4.0859 6.168 0 0-2.7539 3.5586-4.7812 6.3867 0 0-2.0195 2.8242-4.7734 6.7656 0 0-2.7617 3.9453-4.1875 6.0742 0 0-1.4336 2.125-3.5937 4.3984 0 0-2.1602 2.2656-2.9648 3.2734 0 0-0.80078 1.0117-0.30859 1.707l0.48047 0.69922" stroke-width="11.881"/></g><g stroke-width="4.2837"><path d="m67.988 212.05h-1.0039s-1.0078 0-1.9336-0.0742c0 0-0.93359-0.0742-1.5117-0.42969 0 0-0.57812-0.35156-1.1562-0.42578 0 0-0.57812-0.0742-1.3594-0.15235 0 0-0.78125-0.0742-1.0078-0.42578 0 0-0.22266-0.35547-0.57812-0.5039 0 0-0.35156-0.15235-0.35156-0.5 0 0 0-0.35156 0.42969-0.50391 0 0 0.42578-0.15234 1.0781-0.5 0 0 0.65625-0.35547 1.8633-0.42968 0 0 1.207-0.082 1.9414-0.082h1.6602 1.8555 1.5117 1.1562s0.57812 0 1.4336 0.082c0 0 0.85156 0.0742 1.3555 0.5039 0 0 0.50391 0.42188 0.42969 0.92578 0 0-0.07813 0.50391-1.0039 1.0078 0 0-0.92969 0.50391-2.2148 0.92969 0 0-1.2852 0.42969-2.1641 0.50391 0 0-0.8789 0.0742-2.4375 0.0742h-2.4414s-0.88281 0-2.1602-0.0742c0 0-1.2852-0.0742-2.293-0.50391 0 0-1.0078-0.42578-1.5859-0.92969 0 0-0.57812-0.5039-1-1.0078 0 0-0.42969-0.5039-0.42969-1.0078 0 0 0-0.50391 0.50391-0.92578 0 0 0.5-0.42969 1.3555-0.57813 0 0 0.85547-0.15625 1.4336-0.5039 0 0 0.57812-0.35156 1.2305-0.42969 0 0 0.65625-0.0742 1.8633-0.0742h1.9414 1.582s0.85156 0 1.4297 0.0742c0 0 0.57812 0.0781 1.082 0.42969 0 0 0.5039 0.34765 0.93359 0.5039 0 0 0.42578 0.14844 0.42578 0.57813 0 0 0 0.42187-0.42578 0.85156 0 0-0.42969 0.42969-0.93359 0.58203 0 0-0.50391 0.15235-1.082 0.50391 0 0-0.57812 0.34765-1.4297 0.42578 0 0-0.85547 0.0742-1.582 0.0742h-2.0156-2.3672s-1.0781 0-2.0859-0.0742c0 0-1.0078-0.0781-1.9336-0.50391 0 0-0.92969-0.42968-1.5117-0.93359 0 0-0.57812-0.50391-1.0781-0.92578 0 0-0.5039-0.42969-0.93359-0.57813 0 0-0.42969-0.15625-0.35156-0.57812 0 0 0.07422-0.42969 0.85547-0.85547 0 0 0.77734-0.42968 1.5078-0.5039 0 0 0.73047-0.0742 1.9414-0.15235 0 0 1.2031-0.0742 1.9297-0.42578 0 0 0.73047-0.35547 1.5859-0.42968 0 0 0.85937-0.0742 1.5117-0.14844 0 0 0.65234-0.0781 1.5039-0.42969 0 0 0.85547-0.35547 1.2852-0.42969 0 0 0.42969-0.0742 0.07422-0.0742h-0.85156-1.0078-1.0781-1.4375-1.4336-1.082-0.50391m25.199 33.894h-0.49609s-0.5039 0-0.85547-0.0742c0 0-0.35547-0.0742-0.07813-0.5039 0 0 0.27344-0.42578 0.50391-0.92969 0 0 0.22656-0.50391 1.0078-1.0078 0 0 0.77734-0.50391 1.5078-1.082 0 0 0.73047-0.57813 2.0156-1.5078 0 0 1.2773-0.92578 2.3594-1.8594 0 0 1.082-0.93359 2.0156-1.5117 0 0 0.92578-0.57813 1.582-1.0039 0 0 0.65625-0.42969 1.5117-0.50391 0 0 0.85156-0.0742 1.4297-0.0742 0 0 0.57812 0 1.0078 0.0742 0 0 0.42578 0.0742 0.5 0.50391 0 0 0.07813 0.42578 0 1.0039 0 0-0.07422 0.57812-0.5 1.4375 0 0-0.42969 0.85157-0.93359 1.5078 0 0-0.50391 0.65625-1.082 1.5078 0 0-0.57812 0.85547-1.4297 1.4336 0 0-0.85547 0.57812-1.582 1.1562 0 0-0.73437 0.57812-1.9414 1.3594 0 0-1.207 0.77735-2.0117 1.0078 0 0-0.80469 0.22657-2.0898 0.65235 0 0-1.2852 0.42968-2.3594 0.85937 0 0-1.082 0.42188-2.0117 0.5 0 0-0.93359 0.0781-1.4375 0 0 0-0.50391-0.0781-0.50391-0.5 0 0 0-0.42969 0.42969-0.85937 0 0 0.42969-0.42578 1.0078-0.57813 0 0 0.57812-0.14843 1.5078-0.57812 0 0 0.92578-0.42969 2.0078-0.92969 0 0 1.082-0.5039 2.3672-1.0078 0 0 1.2852-0.50391 2.0898-1.0078 0 0 0.80078-0.50391 2.0117-0.92578 0 0 1.2031-0.42969 1.9375-0.57813 0 0 0.73047-0.15625 1.6602-0.5039 0 0 0.92578-0.35156 1.8594-0.42969 0 0 0.92969-0.0781 1.3594 0 0 0 0.42188 0.0781 0.07422 0.50391 0 0-0.35156 0.42578-0.85547 0.85156 0 0-0.50391 0.42969-1.082 0.66015 0 0-0.57812 0.22266-1.5117 1.0078 0 0-0.92969 0.77343-2.0117 1.2773 0 0-1.082 0.5039-2.3594 0.65234 0 0-1.2852 0.15234-2.0898 0.50391 0 0-0.80469 0.35547-2.0117 0.42968 0 0-1.207 0.0742-1.9336 0.0742 0 0-0.73437 0-1.5859-0.0742 0 0-0.85547-0.0742-1.2852-0.5039 0 0-0.42969-0.42969-0.07422-0.92969 0 0 0.35156-0.5039 0.92969-1.082 0 0 0.57812-0.57812 1.4375-1.4297 0 0 0.85156-0.85938 1.5039-1.4375 0 0 0.65234-0.58203 1.6602-1.082 0 0 1.0078-0.5 2.2891-1.0039 0 0 1.2812-0.50391 2.0156-0.93359 0 0 0.72656-0.42969 1.5078-0.57813 0 0 0.77734-0.14843 1.0078-0.5039 0 0 0.22656-0.35156 0.57812-0.35156 0 0 0.34766 0 0.19922 0.42578 0 0-0.15234 0.42968-1.3555 1.0078 0 0-1.2109 0.57812-2.293 1.4375 0 0-1.0781 0.84765-2.0117 1.3516 0 0-0.92969 0.5039-1.5859 0.66015 0 0-0.65234 0.14844-1.5078 0.57813 0 0-0.85938 0.42187-1.5117 0.85156 0 0-0.65234 0.42969-1.5781 0.50391l-0.93359 0.0742m0.7461-54.957-0.42578 0.07422s-0.42969 0.0742-0.57812 0.42968c0 0-0.15234 0.35157-0.50391 0.35157 0 0-0.35547 0-0.35547-0.42969 0 0 0-0.42578 0.42969-0.92969 0 0 0.42969-0.5039 0.93359-1.0078 0 0 0.5-0.50391 1.0781-1 0 0 0.57812-0.50391 1.4375-0.93359 0 0 0.85547-0.42578 1.582-0.58203 0 0 0.73047-0.15235 1.9414-0.57422 0 0 1.2031-0.42578 1.9297-0.85547 0 0 0.73047-0.42969 1.5859-0.42969 0 0 0.85937 0 1.4375 0.35547 0 0 0.57812 0.35156 1.0781 0.50391 0 0 0.50391 0.14844 0.93359 0.57812 0 0 0.42188 0.42578 0.50391 0.92969 0 0 0.07422 0.5039 0 1.082 0 0-0.08203 0.57812-0.57812 1.5039 0 0-0.50391 0.9336-1.3594 1.7891 0 0-0.85937 0.85546-1.5117 1.082 0 0-0.65234 0.22656-1.5859 0.65234 0 0-0.92969 0.42969-1.9375 0.85937 0 0-1.0078 0.42578-1.9336 0.57813 0 0-0.92969 0.14843-1.582 0.5039 0 0-0.65625 0.34766-1.5117 0.42578 0 0-0.85547 0.0742-1.4336 0 0 0-0.57812-0.0781-1.082-0.42578 0 0-0.5039-0.35547-0.92578-0.5039 0 0-0.42969-0.15235-0.42969-0.57813 0 0 0-0.42968 0.42969-0.85937 0 0 0.42188-0.42578 1.0742-0.65234 0 0 0.65234-0.22657 1.8633-1.0078 0 0 1.207-0.78125 2.0156-1.3594 0 0 0.80078-0.57812 2.0117-1.082 0 0 1.2031-0.50391 2.0117-1 0 0 0.80469-0.50391 2.0156-0.93359 0 0 1.2031-0.42578 1.9336-0.50391 0 0 0.72656-0.0742 1.582-0.0742 0 0 0.85156 0 1.2812 0.0742 0 0 0.42969 0.0781-0.07422 0.57813 0 0-0.50391 0.5039-1.7891 1.3633 0 0-1.2812 0.85156-2.3633 1.4297 0 0-1.0781 0.57813-2.1602 1.1562 0 0-1.082 0.57813-2.5195 1.4336 0 0-1.4297 0.85938-2.7891 1.3594 0 0-1.3594 0.5039-2.1602 0.65625 0 0-0.80469 0.14843-2.0078 0.5039 0 0-1.2109 0.34766-1.8633 0.42578 0 0-0.65625 0.0742-1.0078 0 0 0-0.35547-0.0781 0-0.42578 0 0 0.35156-0.35547 0.92969-0.5039 0 0 0.57812-0.15235 1.4375-0.50391 0 0 0.85156-0.35547 1.5781-0.57812 0 0 0.72656-0.22657 2.0117-0.9336 0 0 1.2852-0.70703 2.4414-0.92968 0 0 1.1562-0.22656 2.4414-0.65625 0 0 1.2812-0.42578 2.0078-0.92969 0 0 0.73047-0.5039 1.5859-0.92578 0 0 0.85937-0.42969 1.4375-0.5039 0 0 0.57812-0.082 0.84766-0.082 0 0 0.28125 0-0.34766 0.082 0 0-0.6289 0.0742-1.0117 0.42968 0 0-0.375 0.34766-1.5039 0.42188 0 0-1.1289 0.0742-1.8555 0.14843 0 0-0.73437 0.0742-1.5859 0.42969 0 0-0.85937 0.35156-1.5117 0.42969 0 0-0.65234 0.0742-1.5078 0.14844 0 0-0.85938 0.0742-1.4375 0.5039 0 0-0.57812 0.42578-1.0781 0.92969l-0.50391 0.5039m-11.117-24.18h-0.50391-1.0039-1.0039-1.0078-1.0078s-0.5 0-0.92969-0.0742c0 0-0.42969-0.0742-0.57812-0.42579 0 0-0.15234-0.35546-0.50391-0.5039 0 0-0.35156-0.15234-0.42969-0.57813 0 0-0.07422-0.42968-0.14844-0.93359 0 0-0.07422-0.5039-0.42969-1 0 0-0.35156-0.5039-0.35156-1.0078 0 0 0-0.50391 0.42578-1.0078 0 0 0.42969-0.50391 1.0078-1.0039 0 0 0.57812-0.5039 1.4375-0.93359 0 0 0.85547-0.42969 1.4336-0.5039 0 0 0.57812-0.0742 1.082 0 0 0 0.50391 0.0742 1.082 0.5039 0 0 0.57812 0.42969 1.4336 0.93359 0 0 0.85156 0.5 1.4297 1.0039 0 0 0.57812 0.5039 1.0078 1.0078 0 0 0.42578 0.50391 0.5 1.0078 0 0 0.07812 0.4961 0.07812 1 0 0 0 0.50391-0.07812 1.0078 0 0-0.07422 0.50391-0.5 0.92969 0 0-0.42969 0.42969-1.0078 0.57812 0 0-0.57812 0.15235-1.4297 0.50391 0 0-0.85547 0.35547-1.4336 0.42969 0 0-0.57812 0.0742-1.2344 0.0742h-1.9375s-1.2852 0-2.3672-0.0742c0 0-1.082-0.0742-2.0078-0.50391 0 0-0.92969-0.42969-1.582-0.92969 0 0-0.66016-0.5039-1.5117-0.92968 0 0-0.85547-0.42578-1.4336-0.57813 0 0-0.57812-0.15234-1.0078-0.58203 0 0-0.42969-0.42968-0.50391-0.92578 0 0-0.07422-0.5039 0-0.93359 0 0 0.07422-0.42578 0.57812-0.57813 0 0 0.50391-0.14843 1.3594-0.5039 0 0 0.85938-0.35156 1.5859-0.42578 0 0 0.73047-0.0781 1.9375-0.0781h2.0156 2.0078s1.2031 0 2.0117 0.15235c0 0 0.80469 0.14843 2.0898 0.92968 0 0 1.2773 0.77735 2.2852 1.3555 0 0 1.0078 0.57813 1.5859 1.0078 0 0 0.57812 0.42969 1.082 0.66016 0 0 0.5 0.22265 0.92969 1.0039 0 0 0.42969 0.77735 0.50391 1.3555 0 0 0.07422 0.57813 0 1.0078 0 0-0.07422 0.42578-0.50391 0.50391 0 0-0.42969 0.0742-1.0078 0.14844 0 0-0.57812 0.0742-1.5078 0.42968 0 0-0.93359 0.35157-1.9336 0.35157 0 0-1.0078 0-2.0117-0.35157 0 0-1.0078-0.35547-2.0898-0.57812 0 0-1.082-0.22656-2.4414-1.0078 0 0-1.3594-0.78125-2.3594-1.4336 0 0-1.0078-0.65624-1.5859-1.5117 0 0-0.57812-0.85156-1.082-1.4297 0 0-0.50391-0.57812-0.85547-1.082 0 0-0.35547-0.50391 0-0.92969 0 0 0.35156-0.42968 0.92969-0.5039 0 0 0.57812-0.0781 1.5117-0.0781h1.8555 1.5117s0.57812 0 1.2305 0.0781c0 0 0.65234 0.0742 1.8633 0.5039 0 0 1.2031 0.42578 1.8633 0.92969 0 0 0.65234 0.50391 1.1523 0.93359 0 0 0.50391 0.42188 1.0039 0.57813 0 0 0.50391 0.14844 0.93359 0.57812 0 0 0.42969 0.42188 0.35156 0.92578 0 0-0.07422 0.50391-0.92969 0.92969 0 0-0.85547 0.42969-1.7852 0.50391 0 0-0.92969 0.0742-1.6562 0 0 0-0.73438-0.0742-1.9414-0.42579 0 0-1.207-0.35546-1.8633-0.5039 0 0-0.65234-0.15234-1.1562-0.57813 0 0-0.5039-0.42968-1.0039-0.93359 0 0-0.50391-0.5039-0.85156-0.92578 0 0-0.35547-0.42969 0.07422-0.5039 0 0 0.42969-0.0742 1.2852-0.0742h1.5781s0.73047 0 2.0156 0.0742c0 0 1.2852 0.0742 2.2891 0.42968 0 0 1.0039 0.34766 1.6562 0.50391 0 0 0.65625 0.14844 1.5156 0.5 0 0 0.85156 0.35156 1.4297 0.5039 0 0 0.57812 0.15235 0.92969 0.50391 0 0 0.35547 0.34766 0 0.42578 0 0-0.35156 0.0742-0.92969 0.0742 0 0-0.57812 0-1.4297-0.0742 0 0-0.85937-0.0781-1.5156-0.42578 0 0-0.65234-0.35156-1.582-0.50391 0 0-0.92969-0.15234-1.9375-0.58203 0 0-1.0039-0.42968-1.9375-0.85156 0 0-0.92969-0.42969-1.5117-0.5039l-0.57812-0.0742m15.781 101.86-0.07422 0.42968s-0.07422 0.42969-0.42578 0.42969c0 0-0.35547 0-0.42969-0.42969 0 0-0.07422-0.42968-0.07422-0.93359v-1.0039-1.0078-1.0078-1.0078-1.0039-1.0039-1.082-1.4336-1.4336-1.082-1.082s0-0.57812 0.07422-1.5117c0 0 0.07422-0.92969 0.42969-1.9336 0 0 0.35156-1.0039 0.42578-1.9375 0 0 0.07422-0.92969 0.07422-1.5078 0 0 0-0.58203 0.07813-1.1602 0 0 0.07422-0.57812 0.42578-1.5078 0 0 0.35547-0.93359 0.42969-1.8594 0 0 0.07422-0.92969 0.07422-1.5859v-1.5078-1.4375-1.1562-1.4336s0-0.85547-0.07422-1.4375c0 0-0.07422-0.57812-0.42969-1.0781 0 0-0.35156-0.50391-0.42578-1.082 0 0-0.07813-0.57813-0.07813-1.5078v-1.8633-1.5078-1.082-1.0078-1.082-1.4297-1.4336-1.082-1.0078-1.0078-1.0039-1.082-1.4375-1.4336-1.082-1-1.0078-1.0078-1.0039-1.0078-1.0078-1.0078-1.0039-1.082-1.4297-1.4375-1.0781-1.082-1.4375-1.4336-1.1562-1.4375-1.4297-1.082-1.0039-1.0078-1.0078-1.0078-1.0039-1.0078-1.0078-1-1.0078-1.0039-1.0078-1.0078-1.0078-1.0039-1.0078-1.0078-1.0078-1-1.0078-1.0039-1.0078-1.0078-1.0039-1.0078-1.0078-1.0078-1.0039-1.0039-1.0039-1.0078-1.0078-1.0078-1.0039-1.0078-1.0078-1.0078-1-0.85547 0 0.35157" stroke="#02b53f"/><path d="m78.008 126.1-0.42578 0.0742s-0.42969 0.0742-0.57812 0.42969c0 0-0.15234 0.35156-0.50391 0.35156 0 0-0.35547 0-0.35547-0.35156 0 0 0-0.35547 0.42969-0.50391 0 0 0.42969-0.15234 0.92969-0.57812 0 0 0.50391-0.42969 1.0078-0.93359 0 0 0.5039-0.50391 1.082-1.0078 0 0 0.57812-0.5 1.4336-0.99999 0 0 0.85156-0.50391 1.5039-1.0078 0 0 0.65625-0.5 1.5859-0.92968 0 0 0.93359-0.42969 1.8633-0.50391 0 0 0.92578-0.0742 1.5117-0.0742h1.082 1s0.50391 0 0.92969 0.0742c0 0 0.42969 0.0742 0.50391 0.50391 0 0 0.07422 0.42968 0.07422 0.92968v1.0078 0.99999s0 0.50391-0.07422 0.9336c0 0-0.07422 0.42968-0.50391 0.57812 0 0-0.42578 0.14844-0.92969 0.57813 0 0-0.50391 0.42968-1.082 0.85546 0 0-0.57812 0.42969-1.4336 0.57813 0 0-0.85156 0.15234-1.5039 0.5039 0 0-0.65625 0.35547-1.5117 0.42969 0 0-0.85547 0.0742-1.4336 0.0742 0 0-0.57812 0-1.082-0.0742 0 0-0.50391-0.0742-0.92578-0.5039 0 0-0.42969-0.42969-0.50391-1.0078 0 0-0.08203-0.57812 0.07422-1.5078 0 0 0.14844-0.93359 1.082-1.9336 0 0 0.92578-1.0078 2.3594-2.0117 0 0 1.4375-1.0078 2.7969-1.8672 0 0 1.3555-0.85547 2.0859-1.0039 0 0 0.73047-0.15234 1.6602-0.15234 0 0 0.92578 0 1.7852 0.0781 0 0 0.85547 0.0742 1.0039 0.57813 0 0 0.15234 0.5 0.07813 1.3594 0 0-0.07813 0.85547-0.50391 1.4336 0 0-0.42969 0.57812-0.93359 1.082 0 0-0.50391 0.49999-1.0039 0.99999 0 0-0.50391 0.50391-1.082 1.0078 0 0-0.57812 0.5039-1.4297 1.0078 0 0-0.85937 0.5039-1.4375 0.92968 0 0-0.57812 0.42969-1.1562 0.57813 0 0-0.57812 0.15234-1.4336 0.5039 0 0-0.85547 0.35547-1.4336 0.42969 0 0-0.57812 0.0742-1.0078 0 0 0-0.42969-0.0742-0.50391-0.5039 0 0-0.07422-0.42969 0-1.0078 0 0 0.07422-0.57812 0.50391-1.4297 0 0 0.42969-0.85547 1.0078-1.4336 0 0 0.57812-0.58204 1.582-1.1602 0 0 1.0078-0.58203 2.293-1.3555 0 0 1.2812-0.78125 2.0117-1.0078 0 0 0.73047-0.22656 1.5859-0.57812 0 0 0.85156-0.35547 1.4297-0.42969 0 0 0.57812-0.0742 1.082-0.0742 0 0 0.5039 0 0.93359 0.0742 0 0 0.42578 0.0742 0.5 0.50391 0 0 0.07813 0.42968 0 0.93359 0 0-0.07422 0.5039-0.5 1.0039 0 0-0.42969 0.50391-0.93359 1.0078 0 0-0.50391 0.49999-1.082 0.99999 0 0-0.57812 0.50391-1.4297 1.0078 0 0-0.85547 0.5039-1.5078 1.0078 0 0-0.66016 0.5039-1.5156 0.92968 0 0-0.85156 0.42969-1.582 0.57813 0 0-0.72656 0.15234-2.0117 0.5039 0 0-1.2852 0.35547-2.2109 0.35547 0 0-0.93359 0-1.0078-0.42968 0 0-0.07422-0.42969 0.35547-0.92969 0 0 0.42187-0.50391 1-1.0078 0 0 0.57812-0.50391 1.4336-1.0078 0 0 0.85937-0.50391 1.5117-1.0078 0 0 0.65234-0.5 1.5078-0.99999 0 0 0.85156-0.50391 1.5117-1.0078 0 0 0.65234-0.5 1.5859-0.92968 0 0 0.92578-0.42969 1.8555-0.50391 0 0 0.93359-0.0742 1.5117-0.0742h1.082s0.50391 0 0.92969 0.0742c0 0 0.42969 0.0742 0.50391 0.50391 0 0 0.07422 0.42968-0.07422 1.0078 0 0-0.15625 0.57812-0.93359 1.4336 0 0-0.78125 0.85156-1.4336 1.4297 0 0-0.65234 0.57812-1.5039 1.082 0 0-0.85547 0.5039-1.5859 1.0078 0 0-0.73438 0.5-1.9375 1.0039 0 0-1.2109 0.50391-2.0117 0.9336 0 0-0.80469 0.42968-2.0078 0.57812 0 0-1.2109 0.14844-1.8633 0.50391 0 0-0.66016 0.35156-1.082 0.35156 0 0-0.42969 0-0.35547-0.50391 0 0 0.07422-0.5 0.85937-1.2852 0 0 0.77344-0.78125 1.4258-1.082 0 0 0.65625-0.29688 1.5117-1.0781 0 0 0.85547-0.78515 1.5117-1.3633 0 0 0.65234-0.57812 1.5039-1.082 0 0 0.85547-0.5 1.4336-0.99999 0 0 0.57812-0.50391 1.082-0.92969 0 0 0.50391-0.42969 0.85547-0.35547 0 0 0.35547 0.0742 0 0.85156 0 0-0.35156 0.78125-0.85547 1.3594 0 0-0.50391 0.57812-1 1.082l-0.50391 0.5039m-15.023-18.887-0.50391 0.0742s-0.5 0.0742-1.0039 0.42969c0 0-0.5 0.35156-0.92578 0.35156 0 0-0.42969 0-0.57812-0.35156 0 0-0.15625-0.35547-0.57812-0.42969 0 0-0.42969-0.0742-1.0078-0.14843 0 0-0.57812-0.0781-1.5117-0.42578 0 0-0.92969-0.35157-1.8633-0.42579 0 0-0.92969-0.082-1.5078-0.082 0 0-0.57812 0-1-0.0742 0 0-0.42969-0.0742-0.5039-0.50391 0 0-0.08203-0.42969 0-1.0078 0 0 0.07422-0.57813 0.5039-1.4297 0 0 0.42188-0.85547 0.92578-1.3594 0 0 0.5-0.50391 1.0039-0.65235 0 0 0.50391-0.14843 1.0078-0.5039 0 0 0.50391-0.35156 1.0078-0.42969 0 0 0.5039-0.07422 1.0039-0.07422 0 0 0.50391 0 1.0078 0.07422 0 0 0.5039 0.07813 1.0078 0.50391 0 0 0.50391 0.42968 0.92969 1.0078 0 0 0.42578 0.57812 0.57812 1.3594 0 0 0.15234 0.77735 0.5 1.0078 0 0 0.35156 0.22266 0.42578 0.65235 0 0 0.07813 0.42187 0.07813 0.92578v1.0078s0 0.50391-0.07813 0.93359c0 0-0.07422 0.42578-0.5 0.5 0 0-0.42578 0.0781-0.92969 0.0781h-1.0039s-0.50391 0-1.0078-0.0781c0 0-0.50391-0.0742-1.082-0.57812 0 0-0.57812-0.50391-1.3555-1.3594 0 0-0.78125-0.85156-1.0039-1.3555 0 0-0.23047-0.50391-0.58594-0.65235 0 0-0.35156-0.15625-0.50391-0.5039 0 0-0.14844-0.35157-0.49609-0.50391 0 0-0.35156-0.14844-0.35156-0.57812 0 0 0-0.42578 0.5-0.85547 0 0 0.5-0.42969 1.4297-0.50391 0 0 0.93359-0.0742 1.8633-0.0742h1.5117 1.082s0.50391 0 1.0039 0.0742c0 0 0.50391 0.0742 1.0039 0.50391 0 0 0.50391 0.42969 0.92969 0.92969 0 0 0.42969 0.5039 0.42969 1.0078 0 0 0 0.5039-0.42969 0.93359 0 0-0.42578 0.42188-0.92969 0.57812 0 0-0.5 0.14844-1.0039 0.50391 0 0-0.5 0.34766-1.0039 0.42188 0 0-0.50391 0.0742-1.0078 0.0742 0 0-0.50391 0-1.0078-0.0742 0 0-0.5-0.0742-1.0039-0.42188 0 0-0.50391-0.35547-0.93359-0.50391 0 0-0.42578-0.15624-0.5039-0.57812 0 0-0.07422-0.42969-0.14844-0.93359 0 0-0.07422-0.50391-0.42969-1.0078 0 0-0.35156-0.5-0.42578-1.0039 0 0-0.07813-0.50391 0-0.93359 0 0 0.07422-0.42578 0.50391-0.50391 0 0 0.42578-0.07422 0.92969-0.07422 0 0 0.50391 0 1.082 0.07422 0 0 0.57812 0.07813 1.4336 0.50391 0 0 0.85937 0.42968 1.4375 0.93359 0 0 0.57812 0.50391 1.0781 1.0039 0 0 0.50391 0.5039 1.0039 1.0078 0 0 0.50391 0.5039 0.92969 1.0078 0 0 0.42969 0.49609 0.42969 1 0 0 0 0.5039-0.42969 0.93359 0 0-0.42578 0.42578-1.0039 0.50391 0 0-0.57812 0.0742-1.4375 0.0742h-1.5039-1.5859-1.9375s-1.0078 0-1.9336-0.0742c0 0-0.92969-0.0781-1.582-0.50391 0 0-0.66016-0.42969-1.4375-0.93359 0 0-0.78125-0.50391-1.082-1 0 0-0.30469-0.50391-1.0039-1.0078 0 0-0.70703-0.50391-0.85938-1.0078 0 0-0.14844-0.5-0.07422-0.92969 0 0 0.07422-0.42969 0.50391-0.50391 0 0 0.42969-0.0742 0.93359-0.0742h1.0039 1.0078s0.5039 0 1.082 0.0742c0 0 0.57812 0.0742 1.4297 0.42969 0 0 0.85547 0.35156 1.5078 0.50391 0 0 0.65625 0.14843 1.5117 0.57812 0 0 0.85547 0.42578 1.4336 0.92969 0 0 0.57812 0.5039 1.082 0.93359 0 0 0.5039 0.42188 1.0078 0.57812 0 0 0.50391 0.14844 0.92969 0.57813 0 0 0.42578 0.42187 0.50391 0.92578 0 0 0.07422 0.50391 0 0.93359 0 0-0.07813 0.42578-0.50391 0.5 0 0-0.42578 0.0781-0.92969 0.0781h-1.082-1.4336-1.4375s-0.57812 0-1.082-0.0781c0 0-0.50391-0.0742-1.0039-0.5 0 0-0.50391-0.42968-1.0078-0.85156 0 0-0.50391-0.42969-0.92578-0.57812 0 0-0.42969-0.15625-0.50391-0.58594 0 0-0.07422-0.42969-0.07422-0.92578 0 0 0-0.50391 0.07422-1.0078 0 0 0.07422-0.50391 0.57812-1.0078 0 0 0.50391-0.5 1.4336-0.92969 0 0 0.92578-0.42969 1.8594-0.50391 0 0 0.92969-0.0742 1.5117-0.0742 0 0 0.57812 0 1.0039 0.0742 0 0 0.42969 0.0742 0.42969 0.50391 0 0 0 0.42969-0.42969 0.85547 0 0-0.42578 0.42968-0.92969 0.57812 0 0-0.50391 0.15234-1.0078 0.57813l-0.50391 0.42968m12.555 35.168v0.35546 0-0.85156-1.0078-1.0078-1.0078s0-0.5-0.07422-1.0039c0 0-0.07813-0.5039-0.42969-1.0078 0 0-0.35156-0.50391-0.42969-1.0078 0 0-0.07422-0.50391-0.07422-1.0039v-1.0078-1-1.0078-1.0078-1.0078-1.0039-1.0078-1.0078-1.0078-1.0039-1.0078-1s0-0.5039-0.07422-1.0078c0 0-0.07422-0.50391-0.42969-1.0078 0 0-0.35156-0.50391-0.42578-1.0078 0 0-0.07813-0.5-0.07813-1.0039v-1.0078-1.0078-1.0039-1.0078-1.0078-1.0078-1-1.0078-1.0039-1.0078-1.0078-1.0078-1.0039-1.0078s0-0.5039-0.07422-0.92578c0 0-0.07422-0.42969-0.42578-0.57812 0 0-0.35547-0.15625-0.42969-0.57812 0 0-0.07422-0.42969-0.07422-0.93359v-1.0039-1.0078-1.0078-0.50391" stroke="#8fcf4c"/><path d="m66.965 69.117-0.42188-0.07812s-0.42969-0.07422-0.42969-0.42578c0 0 0-0.35547 0.35547-0.35547 0 0 0.34766 0 0.49609 0.35547 0 0 0.15234 0.35156 0.50391 0.50391 0 0 0.35156 0.14844 0.50391 0.57812 0 0 0.14844 0.42578 0.57812 0.92969 0 0 0.42969 0.50391 0.85547 1.0078 0 0 0.42969 0.50391 0.50391 1 0 0 0.07422 0.50391 0.07422 1.0078v1.0078 1.0039s0 0.50391-0.07422 0.93359c0 0-0.07422 0.42969-0.50391 0.50391 0 0-0.42578 0.07422-0.92969 0.07422 0 0-0.50391 0-1.0078-0.07422 0 0-0.50391-0.07422-1.0078-0.50391 0 0-0.50391-0.42969-1.0039-0.93359 0 0-0.50391-0.5-0.92969-1.0781 0 0-0.42578-0.57812-0.57812-1.3555 0 0-0.15234-0.78125-0.5-1.082 0 0-0.35547-0.30469-0.42969-1.1562 0 0-0.07422-0.85937-0.07422-1.7891 0 0 0-0.93359 0.07422-1.5117 0 0 0.07422-0.57812 0.42969-1.082 0 0 0.34766-0.50391 0.5-1.0039 0 0 0.15234-0.50391 0.57812-1.0078 0 0 0.42578-0.50391 0.92969-1.0078 0 0 0.5-0.50391 1.0039-0.92578 0 0 0.50391-0.42969 1.082-0.42969 0 0 0.57812 0 1.3594 0.42969 0 0 0.78125 0.42188 1.082 1.0078 0 0 0.30078 0.57812 1.082 1.5078 0 0 0.78125 0.92578 1.3594 1.9336 0 0 0.57812 1.0078 1.082 2.0156 0 0 0.50391 1.0039 1.0078 2.0117 0 0 0.49609 1.0078 1 1.9375 0 0 0.50391 0.92969 1.0078 1.582 0 0 0.50391 0.65234 0.92969 1.5078 0 0 0.42969 0.85937 0.50391 1.4375 0 0 0.07422 0.57812 0.07422 1.082v1.0039s0 0.50391-0.07422 0.93359c0 0-0.07422 0.42188-0.50391 0.50391 0 0-0.42578 0.07422-0.92969 0.07422h-1.0078s-0.50391 0-0.92578-0.07422c0 0-0.42969-0.08203-0.72656-0.50391 0 0-0.30859-0.42969-1.4375-0.93359 0 0-1.1328-0.50391-1.8633-1.082 0 0-0.72656-0.57812-1.582-1.4336 0 0-0.85937-0.85547-1.5117-1.5117l-1.5039-1.5039s-0.85547-0.85547-1.4375-1.5898c0 0-0.57812-0.72656-1.0781-1.8594 0 0-0.50391-1.1328-0.93359-1.582 0 0-0.42969-0.45703-0.50391-1.5859 0 0-0.07422-1.1289 0-1.7852 0 0 0.07422-0.65625 0.50391-1.1602 0 0 0.42969-0.50391 0.93359-1.0078 0 0 0.5-0.50391 1-0.92578 0 0 0.50391-0.42969 1.0078-0.57812 0 0 0.5-0.15625 1.0039-0.50391 0 0 0.50391-0.35156 1.0078-0.42969 0 0 0.50391-0.07422 1.0078 0 0 0 0.5039 0.07813 1.0039 0.50391 0 0 0.50391 0.42969 1.0078 1.0078 0 0 0.50391 0.57812 1.0078 1.5117 0 0 0.50391 0.92578 1.0039 1.9297 0 0 0.50391 1.0078 0.93359 2.0156 0 0 0.42187 1.0078 0.57812 2.0117 0 0 0.14844 1.0078 0.50391 2.0156 0 0 0.34766 1 0.42187 1.9336 0 0 0.07422 0.92969 0.07422 1.582 0 0 0 0.65625-0.07422 1.5117 0 0-0.07422 0.85547-0.49609 1.4336 0 0-0.42969 0.57812-0.85937 1.082 0 0-0.42578 0.50391-0.57812 0.93359 0 0-0.15234 0.42188-0.57812 0.42188 0 0-0.42578 0-0.85547-0.42188 0 0-0.42969-0.42969-0.50391-0.93359 0 0-0.07422-0.50391-0.14844-1.1562 0 0-0.07422-0.65234-0.42969-1.9375 0 0-0.35156-1.2852-0.5039-2.3672 0 0-0.14844-1.082-0.50391-2.082 0 0-0.35156-1.0078-0.42578-1.9375 0 0-0.07422-0.93359-0.07422-1.5117v-1.082s0-0.50391 0.07422-0.92969c0 0 0.07422-0.42969 0.50391-0.50391 0 0 0.42578-0.07813 1.0039 0 0 0 0.57812 0.07422 1.3594 0.50391 0 0 0.77734 0.42578 1.0078 1.0039 0 0 0.22656 0.57812 0.65234 1.4375 0 0 0.42969 0.85547 0.85937 1.5078 0 0 0.42188 0.65234 0.57031 1.5859 0 0 0.15625 0.92578 0.51172 1.8594 0 0 0.34766 0.92969 0.42188 1.5078 0 0 0.07422 0.57812 0.07422 1.082v1.0078s0 0.50391-0.07422 1.0078c0 0-0.07422 0.5-0.50391 0.92969 0 0-0.42969 0.42969-0.92578 0.57812 0 0-0.50391 0.15234-1.0078 0.50391 0 0-0.50391 0.34766-1.0078 0.34766 0 0-0.5 0-1.0039-0.42188 0 0-0.50391-0.42969-0.93359-0.93359 0 0-0.42578-0.50391-0.57812-1.1562 0 0-0.14844-0.65234-0.57812-1.8555 0 0-0.42578-1.2109-0.85547-1.9414 0 0-0.42969-0.73047-0.57812-1.582 0 0-0.15234-0.85938-0.50391-1.5117 0 0-0.35156-0.66016-0.35156-1.5117 0 0 0-0.85547 0.42578-1.3594 0 0 0.42969-0.50391 0.93359-0.57812 0 0 0.5039-0.07422 1.0039-0.07422 0 0 0.50391 0 1.0078 0.07422 0 0 0.50391 0.07422 1.0078 0.50391 0 0 0.50391 0.42969 1.0039 1.082 0 0 0.50391 0.65234 1.0078 1.9375 0 0 0.50391 1.2812 1.0078 2.3633 0 0 0.49609 1.082 0.92578 2.0117 0 0 0.42969 0.93359 0.50391 1.6602 0 0 0.07422 0.73047 0.07422 1.9336v1.8672 1.1602s0 0.49609-0.07422 0.92578c0 0-0.07422 0.42578-0.50391 0.50391 0 0-0.42969 0.07422-0.92578 0.07422 0 0-0.50391 0-1.082-0.07422 0 0-0.58203-0.07813-1.4336-0.50391 0 0-0.85938-0.42969-1.4375-0.92578 0 0-0.57812-0.50391-1.082-1.0078 0 0-0.5-0.5039-1.0039-1.0078l-1.0078-1.0078s-0.50391-0.50391-0.92578-1.0039c0 0-0.42969-0.50391-0.57812-1.0078 0 0-0.15625-0.50391-0.50391-1.0078 0 0-0.35156-0.50391-0.35156-0.92969 0 0 0-0.42969 0.42578-0.50391 0 0 0.42187-0.07422 0.92578-0.07422 0 0 0.50391 0 1.082 0.07422 0 0 0.57812 0.07422 1.5117 0.57812 0 0 0.92969 0.50391 1.8633 1.2852 0 0 0.92969 0.78125 1.5078 1.082 0 0 0.57812 0.30078 1.0078 1.082 0 0 0.42187 0.78125 0.57812 1.4336 0 0 0.14844 0.65234 0.57812 1.4336 0 0 0.42188 0.77734 0.85156 1.0781 0 0 0.42969 0.30469 0.50391 1.0859 0 0 0.07422 0.77734 0 1.2812 0 0-0.07422 0.5039-0.42188 0.65234 0 0-0.35547 0.15234-0.51172 0.50391 0 0-0.14844 0.35547-0.57031 0.50391 0 0-0.42969 0.14844-0.93359 0.50391 0 0-0.50391 0.35156-1.0078 0.42578 0 0-0.5 0.07813-1.0781 0.07813h-1.5117-1.9375s-1.0078 0-1.9336-0.07813c0 0-0.92969-0.07422-1.5898-0.5 0 0-0.65234-0.42969-1.5117-0.85937 0 0-0.85156-0.42578-1.4297-0.57812 0 0-0.57812-0.14844-1.0781-0.5039 0 0-0.50391-0.35156-0.93359-0.50391 0 0-0.42969-0.14844-0.50391-0.57812 0 0-0.07422-0.42578 0-0.92969 0 0 0.07422-0.50391 0.50391-0.92578 0 0 0.42969-0.42969 0.93359-0.57812 0 0 0.5-0.15625 1.0781-0.50391 0 0 0.57812-0.35547 1.5859-0.42969 0 0 1.0078-0.07422 2.3672 0.07422 0 0 1.3555 0.15234 2.4375 0.93359 0 0 1.082 0.77734 1.9375 1.3555 0 0 0.85156 0.57812 1.082 1.082 0 0 0.22266 0.5 0.57812 1.082 0 0 0.35156 0.57812 0.42578 1.5078 0 0 0.07813 0.93359 0.07813 1.8633 0 0 0 0.93359-0.15234 1.5117 0 0-0.15625 0.57812-0.85547 1.082 0 0-0.70703 0.50391-1.082 1.0039 0 0-0.37891 0.5-1.5898 0.92969 0 0-1.2031 0.42578-2.2852 0.57812 0 0-1.082 0.14844-2.0859 0.5 0 0-1.0039 0.35547-2.0859 0.42969 0 0-1.082 0.07422-2.4414 0.07422 0 0-1.3594 0-2.5156-0.07422 0 0-1.1562-0.07422-2.5117-0.42969 0 0-1.3594-0.35156-2.3672-0.42578 0 0-1.0078-0.07422-1.5117-0.15234 0 0-0.5-0.07422-0.57812-0.5 0 0-0.07422-0.42969 0-0.85156 0 0 0.07813-0.42969 0.50391-0.57812 0 0 0.42969-0.15625 1.0078-0.50391 0 0 0.57812-0.35547 1.4336-0.50391 0 0 0.85156-0.15625 1.5859-0.5039 0 0 0.72656-0.35547 1.9375-0.42969 0 0 1.207-0.07422 2.0078-0.14844 0 0 0.80469-0.07422 2.0156-0.42969 0 0 1.2031-0.35156 1.9375-0.42578 0 0 0.72656-0.07813 1.582-0.07813h1.4297 1.082s0.50391 0 0.93359 0.07813c0 0 0.42578 0.07422 0.42578 0.5 0 0 0 0.42969-0.42578 0.85937 0 0-0.42969 0.42187-0.93359 0.57812 0 0-0.50391 0.14844-1.1562 0.57812 0 0-0.65234 0.42969-1.8555 0.85547 0 0-1.2109 0.42187-2.0156 0.57812 0 0-0.80859 0.15234-2.0117 0.50391 0 0-1.207 0.34766-2.0078 0.42188 0 0-0.80859 0.07813-2.0156 0.07813h-1.8633s-0.65234 0-1.1562-0.07813c0 0-0.5-0.07422-0.92969-0.5 0 0-0.42969-0.42969-0.35547-1.0078 0 0 0.07813-0.57812 0.78516-1.4297 0 0 0.69922-0.85937 1.0781-1.5117 0 0 0.375-0.65234 1.5117-1.4336 0 0 1.1289-0.78125 1.9375-1.082 0 0 0.80469-0.30078 2.0156-1.082 0 0 1.2031-0.78125 2.082-1.3594 0 0 0.87891-0.57812 2.5156-1.0039 0 0 1.6328-0.42578 2.7148-0.50781 0 0 1.082-0.07422 1.6602-0.07422h1.1562s0.57812 0 1.3594 0.07422c0 0 0.77734 0.08203 0.92578 0.50781 0 0 0.15625 0.42578 0.15625 0.92969 0 0 0 0.5-0.07422 1.0039 0 0-0.07422 0.5039-0.57812 1.0078 0 0-0.50391 0.50391-1.3594 1.0078 0 0-0.85937 0.50391-1.4375 1.0039 0 0-0.57812 0.50391-1.082 1.0078 0 0-0.50391 0.50391-1.1562 1.0078 0 0-0.65234 0.5039-1.8555 0.92969 0 0-1.2109 0.42578-1.9414 0.50391 0 0-0.72656 0.07813-1.582 0.07813h-1.5117s-0.65234 0-1.5039-0.07813c0 0-0.85547-0.07813-1.2852-0.58203 0 0-0.42969-0.50391-0.07422-1.2812 0 0 0.34766-0.78125 0.92578-1.082 0 0 0.57812-0.30469 1.4336-1.082 0 0 0.85937-0.78125 1.5859-1.3594 0 0 0.72656-0.57812 1.9375-1.082 0 0 1.207-0.50391 2.0156-1.0039 0 0 0.80078-0.5039 2.0117-1.0078 0 0 1.2031-0.50391 1.9336-0.92578 0 0 0.72656-0.42969 1.5859-0.5039 0 0 0.85547-0.07422 1.4336-0.07422 0 0 0.57812 0 1.0078 0.07422 0 0 0.42578 0.07422 0.42578 0.57812 0 0 0 0.50391-0.42578 1.3594 0 0-0.42969 0.85156-1.0078 1.5039 0 0-0.57812 0.65625-1.5859 1.5859 0 0-1.0078 0.93359-2.2852 1.7891 0 0-1.2852 0.85156-2.0156 1.082 0 0-0.73047 0.22266-1.5898 0.57812 0 0-0.85156 0.34766-1.5039 0.42187 0 0-0.65234 0.08203-1.5078 0.08203 0 0-0.85938 0-1.3594-0.08203 0 0-0.50391-0.07422-0.58203-0.57031 0 0-0.07422-0.50391 0-1.3633 0 0 0.07813-0.85547 0.50391-1.4336 0 0 0.42969-0.57812 1.0078-1.082 0 0 0.57812-0.50391 1.4336-0.92969 0 0 0.85937-0.42969 1.5859-0.58203 0 0 0.73047-0.14844 1.9336-0.49609 0 0 1.2109-0.35547 2.0195-0.50391 0 0 0.80078-0.15625 2.0859-0.50391 0 0 1.2812-0.35156 2.4375-0.43359 0 0 1.1562-0.07422 2.4414 0 0 0 1.2812 0.08203 2.0898 0.50781 0 0 0.80078 0.42578 2.0859 0.92969 0 0 1.2812 0.5 2.2109 1.0039 0 0 0.92578 0.5039 1.082 1.0078 0 0 0.14844 0.50391 0.07422 1.0078 0 0-0.07422 0.50391-0.50391 0.92969 0 0-0.42578 0.42969-0.92969 0.42969 0 0-0.50391 0-0.93359-0.42969 0 0-0.42578-0.42578-0.5-0.92969 0 0-0.07812-0.50391 0.07422-1.082 0 0 0.14844-0.57812 1.0039-1.4297 0 0 0.85938-0.85938 1.7891-1.3594 0 0 0.93359-0.50391 1.6602-0.66016 0 0 0.73047-0.14844 1.9375-0.49609 0 0 1.207-0.35547 2.0156-0.35547 0 0 0.80078 0 2.0117 0.35547 0 0 1.207 0.34766 1.9336 0.49609 0 0 0.72656 0.15625 1.5781 0.58203 0 0 0.85938 0.42578 1.4375 1.0039 0 0 0.57812 0.57812 1.082 1.4336 0 0 0.5 0.85938 1.0039 1.4375 0 0 0.50391 0.57812 1.0078 1.0781 0 0 0.50391 0.50391 0.92969 1.082 0 0 0.42969 0.57812 0.50391 1.4375 0 0 0.07422 0.85156 0 1.3555 0 0-0.07422 0.5-0.50391 0.65625 0 0-0.42578 0.15234-0.92969 0.50391 0 0-0.5039 0.34766-1.0078 0.42188 0 0-0.50391 0.07813-1.1562 0.07813h-1.9336s-1.2852 0-2.4414-0.07813c0 0-1.1562-0.07422-2.4414-0.42188 0 0-1.2773-0.35156-2.1562-0.50391 0 0-0.88281-0.15625-2.5937-0.57812 0 0-1.7109-0.42578-3.1484-0.92969 0 0-1.4336-0.50391-2.0859-1.0078 0 0-0.65234-0.50391-1.1562-1.0078 0 0-0.5039-0.50391-0.92578-1.0078 0 0-0.42969-0.5-0.42969-0.92969 0 0 0-0.42969 0.50391-0.57812 0 0 0.5039-0.14844 1.3594-0.50391 0 0 0.85156-0.35156 1.5781-0.50391 0 0 0.73047-0.14844 1.9414-0.5039 0 0 1.2031-0.35156 1.9375-0.42578 0 0 0.72656-0.07813 1.6602-0.07813 0 0 0.92578 0 1.9336 0.07813 0 0 1.0039 0.07422 1.9375 0.50391 0 0 0.92969 0.42578 1.582 0.92969 0 0 0.65625 0.50391 1.5117 1.0078 0 0 0.85156 0.50391 1.4336 1.082 0 0 0.57812 0.57812 1.082 1.4336 0 0 0.5 0.85156 1.0039 1.5117 0 0 0.5 0.65234 0.92969 1.5078 0 0 0.42969 0.85156 0.50391 1.5039 0 0 0.07422 0.65625 0.07422 1.5117 0 0 0 0.85547-0.07422 1.4336 0 0-0.07422 0.57812-0.50391 1.0078 0 0-0.42969 0.42969-1.0078 0.50391 0 0-0.57812 0.07422-1.4297 0.07422 0 0-0.85547 0-1.5078-0.07422 0 0-0.65234-0.07422-1.5117-0.42969 0 0-0.85547-0.35156-1.6602-0.57812 0 0-0.80078-0.22266-2.3594-0.92969 0 0-1.5625-0.70703-2.4414-1.0078 0 0-0.88281-0.30078-2.0898-1.082 0 0-1.207-0.78125-1.9375-1.3594 0 0-0.72656-0.57812-1.5859-1.0781 0 0-0.85547-0.5-1.3516-1.0039 0 0-0.50391-0.50391-0.42969-1.0078 0 0 0.07422-0.50391 0.85547-1.0078 0 0 0.77734-0.50391 1.4297-0.92969 0 0 0.65234-0.42969 1.5117-0.50391 0 0 0.85547-0.07422 1.5078-0.07422h1.5117 1.5859 1.9375s1.2031 0 1.9336 0.07422c0 0 0.72656 0.07422 1.582 0.50391 0 0 0.85937 0.42578 1.5117 1.0039 0 0 0.65234 0.57812 1.4336 1.4375 0 0 0.77734 0.85156 0.92578 1.5078 0 0 0.15234 0.65625 0.15234 1.5859 0 0 0 0.92578-0.07813 1.7852 0 0-0.07422 0.85547-0.49609 1.082 0 0-0.42969 0.22266-0.93359 0.57812 0 0-0.5 0.35156-1.0781 0.42578 0 0-0.57812 0.07422-1.4375 0.07422h-1.5078s-0.65234 0-1.4375-0.07422c0 0-0.77344-0.07422-1.0742-0.50391 0 0-0.30469-0.42578-1.082-0.92969 0 0-0.78125-0.50391-1.4336-1.082 0 0-0.66016-0.57812-1.4375-1.4297 0 0-0.78125-0.85547-0.92969-1.4336 0 0-0.15234-0.57812-0.15234-1.082v-1.0078s0-0.50391 0.07813-0.93359c0 0 0.07422-0.42578 0.5-0.5 0 0 0.42969-0.07813 0.93359-0.15234 0 0 0.5039-0.07422 1.082-0.42969 0 0 0.57812-0.35156 1.4336-0.42578 0 0 0.85156-0.07422 1.5039-0.07422 0 0 0.65625 0 1.5859 0.07422 0 0 0.93359 0.07422 1.7891 0.50391 0 0 0.85156 0.42578 1.082 0.92969 0 0 0.22266 0.50391 0.65234 1.0078 0 0 0.42969 0.5039 0.85547 1.0078 0 0 0.42578 0.50391 0.50391 1.0039 0 0 0.07422 0.5 0.07422 1.0039 0 0 0 0.50391-0.07422 0.92969 0 0-0.07813 0.42969-0.42969 0.57812 0 0-0.35156 0.15234-0.50781 0.50391 0 0-0.14844 0.35547-0.57031 0.42969 0 0-0.42969 0.07422-1.0078 0.07422h-1.4336s-0.85937 0-1.4375-0.07422c0 0-0.57812-0.07422-1.1562-0.42969 0 0-0.57812-0.35156-1.4297-0.57812 0 0-0.85547-0.22266-1.4336-0.92578 0 0-0.57812-0.70703-1.082-1.0078 0 0-0.50391-0.30469-0.93359-1.082 0 0-0.42578-0.78125-0.5-1.3594 0 0-0.07813-0.57812-0.07813-1.082 0 0 0-0.50391 0.07813-1.0078 0 0 0.07422-0.5 0.57812-0.92969 0 0 0.50391-0.42969 1.3594-0.50391 0 0 0.85156-0.07422 1.5078-0.07422 0 0 0.65625 0 1.4375 0.07422 0 0 0.77344 0.07422 1.082 0.50391 0 0 0.29687 0.42969 1.0781 0.85547 0 0 0.77734 0.42969 1.3555 0.57812 0 0 0.57812 0.15234 1.0078 0.57812 0 0 0.42969 0.42969 0.50391 0.93359 0 0 0.07422 0.5039 0.07422 1.0078v1.0039 1.0039s0 0.50391-0.07422 0.92969c0 0-0.07422 0.42969-0.50391 0.50391 0 0-0.42969 0.07422-1.0078 0.07422 0 0-0.57812 0-1.3555-0.07422 0 0-0.78125-0.07422-1.0781-0.50391 0 0-0.30859-0.42578-1.082-0.85156 0 0-0.78125-0.42578-1.3594-0.57812 0 0-0.57812-0.15625-1.082-0.50391 0 0-0.50391-0.35156-0.93359-0.5 0 0-0.42578-0.15625-0.50391-0.58203 0 0-0.07422-0.42578 0-0.92969 0 0 0.07813-0.50391 0.50391-0.93359 0 0 0.42969-0.42578 1.0078-0.5 0 0 0.57812-0.07813 1.5078-0.07813h1.8594 1.5117 1.0781s0.50391 0 1.0078 0.07813c0 0 0.5039 0.07422 1.0078 0.42578 0 0 0.50391 0.35547 0.92969 0.50391 0 0 0.42578 0.14844 0.42578 0.57812 0 0 0 0.42969-0.42578 0.85547 0 0-0.42578 0.42578-0.92969 0.50391 0 0-0.50391 0.07813-1.0078 0.07813h-1.082s-0.57812 0-1.4336-0.07813c0 0-0.85547-0.07813-1.4336-0.42578 0 0-0.57812-0.35547-1.082-0.50391 0 0-0.50391-0.15625-1.0039-0.5039 0 0-0.5-0.35547-0.92969-0.50391 0 0-0.42969-0.14844-0.50391-0.57812 0 0-0.07422-0.42969 0-0.85547 0 0 0.07422-0.42969 0.50391-0.50391 0 0 0.42969-0.07422 0.92969-0.07422 0 0 0.5 0 1.0039 0.07422 0 0 0.50391 0.07422 1.0039 0.42578 0 0 0.50391 0.35547 1.0078 0.50391 0 0 0.50391 0.15234 1.0078 0.50391 0 0 0.5039 0.35547 0.92969 0.50391 0 0 0.42969 0.14844 0.57812 0.50391 0 0 0.15234 0.34766 0.50391 0.5039 0 0 0.35547 0.14844 0.35547 0.50391 0 0 0 0.34766-0.42969 0.42578 0 0-0.42969 0.07813-0.93359 0 0 0-0.5-0.07813-1.0039-0.50391 0 0-0.50391-0.42578-0.93359-0.92969 0 0-0.42578-0.50391-0.57812-0.93359 0 0-0.14844-0.42578-0.50391-0.57812 0 0-0.35156-0.14844-0.35156-0.50391 0 0 0-0.35156 0.42969-0.42578 0 0 0.42578-0.07422 0.85547 0 0 0 0.42969 0.07422 0.42969 0.42578 0 0 0 0.35547-0.42969 0.42969 0 0-0.42969 0.07422-1.0078 0.07422h-1.4297-1.5078-1.5117s-0.85547 0-1.5859-0.07422c0 0-0.72656-0.07422-1.9297-0.50391 0 0-1.2109-0.42578-2.0156-1.0039 0 0-0.80859-0.57812-2.0117-1.5117 0 0-1.2109-0.93359-1.8633-1.8594 0 0-0.65234-0.92969-1.082-1.5078 0 0-0.42969-0.57812-0.50391-1.082 0 0-0.07422-0.5039-0.07422-1.0078v-1.0078-1.0039-1.0078s0-0.50391 0.07422-1.0078c0 0 0.07422-0.50391 0.42969-1.0078 0 0 0.35156-0.5 0.42578-1.0039 0 0 0.07813-0.50391 0.07813-1.0078 0 0 0-0.50391-0.07813-0.92578 0 0-0.07422-0.42969-0.5-0.5039 0 0-0.42969-0.07422-0.93359-0.14844 0 0-0.5039-0.08203-0.92969-0.50391 0 0-0.42969-0.42969-0.57812-0.93359 0 0-0.15234-0.5039-0.58203-1.0039 0 0-0.42578-0.50391-0.85547-1.0078 0 0-0.42578-0.50391-0.57812-1.0078 0 0-0.14844-0.50391-0.49609-1.0078 0 0-0.35547-0.50391-0.35547-1.0039 0 0 0-0.50391 0.42969-0.92969 0 0 0.42188-0.42578 0.85156-0.57812 0 0 0.42578-0.15234 0.57812-0.5 0 0 0.14844-0.35547 0.57812-0.42969 0 0 0.42969-0.08203 0.85547 0 0 0 0.42969 0.07422 0.57812 0.42969 0 0 0.15234 0.34766 0.5039 0.5 0 0 0.35547 0.15234 0.42969 0.57812 0 0 0.07422 0.42578 0.07422 0.92969v1.0039s0 0.50391-0.07422 0.93359c0 0-0.07422 0.42969-0.42969 0.57812 0 0-0.35156 0.14844-0.5039 0.50391 0 0-0.14844 0.35156-0.50391 0.35156 0 0-0.35156 0-0.42578-0.42578 0 0-0.07422-0.42969-0.15234-0.85938 0 0-0.07422-0.42578-0.42578-0.57812 0 0-0.35547-0.14844-0.42969-0.57812 0 0-0.07422-0.42969-0.07422-0.92969v-1.0078-1.0078-1s0-0.50391 0.07422-1.0078c0 0 0.07422-0.50391 0.50391-0.92969 0 0 0.42969-0.42969 0.92969-0.50391 0 0 0.50391-0.07422 1.0078-0.15234 0 0 0.50391-0.07422 1.0078-0.42578 0 0 0.50391-0.35547 1.0039-0.35547 0 0 0.50391 0 1.0078 0.42969 0 0 0.50391 0.42969 0.93359 0.92969 0 0 0.42188 0.50391 0.57031 1.1562 0 0 0.15625 0.65625 0.58594 1.8672 0 0 0.42188 1.2031 0.85156 1.9297 0 0 0.42578 0.73047 0.57812 1.6602 0 0 0.14844 0.93359 0.50391 1.9414 0 0 0.35156 1.0039 0.42578 1.9375 0 0 0.07422 0.92578 0 1.5781 0 0-0.07422 0.66016-0.42578 1.5156 0 0-0.35547 0.85156-0.50391 1.5039 0 0-0.15234 0.65625-0.57812 1.4375 0 0-0.42969 0.78125-0.85156 1.0078 0 0-0.42969 0.22266-0.58594 0.57812 0 0-0.14844 0.35156-0.57031 0.42578 0 0-0.42969 0.07422-0.93359 0 0 0-0.50391-0.07422-0.92969-0.5039 0 0-0.42969-0.42578-0.57812-1.0781 0 0-0.15234-0.65625-0.50391-1.8594 0 0-0.35547-1.2109-0.50391-2.0156 0 0-0.14844-0.80859-0.57812-2.0859 0 0-0.42969-1.2852-0.85547-2.4414 0 0-0.42969-1.1562-0.50391-2.4375 0 0-0.07422-1.2852-0.07422-2.0156v-1.582s0-0.85938 0.07422-1.4375c0 0 0.07422-0.57812 0.50391-1.082 0 0 0.42578-0.5 0.92969-1.0039 0 0 0.50391-0.50391 1.0078-0.93359 0 0 0.50391-0.42969 1.0039-0.5039 0 0 0.50391-0.07422 1.0078 0 0 0 0.50391 0.07422 1.0078 0.57812 0 0 0.49609 0.50391 1 1.4375 0 0 0.50391 0.92969 0.93359 1.8633 0 0 0.42578 0.92578 0.57812 1.7305 0 0 0.14844 0.80859 0.50391 2.3633 0 0 0.35156 1.5586 0.42578 2.4453 0 0 0.07422 0.875 0.07422 2.1602v2.3633 2.0898s0 1.0039-0.07422 1.9375c0 0-0.07422 0.92969-0.42578 1.5078 0 0-0.35547 0.57812-0.50391 1.082 0 0-0.15234 0.50391-0.57812 1.0078 0 0-0.42969 0.50391-0.85156 0.85547 0 0-0.42969 0.35156-0.58594 0.07813 0 0-0.14844-0.28125-0.49609-0.50391 0 0-0.35547-0.23047-0.50391-1.082 0 0-0.15625-0.85937-0.50391-1.9375 0 0-0.35156-1.082-0.50391-2.3633 0 0-0.15234-1.2852-0.57812-2.1641 0 0-0.42578-0.88281-0.85547-2.5156 0 0-0.42969-1.6406-0.50391-2.8711 0 0-0.07422-1.2305-0.07422-2.5117 0 0 0-1.2852 0.07422-2.0117 0 0 0.07422-0.73437 0.50391-1.5859 0 0 0.42969-0.85547 1.0078-1.4336 0 0 0.57812-0.57812 1.4336-1.0078 0 0 0.85156-0.42969 1.5117-0.50391 0 0 0.65234-0.07422 1.5078-0.07422 0 0 0.85156 0 1.4297 0.14844 0 0 0.57812 0.15234 1.082 0.85937 0 0 0.50391 0.69922 1.0078 1.0781 0 0 0.5 0.375 1.0039 1.5859 0 0 0.50391 1.207 0.93359 2.2891 0 0 0.42188 1.0781 0.49609 2.0859 0 0 0.08203 1.0078 0.08203 2.0898v2.4414s0 1.3555-0.08203 2.5117c0 0-0.07422 1.1562-0.49609 2.4414 0 0-0.42969 1.2852-1.0078 2.0898 0 0-0.57812 0.80078-1.3594 2.0117 0 0-0.78125 1.207-1.0078 1.8594 0 0-0.22266 0.65234-0.65234 1.082 0 0-0.42969 0.42578-0.92969 0.50391 0 0-0.50391 0.07422-0.92969 0 0 0-0.42578-0.07813-0.5-0.50391 0 0-0.08203-0.42969-0.15625-1.082 0 0-0.07422-0.65234-0.42188-1.8594 0 0-0.35547-1.2109-0.4375-2.0898 0 0-0.07422-0.88281-0.07422-2.4414v-2.5117-2.5898s0-1.6406 0.07422-2.7969c0 0 0.08203-1.1562 0.4375-2.0859 0 0 0.34766-0.93359 0.57812-1.5859 0 0 0.22266-0.65234 0.92969-1.5039 0 0 0.70312-0.85938 0.92578-1.3633 0 0 0.22656-0.5 0.65234-0.57812 0 0 0.42969-0.07422 0.93359-0.07422 0 0 0.50391 0 0.92969 0.07422 0 0 0.42969 0.07813 0.50391 0.50391 0 0 0.07422 0.42969 0.15234 1.0078 0 0 0.07422 0.57812 0.42578 1.4297 0 0 0.35547 0.85547 0.42969 1.5117 0 0 0.07422 0.65234 0.07422 1.5078 0 0 0 0.85937-0.07422 1.5117 0 0-0.07422 0.65234-0.42969 1.5078 0 0-0.35156 0.85156-0.50391 1.5859 0 0-0.14844 0.73047-0.5 1.9375 0 0-0.35547 1.207-0.57812 1.9336 0 0-0.22656 0.73047-0.93359 1.5859 0 0-0.70703 0.85547-1.0078 1.5117 0 0-0.29688 0.65234-1.0742 1.4336 0 0-0.78125 0.77734-1.2852 0.77734 0 0-0.50391 0-0.58594-0.77734 0 0-0.07422-0.78125-0.14844-1.5117 0 0-0.07422-0.72656-0.42187-1.9297 0 0-0.35547-1.2109-0.42969-2.0156 0 0-0.07422-0.80859-0.07422-2.0195v-2.0078-2.0117-1.9375s0-0.73047 0.07422-1.582c0 0 0.07422-0.85547 0.50391-1.3594 0 0 0.42188-0.5039 0.92578-0.42969 0 0 0.50391 0.07422 0.93359 0.85938 0 0 0.42578 0.77344 0.57812 1.4297 0 0 0.14844 0.65234 0.50391 1.582 0 0 0.35156 0.93359 0.42578 1.9414 0 0 0.07422 1.0039 0.07422 2.0117v1.9375 1.582 1.5078s0 0.85937-0.07422 1.5117c0 0-0.07422 0.65234-0.50391 1.5859 0 0-0.42578 0.92969-0.92969 1.8633 0 0-0.5039 0.92578-1.0078 1.5039 0 0-0.50391 0.57812-1 1.0078 0 0-0.50391 0.42578-0.93359 0.58203 0 0-0.42578 0.14844-0.57812 0.50391 0 0-0.15234 0.34766-0.57812 0.42187 0 0-0.42578 0.07422-0.85547 0 0 0-0.42969-0.07422-0.42969-0.42187 0 0 0-0.35547 0.42969-0.42969 0 0 0.42969-0.07813 0.92969-0.07813 0 0 0.50391 0 0.93359 0.07813 0 0 0.42187 0.07422 0.5039 0.50391 0 0 0.07422 0.42187 0.14844 0.92578 0 0 0.07422 0.5039 0.42969 1.0078 0 0 0.34766 0.50391 0.42187 1.0078 0 0 0.07422 0.50391 0.07422 1.0039 0 0 0 0.50391-0.07422 1.0078 0 0-0.07422 0.50391-0.42187 1.0078 0 0-0.35547 0.5039-0.50391 1.0078 0 0-0.15625 0.50391-0.66016 0.92969 0 0-0.5 0.42187-1.3516 0.5 0 0-0.85938 0.07422-1.5117 0.07422h-1.5078-1.5859-2.0078-2.293s-1.0078 0-1.5859-0.07422c0 0-0.57812-0.07813-1.0781-0.42578 0 0-0.50391-0.35156-0.93359-0.5 0 0-0.42969-0.15625-0.50391-0.58203 0 0-0.07422-0.42578 0-0.92969 0 0 0.07422-0.50391 0.57812-1.082 0 0 0.50391-0.57812 1.3594-1.3594 0 0 0.85937-0.78125 1.5117-1.0078 0 0 0.65234-0.22266 1.5078-0.65234 0 0 0.85156-0.42969 1.4297-0.85547 0 0 0.57812-0.42969 1.082-0.50391 0 0 0.50391-0.07813 1.0078-0.07813 0 0 0.50391 0 1.0078 0.07813 0 0 0.5039 0.07422 1.0039 0.50391 0 0 0.50391 0.42578 0.93359 1.0039 0 0 0.42969 0.57812 0.50391 1.4375 0 0 0.07422 0.85547 0 1.4336 0 0-0.07422 0.57812-0.50391 1.082 0 0-0.42969 0.5039-0.93359 1.082 0 0-0.5 0.57812-1.0039 1.3594 0 0-0.50391 0.77734-1.082 1.082 0 0-0.57812 0.30078-1.4297 1.0078 0 0-0.85547 0.69922-1.5898 0.92578 0 0-0.73047 0.22266-1.9336 0.65234 0 0-1.2109 0.42969-2.0117 0.85547 0 0-0.80469 0.42969-2.0078 0.50391 0 0-1.2109 0.07422-2.0156 0.07422h-2.0117s-1.2109 0-1.8633-0.14844c0 0-0.65234-0.14844-1.082-0.92969 0 0-0.42969-0.78516-0.50391-1.4375 0 0-0.07422-0.65234 0.07422-1.5859 0 0 0.15234-0.92969 0.93359-1.9297 0 0 0.78125-1.0078 1.4336-1.9414 0 0 0.65234-0.92969 1.5117-1.5078 0 0 0.85156-0.57812 1.582-1.082 0 0 0.73047-0.50391 1.9414-0.93359 0 0 1.2031-0.42578 1.9297-0.50391 0 0 0.73047-0.07422 1.5859-0.07422h1.4336 1.0781 0.50391" stroke="#fdf345"/><path d="m74.375 78.383 0.07422 0.42578s0.07422 0.42969 0.42578 0.57812c0 0 0.35547 0.15234 0.5039 0.50391 0 0 0.15234 0.35547 0.50391 0.50391 0 0 0.35547 0.14844 0.50391 0.57812 0 0 0.14844 0.42969 0.50391 0.93359 0 0 0.34766 0.5 0.34766 1.0039 0 0 0 0.5-0.42188 0.92578 0 0-0.42969 0.42969-0.93359 0.50391 0 0-0.50391 0.07813-1.0078 0.07813h-1.0039s-0.50391 0-0.93359-0.07813c0 0-0.42578-0.07422-0.57812-0.42188 0 0-0.14844-0.35156-0.50391-0.5039 0 0-0.35156-0.15625-0.35156-0.57812 0 0 0-0.42969 0.42969-0.92969 0 0 0.42578-0.5039 0.92969-0.93359 0 0 0.5039-0.42969 1.0078-0.50391 0 0 0.50391-0.07422 1.0039-0.14844 0 0 0.5039-0.07422 1.0078-0.35547 0 0 0.50391-0.27734 0.93359 0.07813 0 0 0.42188 0.35156 0.5 0.85547 0 0 0.07813 0.50391 0.07813 1.0078v1.0039s0 0.5-0.15234 1.0039c0 0-0.15234 0.50391-0.85547 1.0039 0 0-0.70703 0.50391-0.93359 1.0078 0 0-0.22266 0.50391-0.65234 0.93359 0 0-0.42578 0.42578-0.92969 0.57812 0 0-0.50391 0.14844-1.0078 0.50391 0 0-0.50391 0.35156-1.0078 0.42578 0 0-0.5 0.07422-0.92578 0 0 0-0.42578-0.07422-0.57812-0.50391 0 0-0.15625-0.42578-0.50391-0.92969 0 0-0.35156-0.50391-0.42578-1.0078 0 0-0.08203-0.5039-0.08203-1.0078 0 0 0-0.5 0.08203-1.0039 0 0 0.07422-0.5039 0.50391-1.0039 0 0 0.42188-0.50391 0.92578-0.92969 0 0 0.5039-0.42969 1.0039-0.50391 0 0 0.50391-0.07422 1.0078-0.07422h1.0078 1.0039s0.5039 0 0.93359 0.07422c0 0 0.42969 0.07422 0.5039 0.50391 0 0 0.07422 0.42578 0.07422 0.92969 0 0 0 0.5-0.07422 0.92578 0 0-0.07422 0.42969-0.42969 0.66016 0 0-0.35156 0.22656-0.50391 0.93359 0 0-0.14844 0.69922-0.57812 0.92578 0 0-0.42578 0.22266-1.0039 0.57812 0 0-0.57812 0.35156-1.4375 0.42578 0 0-0.85547 0.07813-1.4336 0.07813 0 0-0.57812 0-1-0.15234 0 0-0.42969-0.14844-0.50391-0.92969 0 0-0.08203-0.78125-0.15625-1.4375 0 0-0.07422-0.65234-0.34766-1.5039 0 0-0.27734-0.85547 0-1.4336 0 0 0.27344-0.57812 0.42578-1.0078 0 0 0.15234-0.42969 0.50391-0.57812 0 0 0.34766-0.14844 0.50391-0.50391 0 0 0.15234-0.35156 0.57812-0.42969 0 0 0.42578-0.07422 0.92578-0.07422h1.0078 1.0078 1.0039s0.5039 0 0.93359 0.07422c0 0 0.42969 0.07813 0.5039 0.50391 0 0 0.07422 0.42969 0.07422 0.93359v1.0078 1.0039s0 0.5-0.07422 0.92578c0 0-0.07422 0.42969-0.5039 0.50391 0 0-0.42969 0.07813-0.93359 0.07813h-1.0039-1.0078-1.0078s-0.5 0-1.0039-0.07813c0 0-0.50391-0.07422-1.0078-0.42188 0 0-0.50391-0.35156-0.92578-0.5039 0 0-0.42969-0.15625-0.57812-0.57812 0 0-0.15625-0.42969-0.42969-0.92969 0 0-0.27734-0.5039 0.07422-0.93359 0 0 0.35547-0.42969 0.85937-0.57812 0 0 0.49609-0.14844 1-0.50391 0 0 0.50391-0.35156 1.082-0.42969 0 0 0.57812-0.07422 1.4336-0.07422h1.4375 1.0781s0.5039 0 1.0078 0.07422c0 0 0.50391 0.07813 0.93359 0.50391 0 0 0.42188 0.42969 0.42188 0.93359 0 0 0 0.50391-0.42188 1.0078 0 0-0.42969 0.5-0.93359 0.92969 0 0-0.50391 0.42188-1.0078 0.5 0 0-0.5 0.07422-1.0039 0.07422h-1.0078s-0.50391 0-0.92969-0.07422c0 0-0.42969-0.07813-0.50391-0.5l-0.07422-0.42969" stroke="#2b99f0"/></g></g></svg>
