<svg width="630.96pt" height="288.96pt" version="1.2" viewBox="0 0 630.96 288.96" xmlns="http://www.w3.org/2000/svg"><defs><clipPath id="b"><path d="m0 0h630.96v288.52h-630.96z"/></clipPath><clipPath id="a"><path d="m0.60547 0h630.36v288.52h-630.36z"/></clipPath></defs><g clip-path="url(#b)"><rect width="630.96" height="288.96" fill="#fff"/></g><g clip-path="url(#a)"><path d="m0.60547-0.13281h631v289.27h-631z" fill="#fff"/></g><g fill="none" stroke-linecap="round" stroke-linejoin="round"><path d="m435.89 127.53 0.27734 0.96484s0.28125 0.95703 0.55859 2.3398c0 0 0.27735 1.375 0.5586 2.3047 0 0 0.27734 0.9375 0.60156 2.6797 0 0 0.3164 1.7383 0.79297 3.7344 0 0 0.47265 1.9883 0.79687 4.1328 0 0 0.31641 2.1445 0.55859 4.1367 0 0 0.23438 1.9883 0.31641 3.8555 0 0 0.082 1.8672 0.27734 3.2148 0 0 0.19532 1.3555 0.19532 1.9961 0 0 0 0.64062-0.23438 0.96093 0 0-0.23828 0.32031-0.51562 0.47266 0 0-0.28125 0.15234-0.5586-0.35938 0 0-0.28125-0.51953-0.55859-1.6328 0 0-0.27734-1.1133-0.55859-2.7422 0 0-0.27735-1.6328-0.51172-3.6641 0 0-0.23828-2.0352-0.27735-4.4844 0 0-0.0469-2.4531-0.0469-4.5508v-6.2109s0-4.1133 0.0859-7.9687c0 0 0.082-3.8594 0.59375-6.6055 0 0 0.51953-2.7383 1.2734-4.3008 0 0 0.75391-1.5586 1.3086-2.5898 0 0 0.55859-1.0312 1.0039-1.4297 0 0 0.44922-0.41016 1.3125-0.64063 0 0 0.86328-0.24218 1.3555-0.19531 0 0 0.48437 0.0391 1.2383 0.55469 0 0 0.75 0.51172 1.5508 1.3476 0 0 0.78906 0.83594 1.3945 1.9141 0 0 0.59375 1.0664 1.1523 2.1836 0 0 0.5586 1.1133 1.0781 2.1836 0 0 0.51171 1.0742 0.78906 2.0312 0 0 0.28125 0.96484 0.32422 2.1914 0 0 0.0391 1.2227-0.043 2.1445 0 0-0.0859 0.91797-0.59765 1.7148 0 0-0.51953 0.78906-1.3086 1.3476 0 0-0.80078 0.55859-1.6367 0.87891 0 0-0.83594 0.32031-1.7578 0.59765 0 0-0.91797 0.27735-2.1016 0.55469 0 0-1.1875 0.28125-1.9141 0.51953 0 0-0.72265 0.23437-1.4375 0.27734 0 0-0.70703 0.0391-1.0274 0 0 0-0.32031-0.043-0.35937-0.27734l-0.0469-0.23828m-23.504-8.4492-0.23437 0.40625s-0.24219 0.40234-0.24219 1.4336c0 0 0 1.0273 0.24219 2.3828 0 0 0.23437 1.3477 0.51172 2.7852 0 0 0.27734 1.4297 0.51953 3.0625 0 0 0.23437 1.6289 0.3164 3.3008 0 0 0.082 1.668 0.32422 3.3008 0 0 0.23438 1.6289 0.47266 2.9375 0 0 0.23437 1.3086 0.28125 2.0312 0 0 0.0391 0.72656 0.0391 1.4375v1.0703 0.55859s0 0.19531-0.0391-0.0859c0 0-0.0469-0.27734-0.28125-1.0312 0 0-0.23828-0.75-0.47266-1.5859 0 0-0.24219-0.83594-0.28125-1.8789 0 0-0.043-1.0469-0.082-3.0625 0 0-0.043-2.0234-0.23828-4.207 0 0-0.19531-2.1875-0.23438-4.2227 0 0-0.0469-2.0312 0-4.2617 0 0 0.0391-2.2266 0.31641-4.5234 0 0 0.27734-2.3008 0.79687-3.7734 0 0 0.51563-1.4766 1.0703-2.3594 0 0 0.55859-0.875 1.1602-1.3906 0 0 0.59766-0.51172 1.3125-0.59765 0 0 0.70703-0.082 1.1133 0 0 0 0.40234 0.0859 0.87891 0.51953 0 0 0.47265 0.42968 0.83593 0.83593 0 0 0.36328 0.39844 0.87891 1.1524 0 0 0.51562 0.75 0.98828 1.5859 0 0 0.47266 0.83594 0.59766 1.6719 0 0 0.1289 0.83593 0.32421 1.6719 0 0 0.19532 0.83594 0.19532 1.6719 0 0 0 0.83594-0.24219 1.6328 0 0-0.23438 0.78906-0.55859 1.3906 0 0-0.31641 0.59766-0.91407 1.1523 0 0-0.60156 0.5586-1.5508 1.0781 0 0-0.94531 0.51172-1.6719 0.78906 0 0-0.72656 0.27734-1.6719 0.32422 0 0-0.94922 0.0391-1.5898 0.0391 0 0-0.64062 0-1.1562-0.0391 0 0-0.51953-0.0469-0.71093-0.23828 0 0-0.19532-0.19532 0.23828-0.23438l0.42969-0.0469m-19.004-13.656-0.23047-0.0391s-0.24219-0.0469-0.28125-0.28125c0 0-0.043-0.23828-0.043-0.51562v-0.59766s0-0.32422-0.0391-0.83594c0 0-0.0469-0.51562-0.24219-1.0312 0 0-0.19531-0.51562-0.27734-0.83593 0 0-0.082-0.32032-0.31641-0.55469 0 0-0.24218-0.23828-0.55859-0.32422 0 0-0.32422-0.082-0.79687-0.31641 0 0-0.47657-0.23828-0.83985-0.48046 0 0-0.35937-0.23438-0.83594-0.27344 0 0-0.47265-0.043-0.87499 0.0391 0 0-0.40625 0.0859-1.0742 0.5586 0 0-0.67188 0.47265-1.0781 1.0312 0 0-0.40234 0.55469-0.875 1.1133 0 0-0.47265 0.5586-0.79296 1.1602 0 0-0.32422 0.59375-0.5586 1.3477 0 0-0.23828 0.75-0.32031 1.4375 0 0-0.0859 0.67969-0.28125 1.625 0 0-0.19531 0.94531-0.23437 1.625 0 0-0.043 0.6875 0 1.4375 0 0 0.0391 0.75391 0.27343 1.3125 0 0 0.24219 0.55469 0.5625 0.91797 0 0 0.32031 0.36328 0.83985 0.83593 0 0 0.51171 0.47266 1.0312 0.75 0 0 0.51172 0.28125 0.91407 0.32422 0 0 0.40625 0.0391 1.1133 0.0391 0 0 0.71484 0 1.4023-0.0391 0 0 0.67969-0.043 1.5898-0.27734 0 0 0.90235-0.24219 1.4336-0.60156 0 0 0.52734-0.36328 1.3906-1.0312 0 0 0.86719-0.66797 1.3125-1.0703 0 0 0.44531-0.40625 0.92187-0.87891 0 0 0.47266-0.47656 0.75-0.70703 0 0 0.28125-0.24219 0.32422 0 0 0 0.0391 0.23047 0.0391 0.75 0 0 0 0.51172 0.0469 1.0312 0 0 0.0391 0.51172 0.27734 0.91797 0 0 0.23438 0.40234 0.51172 1.0703 0 0 0.28125 0.66797 0.55859 0.99219 0 0 0.27735 0.3164 0.5586 0.36328l0.27734 0.0391m-69.852-10.145-0.3164 0.32031s-0.32422 0.32031-0.75391 0.79297c0 0-0.4375 0.47265-0.47656 0.75 0 0-0.043 0.28125 0.19531 0.36328 0 0 0.23438 0.0859 0.59766 0.32422 0 0 0.36328 0.23437 1.1172 0.47265 0 0 0.74999 0.23438 1.6328 0.27735 0 0 0.875 0.0391 1.9531 0 0 0 1.0703-0.043 2.1836-0.35938 0 0 1.1172-0.32422 2.2344-1.0781 0 0 1.1133-0.75 2.1914-1.625 0 0 1.0703-0.87891 1.9062-1.9922 0 0 0.83594-1.1172 1.3945-2.4258 0 0 0.55859-1.3086 0.83594-2.4219 0 0 0.27734-1.1133 0.19531-2.0352 0 0-0.082-0.91796-0.79297-1.9023 0 0-0.71484-0.99219-1.5508-1.6328 0 0-0.83594-0.64062-1.7109-1.0703 0 0-0.88281-0.43359-1.9141-0.23828 0 0-1.0312 0.19531-1.9492 0.83593 0 0-0.92188 0.64063-1.9531 1.9922 0 0-1.0312 1.3477-1.9062 3.2148 0 0-0.88281 1.8672-1.6367 3.8164 0 0-0.75391 1.9492-1.1133 3.8984 0 0-0.36329 1.9492-0.51563 3.7773 0 0-0.15625 1.8203 0.23438 2.9726 0 0 0.39062 1.1602 0.88281 1.8008 0 0 0.48437 0.64063 1.5898 1.1133 0 0 1.0977 0.47265 1.9531 0.60156 0 0 0.84766 0.125 2.2695 0.32031 0 0 1.4219 0.19141 2.6602 0.23047 0 0 1.2422 0.0469 2.5976 0.0469h1.3477m-21.051-41.727-0.23437 0.83594s-0.24219 0.83594-0.28125 2.0508c0 0-0.043 1.207-0.082 3.9258 0 0-0.0469 2.7148-0.27735 4.8867 0 0-0.24218 2.1719-0.47656 4.9727 0 0-0.23828 2.7969-0.32422 4.6914 0 0-0.082 1.8945-0.3164 4.4297 0 0-0.23828 2.5352-0.51953 5 0 0-0.27735 2.4648-0.5586 4.4141 0 0-0.27734 1.9492-0.51172 3.4258 0 0-0.23828 1.4766-0.23828 2.7461 0 0 0 1.2656 0.23828 1.9062 0 0 0.23438 0.64062 0.67969 0.91797 0 0 0.44531 0.27734 1.6758 0.32421l1.2266 0.0391m-25.441-12.156v0.99219 1.5586s0 0.57031 0.0469 1.7109c0 0 0.0391 1.1406 0.27735 2.2656 0 0 0.23437 1.1328 0.47656 2.9883 0 0 0.23047 1.8477 0.35937 3.418 0 0 0.125 1.5781 0.5586 4.1836 0 0 0.42968 2.6016 0.70703 4.6367 0 0 0.28125 2.0312 0.32421 3.4648 0 0 0.0391 1.4375 0.0391 2.5039 0 0 0 1.0781-0.0391 1.6328 0 0-0.043 0.55859-0.27734 0.59766 0 0-0.24219 0.043-0.51953-0.31641 0 0-0.27734-0.36328-0.51172-1.4336 0 0-0.24219-1.0742-0.32422-2.7031 0 0-0.0859-1.6289-0.3164-3.5781 0 0-0.24219-1.9531-0.51953-4.2226 0 0-0.28125-2.2695-0.51563-4.8047 0 0-0.23828-2.5352-0.23828-4.7461 0 0 0-2.2148 0.27734-5.7656 0 0 0.28125-3.5547 0.83985-6.0976 0 0 0.55468-2.5508 1.3086-3.75 0 0 0.75391-1.1992 1.4375-1.5195 0 0 0.68359-0.32031 1.5898-0.125 0 0 0.90625 0.19532 1.4336 0.5586 0 0 0.53124 0.36328 1.4805 1.1562 0 0 0.94531 0.79297 1.7812 1.8242 0 0 0.83984 1.0312 1.4414 1.9102 0 0 0.59765 0.875 1.1133 1.7109 0 0 0.51562 0.83593 0.79297 1.6719 0 0 0.28125 0.83594 0.32421 1.668 0 0 0.0391 0.83593-0.043 1.6719 0 0-0.0859 0.83594-0.5586 1.7148 0 0-0.47656 0.875-1.0312 1.8242 0 0-0.55859 0.94531-1.2383 1.3906 0 0-0.6875 0.44532-1.832 0.92188 0 0-1.1406 0.47265-1.9492 0.75 0 0-0.8086 0.27734-1.9102 0.36328 0 0-1.1016 0.082-1.6719 0.27734 0 0-0.57422 0.19532-1.4375 0.19532 0 0-0.86719 0-1.2266-0.23438 0 0-0.36328-0.23828-0.36328-0.51562 0 0 0-0.28125 0.23828-0.5586l0.23437-0.27734m-26.687-13.395-0.12109 0.44531s-0.12891 0.44531-0.71485 1.5859c0 0-0.58593 1.1445-0.70703 2.0234 0 0-0.1289 0.875-0.1289 1.4727 0 0 0 0.60156-0.0391 1.2031 0 0-0.043 0.59375-0.23828 1.3086 0 0-0.19531 0.70703-0.23437 1.0703 0 0-0.0469 0.35937-0.0469 0.64062v0.4336-0.32422s0-0.47266 0.0469-1.2695c0 0 0.0391-0.79297 0.27343-1.6289 0 0 0.23829-0.83203 0.51563-1.668 0 0 0.28125-0.83593 0.55859-1.6719 0 0 0.28125-0.83594 0.51953-1.5898 0 0 0.23438-0.75 0.36329-1.1562 0 0 0.12109-0.40234 0.59765-0.83203 0 0 0.47266-0.43359 1.0312-0.47266 0 0 0.55859-0.043 1.0742 0.19531 0 0 0.51562 0.23438 0.875 0.64063 0 0 0.36328 0.40234 0.83984 1.3086 0 0 0.47266 0.90235 0.79688 1.6719 0 0 0.3164 0.76171 0.55859 1.8672 0 0 0.23437 1.0977 0.27734 1.625 0 0 0.0391 0.53125 0.0391 1.1992v0.94531s0 0.27734 0.043 0.0469c0 0 0.0391-0.24219 0.28125-0.71485 0 0 0.23438-0.47265 0.55859-0.91796 0 0 0.31641-0.44532 0.78907-1.3086 0 0 0.47656-0.86328 0.83593-1.3125 0 0 0.36328-0.44531 0.88282-0.91796 0 0 0.51171-0.47266 1.0312-0.70703 0 0 0.51563-0.23829 0.875-0.043 0 0 0.36328 0.19531 0.83594 0.55468 0 0 0.47656 0.36329 0.80078 1.0742 0 0 0.31641 0.71094 0.64063 1.3945 0 0 0.3164 0.67969 0.79296 1.582 0 0 0.47266 0.90625 0.83594 1.3555 0 0 0.36328 0.44531 0.83594 0.87109 0 0 0.47265 0.4375 0.79297 0.51953l0.32031 0.082m-26.984-24.402-0.78906 0.23828s-0.79688 0.23437-1.3555 0.36328c0 0-0.55859 0.12109-0.875 0.51172 0 0-0.32422 0.39062-0.60547 0.47266l-0.27734 0.0859m4.4414 15.266-0.98828 1.3125s-0.99219 1.3086-1.4375 2.1875c0 0-0.44922 0.875-0.92187 1.4766 0 0-0.47266 0.59766-0.79688 1.1133 0 0-0.32031 0.51172-0.51562 0.70704 0 0-0.19531 0.19531 0-0.23438 0 0 0.19531-0.43359 0.47656-0.98828l0.27734-0.55859m-7.5156-18.055-0.59766 0.0469s-0.60156 0.0391-1.3125 0.23438c0 0-0.71093 0.19531-1.1133 0.27734 0 0-0.40625 0.082-0.92187 0.32422 0 0-0.51563 0.23437-1.0312 0.51172 0 0-0.51953 0.27734-0.83984 0.55859 0 0-0.32032 0.27735-0.6836 0.64063 0 0-0.35937 0.35937-1.0703 1.0664 0 0-0.71094 0.71485-1.2695 1.3164 0 0-0.55859 0.59375-0.875 1.1523 0 0-0.32422 0.55859-0.60547 1.0742 0 0-0.27734 0.51562-0.51562 0.83594 0 0-0.23438 0.32031-0.27344 0.64062 0 0-0.0469 0.32031 0 0.79297 0 0 0.0391 0.47265 0.35938 0.75 0 0 0.32031 0.28125 0.98828 0.36328 0 0 0.67187 0.082 1.1172 0.27734 0 0 0.44532 0.19531 1.1992 0.28125 0 0 0.75 0.082 1.5508 0.32031 0 0 0.78906 0.23438 1.4336 0.47266 0 0 0.64063 0.23437 1.3945 0.32031 0 0 0.75 0.082 1.3516 0.32031 0 0 0.59765 0.23438 1.1172 0.5586 0 0 0.51172 0.3164 0.83594 0.79297 0 0 0.32031 0.47265 0.55859 0.79687 0 0 0.23438 0.31641 0.27735 0.59375 0 0 0.0391 0.27734 0.0391 0.60156 0 0 0 0.31641-0.0391 0.79297 0 0-0.043 0.47266-0.27735 0.83594 0 0-0.23828 0.35937-0.55859 0.83203 0 0-0.32422 0.47656-0.83594 0.83593 0 0-0.51953 0.36329-1.0312 0.83594 0 0-0.51953 0.47266-0.88281 0.83594 0 0-0.36328 0.36328-0.875 0.88281 0 0-0.51953 0.51172-1.0312 1.0234 0 0-0.51953 0.51953-0.83593 0.83984 0 0-0.32422 0.32031-0.60157 0.59766 0 0-0.28125 0.27734-0.55859 0.55468 0 0-0.28125 0.28125-0.47656 0.51953 0 0-0.19141 0.23438 0 0.27735l0.19531 0.0391m-46.031-19.207-0.23438-0.27734s-0.23828-0.28125-0.27734-0.55859c0 0-0.0469-0.27735-0.0469-0.5586v-0.55468-0.5586-0.55468s0-0.28125-0.0391-0.5586c0 0-0.043-0.27734-0.27735-0.55859 0 0-0.24218-0.27734-0.51953-0.55469 0 0-0.27734-0.27734-0.55859-0.51953 0 0-0.27734-0.23437-0.55469-0.27344 0 0-0.28125-0.043-0.55859-0.043h-0.64062-1.0781s-0.70703 0-1.3047 0.043c0 0-0.60156 0.0391-1.1172 0.27344 0 0-0.51563 0.24219-0.91797 0.5625 0 0-0.40625 0.32031-1.1172 0.83594 0 0-0.71093 0.51172-1.3086 1.0703 0 0-0.60156 0.55859-1.1172 1.1602 0 0-0.51953 0.59374-0.8789 1.3867 0 0-0.36328 0.79688-0.79297 1.6328 0 0-0.4375 0.83203-0.55859 1.7148 0 0-0.12891 0.875-0.32422 1.9492 0 0-0.19531 1.0703-0.19531 2.1445 0 0 0 1.0703 0.28124 1.9492 0 0 0.27735 0.875 0.79688 1.6719 0 0 0.51172 0.78907 1.0312 1.3477 0 0 0.51172 0.55859 0.96094 0.875 0 0 0.44531 0.32422 1.3086 0.55469 0 0 0.86328 0.24218 1.3945 0.28125 0 0 0.53125 0.043 1.4375 0 0 0 0.90625-0.0391 1.5898-0.31641 0 0 0.67969-0.28125 1.4805-0.83594 0 0 0.78906-0.55859 1.5898-1.3516 0 0 0.78906-0.79297 1.3477-1.5859 0 0 0.55859-0.79688 0.92187-1.4805 0 0 0.35938-0.67969 0.83594-1.582 0 0 0.47265-0.91016 0.7539-1.3945 0 0 0.27735-0.48828 0.35938-1.1562 0 0 0.0859-0.67188 0.28125-1.0312 0 0 0.19531-0.36328 0.19531-0.55859 0 0 0-0.19532-0.19531 0 0 0-0.19531 0.19531-0.19531 0.64062 0 0 0 0.44531 0.19531 1.5508 0 0 0.19531 1.0977 0.3164 1.9023 0 0 0.12891 0.8086 0.5586 1.9961 0 0 0.43359 1.1797 0.83593 2.0977 0 0 0.40625 0.92187 1.1172 1.6719 0 0 0.71094 0.75391 1.3164 1.1172 0 0 0.59375 0.35937 1.1523 0.64062l0.55859 0.27735m-76.191-11.754-0.19531 0.5586s-0.19531 0.55859 0 1.0312c0 0 0.19531 0.47265 0.47266 0.55468 0 0 0.27734 0.0859 0.60156 0.0859 0 0 0.32031 0 0.875 0.043 0 0 0.55859 0.0391 1.3555 0.23438 0 0 0.79296 0.19531 1.6289 0.15625 0 0 0.83594-0.043 1.6289-0.4336 0 0 0.79687-0.39062 1.4375-0.64062 0 0 0.64454-0.25 1.3945-1.0703 0 0 0.75391-0.82422 1.3555-1.3906 0 0 0.59766-0.57421 1.0703-1.6719 0 0 0.47657-1.1055 0.5586-1.9102 0 0 0.0859-0.8086 0.0469-1.9531 0 0-0.0469-1.1406-0.36328-1.9492 0 0-0.32422-0.80468-1.1172-1.9492 0 0-0.79688-1.1406-1.8672-1.7813 0 0-1.0781-0.64062-2.1484-0.96484 0 0-1.0742-0.3164-1.9961-0.51172 0 0-0.91797-0.19531-1.9062 0 0 0-0.99218 0.19531-1.7188 0.72266 0 0-0.72265 0.53125-1.6719 2.0625 0 0-0.94922 1.5312-1.6289 2.7852 0 0-0.6875 1.2539-1.3984 3.2969 0 0-0.71094 2.0508-1.0352 3.582 0 0-0.3164 1.5312-0.3164 3.6211 0 0 0 2.0898 0.23828 3.3281 0 0 0.23437 1.2422 0.59765 1.9258 0 0 0.36328 0.67969 1.1992 1.4297 0 0 0.83594 0.7539 2.0234 1.3125 0 0 1.1836 0.55468 1.9922 0.83203 0 0 0.8086 0.28125 2.1641 0.36328 0 0 1.3516 0.0859 3.0898 0.27734 0 0 1.7461 0.19531 2.9883 0.24219l1.2383 0.0391m-21.617-23.926h-0.28125s-0.27735 0-0.51172-0.0391c0 0-0.23828-0.043-0.32422-0.23828 0 0-0.082-0.19531-0.3164-0.23438 0 0-0.24219-0.04297-0.51954 0 0 0-0.27734 0.03906-0.55859 0.23438 0 0-0.27734 0.19531-0.59375 0.32422 0 0-0.32422 0.12109-0.88281 0.59375 0 0-0.55859 0.47656-1.3125 1.0312 0 0-0.75 0.55859-1.4766 1.2422 0 0-0.72656 0.67968-1.8242 1.8242 0 0-1.1016 1.1406-1.6719 1.9102 0 0-0.57422 0.76172-1.3945 1.7109 0 0-0.82422 0.94532-1.0312 1.5859 0 0-0.21094 0.64062-0.36328 1.1133 0 0-0.15625 0.47266 0.082 0.59766 0 0 0.23437 0.1289 0.71094 0.36718 0 0 0.47265 0.23438 0.8789 0.51172 0 0 0.40234 0.27735 1.0703 0.55859 0 0 0.67188 0.27735 1.1602 0.55469 0 0 0.48828 0.28125 1.3945 0.51953 0 0 0.90625 0.23438 1.5898 0.31641 0 0 0.67969 0.0859 1.4727 0.28125 0 0 0.79687 0.1914 1.6367 0.23828 0 0 0.83594 0.0391 1.6719 0.0391h1.6719 0.83594m-16.453-34.133-0.0859-0.31641s-0.082-0.32422-0.47266-0.71484c0 0-0.39062-0.39062-0.47265-0.19531 0 0-0.0859 0.19531-0.0859 0.71484 0 0 0 0.51172 0.0469 1.1953 0 0 0.0391 0.67969 0.27344 1.8672 0 0 0.23828 1.1797 0.47656 2.1016 0 0 0.23438 0.91797 0.32032 1.9648 0 0 0.082 1.043 0.32421 3.1484 0 0 0.23438 2.0977 0.47266 4.8437 0 0 0.23438 2.7422 0.27734 5.5547 0 0 0.0391 2.8125 0 4.9883 0 0-0.043 2.1719-0.23828 5.125 0 0-0.19531 2.9492-0.27734 4.4844 0 0-0.0859 1.5312-0.32422 2.8398 0 0-0.23437 1.3086-0.46875 2.3828 0 0-0.24219 1.0703-0.28125 1.6719 0 0-0.043 0.59766 0 0.875 0 0 0.0391 0.27734 0.28125 0.27734 0 0 0.23438 0 0.51172-0.23828l0.28125-0.23437m-15.055-15.059-0.23438-0.0391s-0.24219-0.043-0.32422-0.23828c0 0-0.08594-0.19531-0.28125-0.27735 0 0-0.19531-0.0859-0.27734-0.28125 0 0-0.08203-0.19531-0.27734-0.27734 0 0-0.19531-0.082-0.28125-0.27734 0 0-0.08203-0.19532-0.31641-0.28125 0 0-0.24219-0.082-0.51953-0.31641 0 0-0.27734-0.23828-0.55859-0.48047 0 0-0.27734-0.23047-0.59375-0.26953 0 0-0.32422-0.0469-0.80078-0.0469h-0.87891s-0.40234 0-1.1094 0.0469c0 0-0.71484 0.0391-1.3125 0.26953 0 0-0.60156 0.24219-1.1602 0.51953 0 0-0.55859 0.27735-1.1523 0.64063 0 0-0.60547 0.36328-1.3164 1.0703 0 0-0.71094 0.71094-1.1094 1.3516 0 0-0.41016 0.64063-0.88281 1.3555 0 0-0.47266 0.70703-0.79297 1.1523 0 0-0.32422 0.44531-0.5625 1.1133 0 0-0.23438 0.66797-0.27344 1.1172 0 0-0.04297 0.44531-0.04297 1.1133 0 0 0 0.66797 0.08203 1.1133 0 0 0.08203 0.44531 0.51953 1.1133 0 0 0.42969 0.66797 0.79297 1.0703 0 0 0.35937 0.40625 0.8789 0.87891 0 0 0.51562 0.47656 1.1172 0.79687 0 0 0.59375 0.32032 1.3086 0.59766 0 0 0.71094 0.27734 1.1992 0.51562 0 0 0.48437 0.23438 1.3516 0.28125 0 0 0.86328 0.0391 1.3555-0.0469 0 0 0.48438-0.082 1.1523-0.51563 0 0 0.67188-0.42969 1.1172-0.79297 0 0 0.44531-0.35937 1.1133-0.83593 0 0 0.67188-0.47266 1.0312-0.87891 0 0 0.36328-0.40234 0.64453-1.1133 0 0 0.27734-0.70703 0.51562-1.3047 0 0 0.23438-0.60156 0.28125-1.1133 0 0 0.03906-0.51953 0.03906-0.8789v-0.83594-0.625s0-0.15625 0.04297 0.42969c0 0 0.03906 0.58203 0.28125 1.0312 0 0 0.23438 0.44531 0.51172 1.1133 0 0 0.27734 0.66797 0.60156 1.1562 0 0 0.32031 0.48437 0.79297 1.3516 0 0 0.47266 0.86328 0.87891 1.3516 0 0 0.40234 0.48438 1.0742 1.1523 0 0 0.66797 0.66797 1.1602 1.0703 0 0 0.48438 0.40624 1.4766 0.92578l0.98828 0.51171m-58.973-41.328v-0.28125-0.55469s0-0.27734 0.04687-0.51172c0 0 0.03906-0.24219 0.23438-0.32422 0 0 0.19531-0.08203 0.27734-0.27734 0 0 0.08594-0.19531 0.32422-0.23438 0 0 0.23437-0.04687 0.51172 0 0 0 0.28125 0.03906 0.55859 0.31641 0 0 0.28125 0.27734 0.55859 0.75391 0 0 0.27734 0.47266 0.55859 0.8789 0 0 0.27734 0.40234 0.55469 1.1094 0 0 0.28125 0.71094 0.55859 1.3906 0 0 0.28125 0.6875 0.55859 1.6758 0 0 0.27734 0.98828 0.51953 1.8242 0 0 0.23437 0.83594 0.3164 1.4375 0 0 0.08594 0.59375 0.28125 1.2344 0 0 0.19531 0.64062 0.23828 1.5508 0 0 0.03906 0.90234 0.08203 1.3477 0 0 0.03906 0.44531 0.23438 0.96484 0 0 0.19531 0.51172 0.28125 1.0273 0 0 0.08203 0.51562 0.32422 0.79297 0 0 0.23438 0.27734 0.47266 0.36328 0 0 0.23438 0.08203 0.31641 0.27734 0 0 0.08594 0.19531 0.32422 0.23828 0 0 0.23437 0.03906 0.51172 0.03906 0 0 0.28125 0 0.55859-0.03906 0 0 0.28125-0.04297 0.55859-0.32422 0 0 0.27734-0.27734 0.60156-0.75 0 0 0.32031-0.47266 0.75-0.79297 0 0 0.43359-0.32031 0.60156-0.72266 0 0 0.16797-0.40625 0.60156-1.3086 0 0 0.42969-0.91016 0.79297-1.6328 0 0 0.35938-0.72266 0.83594-1.7539 0 0 0.47266-1.0312 0.79688-2.0156 0 0 0.31641-0.99219 0.59766-1.4766 0 0 0.27734-0.49219 0.55859-1.1992 0 0 0.27734-0.71094 0.55469-1.2695 0 0 0.28125-0.55859 0.51953-0.91797 0 0 0.23438-0.36328 0.31641-0.83594 0 0 0.08594-0.47266 0.28125-0.79297 0 0 0.19531-0.32031 0.27734-0.51562 0 0 0.08594-0.19531 0.28125 0 0 0 0.19531 0.19531 0.27734 0.55469 0 0 0.08203 0.36328 0.32422 1.1992 0 0 0.23437 0.83594 0.51172 2.0625 0 0 0.28125 1.2227 0.55859 2.2695 0 0 0.27734 1.043 0.60156 2.6289 0 0 0.32031 1.5898 0.79297 3.6211 0 0 0.47266 2.0352 0.79297 4.6523 0 0 0.32031 2.6172 0.60156 5.0859 0 0 0.27734 2.4648 0.51953 4.4961 0 0 0.23438 2.0352 0.31641 3.9844 0 0 0.08203 1.9492 0.27734 3.6914 0 0 0.19531 1.7383 0.24219 2.5078 0 0 0.03906 0.76172 0.08203 1.3633 0 0 0.03906 0.59766 0.28125 1.3945 0 0 0.23437 0.78906 0.47266 1.5859 0 0 0.23438 0.79296 0.31641 1.3086 0 0 0.08594 0.51562 0.32422 0.59766 0 0 0.23438 0.082 0.55859 0.082h0.83594 0.51172m-27.004-43.031-0.23438-0.19531s-0.23828-0.19531-0.32422-0.03906c0 0-0.08203 0.14844-0.27734 0.23438 0 0-0.19531 0.08203-0.23438 0.31641 0 0-0.04688 0.23828-0.04688 0.5625 0 0 0 0.31641-0.03906 0.83594 0 0-0.04297 0.51172-0.23828 1.1133 0 0-0.19531 0.59766-0.27734 1.3867 0 0-0.08594 0.79687-0.32031 1.6719 0 0-0.23828 0.87891-0.51562 1.9961 0 0-0.28125 1.1133-0.59766 2.5039 0 0-0.32422 1.3945-0.79687 2.8984 0 0-0.47656 1.5039-0.79297 2.4687 0 0-0.32422 0.95703-0.64844 1.9609 0 0-0.3164 1-0.875 2.7383 0 0-0.55859 1.7461-1.3086 3.4609 0 0-0.7539 1.7109-1.3125 3.2578 0 0-0.55859 1.543-0.92187 2.5469 0 0-0.35938 1-0.87891 2.1172 0 0-0.51172 1.1133-1.0273 2.3398 0 0-0.51953 1.2227-0.83594 1.9492 0 0-0.32422 0.72266-0.64062 1.5586 0 0-0.32422 0.83594-0.7539 1.7812 0 0-0.43359 0.94922-0.55859 1.3516 0 0-0.12891 0.40625-0.36328 0.6836 0 0-0.23828 0.27734-0.47266 0.55859 0 0-0.23828 0.27734-0.32422 0.51563 0 0-0.08203 0.23437-0.27734 0.23437 0 0-0.19531 0-0.19531-0.32422 0 0 0-0.3164 0.19531-1.0664 0 0 0.19531-0.75391 0.27734-1.5078 0 0 0.08594-0.74999 0.32422-1.1133l0.23437-0.35937" stroke="#2b99f0" stroke-width="4.4591"/><path d="m393.8 197.26-0.83594 0.082s-0.83594 0.0859-1.5469 0.51953c0 0-0.71094 0.42968-0.75 0.70703 0 0-0.0469 0.27734 0.42968 0.32422 0 0 0.47266 0.0391 1.0742 0.082 0 0 0.59766 0.0391 1.4336 0.23437 0 0 0.83594 0.19531 1.9961 0.27735 0 0 1.1562 0.0859 2.6211 0.28124 0 0 1.4609 0.19141 2.7148 0.23829 0 0 1.2578 0.0391 3.5039 0.0391 0 0 2.2422 0 3.8594 0.043 0 0 1.6172 0.0391 3.8672 0.23437 0 0 2.2422 0.19531 3.4102 0.27735 0 0 1.1719 0.0859 2.25 0.32421l1.0703 0.23438m-14.789-11.766v-0.19532 0.0469 0.95703 2.4609s0 1.7422-0.0391 3.7383c0 0-0.043 1.9883-0.32031 4.1797 0 0-0.28125 2.1836-0.7539 4.4102 0 0-0.47657 2.2266-0.79297 4.2891 0 0-0.32422 2.0625-0.64844 3.3867 0 0-0.3164 1.3203-0.74609 2.5078 0 0-0.4336 1.1797-0.51953 1.625 0 0-0.082 0.44531-0.0391 0.6875 0 0 0.0391 0.23437 0.32032 0.27734 0 0 0.27734 0.0391 0.79687-0.043 0 0 0.51172-0.0859 1.0312-0.55859 0 0 0.51172-0.47266 0.83594-1.0312l0.32031-0.55469m-27.07-3.7968v1.8281s0 1.8203-0.0391 3.1016c0 0-0.0469 1.2812-0.24219 2.5078 0 0-0.19531 1.2226-0.27734 2.1172 0 0-0.0859 0.89063-0.27735 2.4609 0 0-0.19531 1.5742-0.23437 2.5391 0 0-0.0469 0.95703-0.0859 1.6445 0 0-0.043 0.67968-0.23828 1.625 0 0-0.19531 0.94921-0.28125 1.5508 0 0-0.082 0.59375-0.31641 0.83593 0 0-0.23828 0.23047-0.51953 0.0391 0 0-0.27734-0.19531-0.51171-0.51562 0 0-0.24219-0.32031-0.32422-0.91797 0 0-0.082-0.60156-0.31641-1.6719 0 0-0.24219-1.0742-0.48047-2.4688 0 0-0.23437-1.3906-0.27343-3.0156 0 0-0.0469-1.6328 0-3.3438 0 0 0.0391-1.7148 0.27343-3.582 0 0 0.23828-1.8672 0.60156-3.5391 0 0 0.36329-1.668 1.1172-3.1016 0 0 0.75-1.4375 1.5898-2.707 0 0 0.83594-1.2656 1.6719-1.9062 0 0 0.83593-0.64062 1.5898-0.91797 0 0 0.75-0.27734 1.2422-0.23437 0 0 0.48437 0.0391 1.3945 0.47266 0 0 0.90234 0.42968 1.6289 0.875 0 0 0.72656 0.44531 1.6328 1.3555 0 0 0.90625 0.90235 1.3945 1.5859 0 0 0.48438 0.67969 1.1562 1.4766 0 0 0.66797 0.79297 1.0312 1.582 0 0 0.36328 0.79688 0.60156 1.3984 0 0 0.23438 0.59765 0.23438 1.1992 0 0 0 0.59375-0.23438 1.3008 0 0-0.23828 0.71484-0.60156 1.1211 0 0-0.36328 0.40234-1.0781 0.875 0 0-0.70703 0.47265-1.3945 0.79687 0 0-0.67969 0.31641-1.625 0.55469 0 0-0.94922 0.23437-1.6758 0.32031 0 0-0.72266 0.082-1.7109 0.27735 0 0-0.99218 0.19531-1.7852 0.23828 0 0-0.79688 0.0391-1.1602 0.0391h-0.64062-0.47656s-0.19141 0 0 0h0.19531m-12.035-22.094-0.44531 0.0859s-0.44922 0.082-1.4219 0.47266c0 0-0.97656 0.39062-0.94921 0.47265 0 0 0.0273 0.0859 0.30468 0.0859h0.28125m2.8086 10-0.47656 0.79687s-0.47265 0.78907-0.59765 1.3477c0 0-0.125 0.55859-0.35938 0.91797 0 0-0.24219 0.36328-0.51953 0.88281 0 0-0.28125 0.51172-0.55859 1.0664 0 0-0.27735 0.55859-0.51953 1.0781 0 0-0.23438 0.51172-0.27344 0.83594 0 0-0.043 0.3164-0.043 0.59375v0.27734m-14.141-4.6641v0.51172 0.83594 0.60156 0.55859s0 0.27735 0.043 0.51172c0 0 0.0391 0.24219 0.23438 0.24219 0 0 0.19531 0 0.24218-0.28125 0 0 0.0391-0.27735 0.0391-0.83594v-1.3516-1.582-1.4766-1.6328s0-0.94531 0.043-1.5859c0 0 0.0391-0.64062 0.27735-1.1172 0 0 0.23437-0.47265 0.51562-0.59375 0 0 0.27735-0.1289 0.55469-0.32421 0 0 0.28125-0.19532 0.60547-0.19532 0 0 0.3164 0 0.78906 0.23828 0 0 0.47656 0.23438 0.88281 0.51563 0 0 0.40235 0.27734 1.0703 0.55469 0 0 0.66797 0.28125 1.1172 0.60156 0 0 0.44531 0.32031 1.1602 0.7539 0 0 0.70703 0.42969 1.3086 0.51172l0.59765 0.082m-22.266-1.457-0.23828-0.51172s-0.23438-0.51953-0.27735-0.83593c0 0-0.0391-0.32422-0.0781-0.60157 0 0-0.0469-0.27734-0.28125-0.55859 0 0-0.23828-0.27734-0.51953-0.51562 0 0-0.27734-0.23438-0.59375-0.27344 0 0-0.32422-0.0469-0.80078-0.0469 0 0-0.47266 0-0.83594 0.0469 0 0-0.36328 0.0391-0.83593 0.3164 0 0-0.47266 0.27735-0.79297 0.75391 0 0-0.32032 0.47266-0.6836 0.87891 0 0-0.36328 0.40234-1.0703 1.1523 0 0-0.71484 0.7539-1.2734 1.5508 0 0-0.5586 0.78906-0.83594 1.3906 0 0-0.27735 0.59766-0.36328 1.1524 0 0-0.082 0.55859-0.23438 1.1172 0 0-0.15625 0.55469 0.0391 1.0742 0 0 0.19532 0.51172 0.47657 0.83594 0 0 0.27734 0.3164 0.64062 0.59375 0 0 0.36328 0.28125 1.0742 0.51953 0 0 0.71094 0.23437 1.3516 0.3164 0 0 0.64063 0.0859 1.3945 0.27735 0 0 0.75 0.19531 1.3086 0.24218 0 0 0.5586 0.0391 0.92188 0.0391h0.875 1.0391 0.875 0.83594 0.79687 0.31641m-24.695-17.367h-0.55859-1.0703-0.87891-0.83984s-0.47266 0-0.83594 0.043c0 0-0.35937 0.0391-0.875 0.27344 0 0-0.51953 0.23828-1.0352 0.5625 0 0-0.51563 0.3164-0.87891 0.78906 0 0-0.35937 0.47656-0.875 0.79687 0 0-0.51953 0.32031-1.0352 0.59766 0 0-0.51563 0.27734-0.83594 0.64062 0 0-0.32031 0.36328-0.59766 1.0312 0 0-0.28125 0.66797-0.47656 1.0312 0 0-0.19531 0.35937 0 0.64062 0 0 0.19531 0.27735 0.47656 0.55469 0 0 0.27735 0.28125 0.64063 0.5586 0 0 0.36328 0.27734 1.0312 0.55468 0 0 0.66797 0.28125 1.1602 0.60156 0 0 0.48438 0.32032 1.3906 0.79297 0 0 0.90625 0.47266 1.6328 0.79688 0 0 0.72656 0.3164 1.6328 0.59375 0 0 0.90625 0.28125 1.3945 0.55859 0 0 0.48438 0.27734 1.1562 0.55859 0 0 0.66797 0.27735 1.0312 0.60157 0 0 0.36328 0.3164 0.60156 0.78906 0 0 0.23438 0.47265 0.27734 0.79687 0 0 0.0391 0.31641 0.0391 0.59766 0 0 0 0.27734-0.0391 0.55468 0 0-0.043 0.28125-0.27734 0.5586 0 0-0.23828 0.27734-0.51953 0.55859l-0.55469 0.55469s-0.28125 0.27734-0.64453 0.55859c0 0-0.35937 0.27735-1.0312 0.51172 0 0-0.66797 0.23828-1.1523 0.32422 0 0-0.49219 0.082-1.3945 0.27734 0 0-0.91016 0.19531-1.5976 0.23438 0 0-0.67969 0.043-1.4727 0.043h-1.5938-1.4336-1.3945-1.3477-1.1172s-0.51954 0-0.83985 0.0469c0 0-0.32031 0.0391-0.51562 0.23437 0 0-0.19531 0.19532 0 0.19532 0 0 0.19531 0 0.47656-0.24219l0.27734-0.23438m-55.953-1.1876v0.27734 0.5586 0.60156 0.78906s0 0.47266-0.0391 0.71484c0 0-0.043 0.23438-0.23828-0.0469 0 0-0.19531-0.27735-0.28125-1.0274 0 0-0.082-0.7539-0.3164-1.5898 0 0-0.23829-0.83594-0.48047-1.7109 0 0-0.23438-0.8789-0.27344-1.9492 0 0-0.043-1.0742-0.043-2.0586 0 0 0-0.99219 0.043-1.5234 0 0 0.0391-0.52734 0.27344-1.3477 0 0 0.24218-0.82421 0.64843-1.0742 0 0 0.40235-0.25 1.2656-0.64063 0 0 0.86328-0.39062 1.4336-0.47265 0 0 0.57422-0.0859 1.7188-0.125 0 0 1.1406-0.043 2.1445-0.23829 0 0 1.0039-0.19531 2.2305-0.23437 0 0 1.2266-0.043 2.0664-0.043h1.1992 0.35937m-33.527-0.0156 0.043 0.23828s0.0391 0.23438 0.23438 0.31641c0 0 0.19531 0.0859 0.24218 0.36328 0 0 0.0391 0.27734 0.082 0.75391 0 0 0.0391 0.47265 0.23438 0.8789 0 0 0.19531 0.40234 0.23828 1.1094 0 0 0.0391 0.71093 0.0859 1.3906 0 0 0.0391 0.6875 0.23437 1.6328 0 0 0.19531 0.94922 0.32422 1.6328 0 0 0.12109 0.67969 0.51172 1.3867 0 0 0.39062 0.71484 0.55859 1.1133 0 0 0.16797 0.40625 0.59766 0.83594 0 0 0.43359 0.43359 0.79687 0.51953 0 0 0.36328 0.082 0.83594 0.082 0 0 0.47266 0 0.83594-0.0391 0 0 0.36328-0.043 0.83593-0.27735 0 0 0.47657-0.23828 0.83594-0.60156 0 0 0.36328-0.36328 0.80078-1.0742 0 0 0.42578-0.70703 0.55469-1.2656 0 0 0.125-0.55859 0.32031-0.875 0 0 0.19531-0.32422 0.23828-0.60156 0 0 0.0391-0.27734 0.0391-0.47266v0.043 0.70704 0.88281s0 0.39843 0.0469 1.1133c0 0 0.0391 0.70703 0.31641 1.3086 0 0 0.27734 0.59766 0.79687 1.1133 0 0 0.51172 0.51172 1.1172 0.79297 0 0 0.59375 0.27734 1.3945 0.32031l0.78906 0.0391m-32.543-9.6523-0.51172 0.23047s-0.51953 0.24219-0.83593 0.37109c0 0-0.32422 0.1211-0.5586 0.55078 0 0-0.23828 0.4336-0.32421 0.79688 0 0-0.082 0.35937-0.27735 0.83594 0 0-0.19531 0.47265-0.23437 0.87499 0 0-0.043 0.40625 0 1.1133 0 0 0.0391 0.71093 0.27343 1.2695 0 0 0.23829 0.55468 0.51954 0.8789 0 0 0.27734 0.31641 0.64062 0.64063 0 0 0.36328 0.3164 1.1133 0.7539 0 0 0.75391 0.42969 1.5508 0.55469 0 0 0.79297 0.125 1.3945 0.32031 0 0 0.59766 0.19531 1.1992 0.15625 0 0 0.59765-0.0469 1.3945-0.47656 0 0 0.79297-0.43359 1.5898-0.83594 0 0 0.79297-0.40625 1.3945-1.1953 0 0 0.59766-0.79687 1.1172-1.8672 0 0 0.51172-1.0742 0.83594-2.1875 0 0 0.3164-1.1172 0.55859-2.2305 0 0 0.23437-1.1133 0.23437-2.1836 0 0 0-1.0742-0.32031-1.9492 0 0-0.32422-0.87891-1.1133-1.7148 0 0-0.80078-0.83594-1.8711-1.5898 0 0-1.0742-0.75-2.1445-1.0742 0 0-1.0781-0.31641-1.9531-0.27344 0 0-0.88282 0.0391-1.6797 0.51172 0 0-0.79297 0.47656-1.3867 1.1172 0 0-0.60547 0.64063-1.1172 1.5859 0 0-0.51953 0.94922-0.79687 1.6328 0 0-0.27734 0.67969-0.27734 1.3906 0 0 0 0.71093 0.27734 1.0312 0 0 0.27734 0.32032 0.79687 0.35938l0.51172 0.043m-10.992-1.6875v-0.51171-0.83985s0-0.32031-0.0391-0.51562c0 0-0.0469-0.19531-0.24219 0 0 0-0.19531 0.19531-0.3164 0.55859 0 0-0.12891 0.36328-0.5586 1.1133 0 0-0.43359 0.75391-0.7539 1.6328 0 0-0.32031 0.875-0.64063 1.9453 0 0-0.32421 1.0742-0.83593 2.2266 0 0-0.51953 1.1602-1.1172 2.5508 0 0-0.60156 1.3945-1.3984 3.0664 0 0-0.79296 1.668-1.582 3.582 0 0-0.80078 1.9023-1.4805 3.8516 0 0-0.6836 1.9531-1.6719 3.9453 0 0-0.99218 1.9883-1.8672 4.0508 0 0-0.88282 2.0625-1.6367 3.4961 0 0-0.75 1.4336-1.1523 2.4805 0 0-0.40625 1.043-0.88282 2.3789 0 0-0.47265 1.3359-0.7539 1.8281 0 0-0.27735 0.48438-0.27735 0.67969 0 0 0 0.19531 0.31641-0.0859 0 0 0.32422-0.27734 1.0781-1.0273l0.75391-0.75391m-1.4687-35.273-0.28125-0.0391s-0.27734-0.043-0.47265-0.19531c0 0-0.19531-0.15625 0.043 0.0391 0 0 0.23437 0.19531 0.67187 0.47656 0 0 0.42969 0.27735 0.64063 0.64063 0 0 0.20703 0.35937 0.83593 1.0273 0 0 0.625 0.67188 1.0703 1.1172 0 0 0.44531 0.44531 1.1602 1.1562 0 0 0.70703 0.70703 1.3125 1.3476 0 0 0.59375 0.64063 1.1133 1.3555 0 0 0.51563 0.70703 0.875 1.1133 0 0 0.36328 0.40234 0.83984 0.83594 0 0 0.47266 0.42968 0.79688 0.51172 0 0 0.3164 0.0859 0.59375 0.0859h0.28125m-81.48-5.8359v0.51954 0.87499s0 0.36329 0.043 0.79688c0 0 0.0391 0.42969 0.23437 0.59375 0 0 0.19531 0.16797 0.24219 0.60156 0 0 0.0391 0.42969 0.082 0.74609 0 0 0.0391 0.32422 0.23438 0.60157 0 0 0.19531 0.28125 0.23828 0.55859 0 0 0.0391 0.27734 0.0859 0.55859 0 0 0.0391 0.27735 0.1875 0.4336 0 0 0.15625 0.14843 0-0.23828 0 0-0.14843-0.39063-0.1875-0.79297 0 0-0.0469-0.40625-0.0469-1.0742v-1.1133s0-0.44531 0.0469-1.1562c0 0 0.0391-0.71094 0.27735-1.3086 0 0 0.23437-0.60157 0.51562-1.1133 0 0 0.27735-0.51953 0.60156-0.83985 0 0 0.31641-0.32031 0.75391-0.59765 0 0 0.42578-0.27735 0.64062-0.47266 0 0 0.20704-0.19531 0.82813-0.0391 0 0 0.63281 0.14844 1.0781 0.3164 0 0 0.44532 0.16797 1.1172 0.79297 0 0 0.66797 0.62891 1.0312 1.0742 0 0 0.35937 0.44531 0.64062 1.1602 0 0 0.27735 0.70703 0.51954 1.3086 0 0 0.23437 0.59375 0.27734 1.1094 0 0 0.0391 0.51563 0 0.83203 0 0-0.043 0.32422-0.23828 0.60157 0 0-0.19531 0.28125-0.28125 0.51562 0 0-0.082 0.23828-0.27735 0.23828 0 0-0.19531 0-0.23437-0.23828 0 0-0.0469-0.23437 0-0.59766 0 0 0.0391-0.36328 0.23437-1.0703 0 0 0.19532-0.71093 0.32422-1.3516 0 0 0.1211-0.64062 0.55469-1.3945 0 0 0.42969-0.75 0.79297-1.3476 0 0 0.36328-0.60157 0.83593-1.0742 0 0 0.47657-0.47266 0.88282-0.59766 0 0 0.40234-0.1289 1.1133-0.32031 0 0 0.71093-0.19531 1.3125-0.19531 0 0 0.59765 0 1.1992 0.23828 0 0 0.59766 0.23437 1.3477 0.51172 0 0 0.75391 0.27734 1.3516 0.59765 0 0 0.60156 0.32032 1.1172 0.83985 0 0 0.51562 0.51171 0.83593 1.1133 0 0 0.32422 0.59765 0.55469 1.3476 0 0 0.24219 0.75391 0.28125 1.3945 0 0 0.043 0.64063 0.043 1.3906v1.3555 1.1524 0.55859m-37.687-11.48-0.36328 0.0469s-0.36328 0.0391-0.99219 0.27735c0 0-0.625 0.23437-0.83203 0.51171 0 0-0.21094 0.28125-0.64062 0.5586 0 0-0.4375 0.27734-0.75391 0.55859 0 0-0.32422 0.27734-0.64062 0.60156 0 0-0.32422 0.31641-0.75391 0.83594 0 0-0.43359 0.51172-0.55859 1.0273 0 0-0.12891 0.51563-0.32422 0.83594 0 0-0.19531 0.32031-0.23437 0.67969 0 0-0.04297 0.36328 0 1.0742 0 0 0.03906 0.71094 0.27344 1.2656 0 0 0.24219 0.55859 0.56641 0.91797 0 0 0.31641 0.36328 0.78906 0.83593 0 0 0.47656 0.47657 0.83984 0.79688 0 0 0.35938 0.32031 0.91797 0.59765 0 0 0.55859 0.27735 1.3516 0.51953 0 0 0.79687 0.23047 1.5937 0.27735 0 0 0.79297 0.0391 1.3945 0 0 0 0.59766-0.0469 1.2383-0.36328 0 0 0.64062-0.32422 1.5898-1.0352 0 0 0.94531-0.70703 1.5898-1.3476 0 0 0.64062-0.64063 1.1602-1.4336 0 0 0.51172-0.79687 0.78906-1.6328 0 0 0.28125-0.83203 0.32422-1.5859 0 0 0.03906-0.75391-0.08203-1.2383 0 0-0.12891-0.48829-0.83594-1.3906 0 0-0.71484-0.91015-1.5508-1.5117 0 0-0.83594-0.59375-1.7148-0.87109 0 0-0.87891-0.28125-1.9102-0.32031 0 0-1.0312-0.043-1.9102 0 0 0-0.87891 0.0391-1.6758 0.36328 0 0-0.79297 0.31641-1.3516 0.98437 0 0-0.55859 0.66797-0.875 1.1602 0 0-0.32422 0.48437-0.51953 1.3476 0 0-0.19531 0.86329 0 1.2266 0 0 0.19531 0.36328 0.47656 0.40625l0.27734 0.0391m-20.809 6.457-0.03906 0.32422s-0.04297 0.3164-0.27734 0.7539c0 0-0.23828 0.42578-0.47266 0.42578 0 0-0.24219 0-0.28125-0.42578 0 0-0.04297-0.4375-0.08203-0.83594 0 0-0.04687-0.40625-0.24219-1.1211 0 0-0.19531-0.70703-0.23047-1.3906 0 0-0.04688-0.67969-0.08594-1.668 0 0-0.04297-0.99219-0.23828-1.8672 0 0-0.19531-0.8789-0.23438-1.6289 0 0-0.04687-0.75391 0.03906-1.1992 0 0 0.08203-0.44531 0.47266-1.1133 0 0 0.39062-0.66797 0.60156-1.0312 0 0 0.20703-0.36328 0.83594-0.59765 0 0 0.625-0.23829 1.0742-0.32032 0 0 0.44531-0.0859 1.1523-0.28125 0 0 0.71484-0.19531 1.3945-0.14843 0 0 0.6875 0.0391 1.6328 0.47265 0 0 0.94922 0.42969 1.7578 0.79297 0 0 0.80859 0.35937 2.3164 0.87891l1.5039 0.51171m-49.984-2.6055-0.53125 0.1289s-0.52734 0.125-1.8945 0.70703c0 0-1.3672 0.58594-1.3789 0.71485 0 0-0.01563 0.12109 0.54297 0.12109 0 0 0.55859 0 1.3945-0.0391 0 0 0.83594-0.043 1.9492-0.23828 0 0 1.1172-0.19532 2.4727-0.27735 0 0 1.3477-0.0859 2.7422-0.28125 0 0 1.3945-0.19531 2.707-0.27734 0 0 1.3086-0.082 2.4414-0.27735 0 0 1.1289-0.19531 3.0234-0.23437 0 0 1.8984-0.0469 3.418-0.0469h2.9141 2.7031 2.3164 2.3125 1.3125m-3.1797-15.914 0.23828-0.0391s0.23437-0.043 0.28125-0.27734c0 0 0.03906-0.23828 0.03906-0.51563v-0.55859-0.55859-0.55469-0.55859s0-0.27735-0.03906-0.59375c0 0-0.04688-0.32422-0.28125-0.83594 0 0-0.23828-0.51953-0.51953-1.0781 0 0-0.27734-0.55469-0.55469-1.0664 0 0-0.28125-0.51953-0.59766-0.88281 0 0-0.32422-0.35938-0.83594-0.83594 0 0-0.51953-0.47266-1.0312-0.78906 0 0-0.51953-0.32422-0.88281-0.60156 0 0-0.36328-0.27735-0.92188-0.51953 0 0-0.55469-0.23438-1.2656-0.27344 0 0-0.71094-0.043-1.1133-0.043 0 0-0.40625 0-0.88281 0.043 0 0-0.47266 0.0391-0.83594 0.27344 0 0-0.36328 0.24218-0.83594 0.5625 0 0-0.47266 0.3164-0.79297 0.83593 0 0-0.32422 0.51172-0.60156 1.0312 0 0-0.27734 0.51172-0.55859 0.95703 0 0-0.27734 0.44531-0.55859 1.3477 0 0-0.27734 0.91015-0.51562 1.7188 0 0-0.23437 0.80468-0.27344 2.2695 0 0-0.04687 1.4609-0.04687 2.9375 0 0 0 1.4766 0.04687 3.1094 0 0 0.03906 1.625 0.27344 3.3398 0 0 0.23828 1.7109 0.47656 3.4961 0 0 0.23438 1.7812 0.32031 3.2305 0 0 0.08203 1.4453 0.32422 3.5352 0 0 0.23438 2.0898 0.47266 3.4141 0 0 0.23438 1.3203 0.31641 2.3984 0 0 0.08594 1.0664 0.28125 1.9024 0 0 0.19531 0.83593 0.27734 1.4766 0 0 0.08594 0.64062 0.28125 1.3555 0 0 0.19531 0.70703 0.23828 1.0703 0 0 0.03906 0.35937 0.03906 0.68359v0.83594 0.51172" stroke="#f04523" stroke-width="4.4591"/><path d="m580.53 133.73 0.13282 0.42968s0.1289 0.4375 0.5664 0.30469c0 0 0.4375-0.13281 0.83985-1.1641 0 0 0.40624-1.0273 0.75781-2.5039 0 0 0.35156-1.4766 0.72656-2.7422 0 0 0.37891-1.2656 0.77734-2.9844 0 0 0.39844-1.7226 1.0664-4.3008 0 0 0.66406-2.5703 1.332-5.1484 0 0 0.66797-2.5703 1.3086-4.957 0 0 0.63672-2.3828 2.1992-6.7695 0 0 1.5586-4.3789 2.7734-7.0742 0 0 1.207-2.6914 2.918-6.5039 0 0 1.707-3.8164 2.668-6.5898 0 0 0.96094-2.7695 1.707-4.0781 0 0 0.74219-1.3125 0.90235-1.9414 0 0 0.16015-0.62891 0.48437-1.043 0 0 0.32422-0.41016 0.35938-0.12109 0 0 0.0352 0.28906-0.45313 0.66406 0 0-0.48437 0.375-1.2226 1.7383 0 0-0.73047 1.3633-1.3281 2.8203 0 0-0.58984 1.4492-1.5859 3.7461 0 0-0.99219 2.293-1.707 4.082 0 0-0.70703 1.7852-2.043 4.9453 0 0-1.3398 3.1563-2.4258 5.5977 0 0-1.0781 2.4414-2.5742 6.3047 0 0-1.4883 3.8711-3.1016 7.4102 0 0-1.6055 3.5391-2.7539 6.543 0 0-1.1484 3.0078-1.8711 4.7148 0 0-0.71875 1.7031-2.1562 4.0508 0 0-1.4336 2.3516-2.4023 3.7695 0 0-0.96875 1.4219-1.4609 2.3789 0 0-0.49219 0.96485-0.91016 1.25 0 0-0.41797 0.29688-0.46094 0.58985 0 0-0.043 0.29687-0.0195-0.15625 0 0 0.0234-0.45704 0.34375-1.5547 0 0 0.31641-1.1016 0.72657-2.7422 0 0 0.41015-1.6367 1.125-3.7695 0 0 0.72265-2.1328 1.5742-4.5156 0 0 0.84766-2.3867 1.8984-5.5391 0 0 1.0508-3.1523 1.9375-6.5234 0 0 0.89062-3.3672 2.3125-7.1758 0 0 1.4141-3.8047 2.6953-7.6758 0 0 1.2773-3.8711 2.7812-7.6055 0 0 1.5078-3.7383 2.6914-6.457 0 0 1.1836-2.7188 1.7148-4.0039 0 0 0.53125-1.2812 0.90625-1.9375 0 0 0.37109-0.65625 0.41406-0.95312 0 0 0.043-0.29297-0.0156 0.53125 0 0-0.0547 0.83203-0.8086 2.0625 0 0-0.7539 1.2344-1.5508 2.7578 0 0-0.79297 1.5312-1.5234 3.1562 0 0-0.73046 1.6328-2.3555 4.8281 0 0-1.6289 3.1992-2.5 5.6133 0 0-0.875 2.4102-2.5274 6.0586 0 0-1.6523 3.6484-2.9609 6.1992 0 0-1.3047 2.5469-3.4609 6.418 0 0-2.1523 3.8711-3.6289 6.7773 0 0-1.4766 2.9141-2.6992 4.6562 0 0-1.2227 1.7422-1.8086 2.582 0 0-0.58594 0.83984-1.0117 1.7148 0 0-0.42188 0.875-0.85938 1.0078 0 0-0.4375 0.13282-0.42969-0.47656 0 0 8e-3 -0.61328 0.58594-1.957 0 0 0.58203-1.3438 0.85547-2.3867 0 0 0.26562-1.0391 1.1875-3.2461 0 0 0.92578-2.207 1.6328-3.9922 0 0 0.71485-1.7891 2.1094-5.1133 0 0 1.4023-3.3281 2.7695-6.4648 0 0 1.3711-3.1367 2.8359-6.5508 0 0 1.4688-3.418 2.6953-5.9531 0 0 1.2305-2.5391 3.332-6.8555 0 0 2.1016-4.3125 3.4453-7.6602 0 0 1.3438-3.3437 2.1875-5.1172 0 0 0.84375-1.7773 1.375-2.4492 0 0 0.52734-0.67578 0.82421-0.63282 0 0 0.29297 0.04297-0.41015 1.0273 0 0-0.69922 0.98828-1.6758 2.3281 0 0-0.98047 1.3398-2.1758 3.2852 0 0-1.1914 1.9531-2.3516 3.793 0 0-1.1523 1.8438-2.8906 5.418 0 0-1.7383 3.5859-3.0391 6.207 0 0-1.2969 2.625-3.5391 7.1172 0 0-2.2383 4.4883-4.4336 8.918 0 0-2.1875 4.4336-4.1953 7.7812 0 0-2.0039 3.3476-3.293 5.4141 0 0-1.2852 2.0742-3.1328 4.1055 0 0-1.8516 2.0273-2.6094 2.8086 0 0-0.75 0.78125-1.207 0.75781 0 0-0.45313-0.0234-0.55469-0.83593 0 0-0.0977-0.80859 0.32422-1.7109 0 0 0.42188-0.89844 1.1016-2.7109 0 0 0.6836-1.8047 1.3242-3.4961 0 0 0.64063-1.6992 2.1055-5.1133 0 0 1.4688-3.418 3.1016-6.8008 0 0 1.6328-3.3789 2.9609-6.1953 0 0 1.3281-2.8164 2.8203-5.5977 0 0 1.4922-2.7812 3.6016-7.0195 0 0 2.1094-4.2344 3.3008-7.0586 0 0 1.1992-2.8242 2.5703-5.6953 0 0 1.3789-2.875 1.9805-4.2461 0 0 0.60156-1.3711 0.83984-1.7734 0 0 0.2461-0.40235-0.40234 0.41406 0 0-0.64062 0.82422-1.2852 1.8281 0 0-0.64453 1.0117-1.7734 3.4805 0 0-1.1328 2.4766-2.3828 5.2852 0 0-1.25 2.8008-2.4453 5.4336 0 0-1.1914 2.6445-2.3672 4.9336 0 0-1.1797 2.293-3.3438 6.0859 0 0-2.1641 3.793-3.8828 6.6797 0 0-1.7148 2.8945-3.9258 6.3203 0 0-2.2109 3.4258-3.418 5.4805 0 0-1.2109 2.0547-2.3828 3.5508 0 0-1.168 1.4961-1.75 1.7266 0 0-0.58203 0.23437-0.63672-0.21094 0 0-0.0547-0.44531 0.36328-1.3476 0 0 0.42187-0.89844 1.1914-3.2461 0 0 0.77734-2.3476 1.9961-4.7773 0 0 1.2148-2.4297 2.3438-4.9062 0 0 1.1328-2.4688 1.9883-4.3516 0 0 0.85937-1.8789 3.082-5.8398 0 0 2.2305-3.957 4.3945-7.9375 0 0 2.168-3.9805 3.8203-7.207 0 0 1.6523-3.2227 2.7812-5.2695 0 0 1.1289-2.0469 2.5312-4.0195 0 0 1.4102-1.9805 1.5-2.5195 0 0 0.0937-0.54297-0.6211 0.36719 0 0-0.70703 0.91016-1.3828 2.3711 0 0-0.66797 1.4609-2.0664 4.1758 0 0-1.3906 2.7188-2.6133 4.6406 0 0-1.2227 1.9297-3.082 5.2305 0 0-1.8516 3.3047-3.4883 6.1797 0 0-1.6367 2.8828-3.8828 6.6875 0 0-2.2422 3.8008-3.9258 6.3125 0 0-1.6836 2.5117-3.4805 5.6484 0 0-1.793 3.1367-2.5898 4.2383 0 0-0.79296 1.1094-1.5586 1.5742 0 0-0.76562 0.46484-0.83594-0.13672 0 0-0.0743-0.59765 0.52344-2.3984 0 0 0.60547-1.7969 1.2539-3.418 0 0 0.65625-1.6172 1.9609-4.4024 0 0 1.3086-2.7852 2.1094-5.1133 0 0 0.80859-2.3203 2.5859-6.2266 0 0 1.7774-3.9023 3.625-7.4727 0 0 1.8477-3.5664 3.8516-6.918 0 0 2.0078-3.3438 3.4141-6.1719 0 0 1.4062-2.8203 2.5742-5.0039 0 0 1.168-2.1875 1.7109-3.3945 0 0 0.54297-1.207 0.78125-1.6094 0 0 0.24609-0.39844-0.39844 0.42188 0 0-0.64062 0.82422-1.2773 1.9062 0 0-0.63672 1.0898-1.6641 3.7617 0 0-1.0234 2.6719-2.1992 5.0391 0 0-1.168 2.3711-3.2656 6.0742 0 0-2.0938 3.7031-3.4727 6.3398 0 0-1.375 2.6367-3.5039 6.7109 0 0-2.1289 4.0859-3.8086 6.6719 0 0-1.6719 2.5938-3.5391 5.8203 0 0-1.8594 3.2227-3.0352 4.9023 0 0-1.1719 1.6836-2.3438 3.1836 0 0-1.168 1.4922-1.707 2.0898 0 0-0.53907 0.59375-0.58204 0.22656 0 0-0.0466-0.36721 0.25391-0.93359 0 0 0.30469-0.5625 0.51172-1.4336 0 0 0.21485-0.8789 1.2109-3.1758 0 0 0.99218-2.293 2.0234-4.4922 0 0 1.0312-2.1914 2.4375-5.4414 0 0 1.4102-3.25 2.6367-5.7891 0 0 1.2344-2.5391 3.2734-6.6875 0 0 2.043-4.1445 3.4219-7.3867 0 0 1.3828-3.2461 3.8398-8.3516 0 0 2.457-5.0977 4.2695-8.2891 0 0 1.8164-3.1914 2.7461-4.8984 0 0 0.93359-1.707 1.3164-2.2852 0 0 0.38282-0.57422 0 0 0 0-0.38281 0.57812-1.2578 2.1133 0 0-0.87109 1.543-2.0859 3.3594 0 0-1.207 1.8203-2.2383 4.0703 0 0-1.0234 2.2461-2.6523 5.0156 0 0-1.6211 2.7734-3.2539 5.4609 0 0-1.6367 2.6953-2.8906 5.0781 0 0-1.2461 2.3828-3.4336 6.625 0 0-2.1875 4.25-4.0117 7.3633 0 0-1.8242 3.1133-3.1484 5.3125 0 0-1.3242 2.207-2.3789 3.5547 0 0-1.0586 1.3476-2.2734 2.4805 0 0-1.2148 1.1289-1.6953 1.5547 0 0-0.47656 0.4336-0.0703-0.59765 0 0 0.40234-1.0273 1.4414-2.9609 0 0 1.0391-1.9297 1.7578-3.6367 0 0 0.72266-1.7031 2.0625-4.8672 0 0 1.3359-3.1602 2.5-5.6094 0 0 1.1602-2.4453 3.0195-6.3633 0 0 1.8555-3.9102 3.6172-7.5469 0 0 1.7578-3.6367 3.4336-7.3203 0 0 1.668-3.6758 3.2773-6.6055 0 0 1.6094-2.9258 2.4922-4.9961 0 0 0.88672-2.0703 1.3398-2.7383 0 0 0.44922-0.66406 0.42579-0.21094 0 0-0.0234 0.45312-0.79688 1.5313 0 0-0.76953 1.0781-1.8047 2.582 0 0-1.0352 1.5039-2.6484 4.4063 0 0-1.6133 2.9062-3.4102 5.5625 0 0-1.7969 2.6602-3.5273 5.8906 0 0-1.7266 3.2383-3.5156 6.6367 0 0-1.7891 3.4023-3.7266 6.6602 0 0-1.9336 3.2617-3.2266 5.9375 0 0-1.2891 2.6836-3.4297 6.0195 0 0-2.1406 3.3398-3.3242 4.9414 0 0-1.1914 1.6016-2.0508 2.6094 0 0-0.85546 1.0078-1.4414 1.2383 0 0-0.58203 0.23046-0.96094 0.19531 0 0-0.37109-0.0312-0.0743-0.59765 0 0 0.30469-0.57031 0.83594-1.8555 0 0 0.53906-1.2852 1.6094-3.5898 0 0 1.0742-2.3047 2.2188-4.2227 0 0 1.1445-1.918 2.8828-5.5 0 0 1.7422-3.5781 3.0273-6.2812 0 0 1.293-2.707 3.4961-7.4844 0 0 2.1992-4.7773 4.418-9 0 0 2.2188-4.2227 4.3906-8.1992 0 0 2.1719-3.9766 4.1367-7.6172 0 0 1.9688-3.6328 2.9609-5.5078 0 0 1-1.8711 1.5273-2.543 0 0 0.52734-0.67578 0.87891-0.79687 0 0 0.35937-0.125 0.0195 0.15625 0 0-0.33203 0.27735-0.85547 1.6953 0 0-0.51563 1.418-1.7305 3.2305 0 0-1.207 1.8203-2.5976 4.1133 0 0-1.3945 2.293-3.0898 5.1523 0 0-1.6914 2.8633-3.3438 6.0859 0 0-1.6484 3.2266-3.125 6.1328 0 0-1.4766 2.9141-3.3867 5.7227 0 0-1.9102 2.8086-3.2266 5.3281 0 0-1.3086 2.5195-3.4844 5.5703 0 0-2.1758 3.0469-3.418 4.8711 0 0-1.2344 1.8242-2.4102 2.6563 0 0-1.168 0.83203-1.4336 1.3125 0 0-0.25781 0.48438-0.54687 0.51953 0 0-0.28125 0.0351-0.0547-0.44531 0 0 0.23438-0.48047 0.38672-1.1875 0 0 0.15625-0.70703 0.94922-2.2383 0 0 0.79687-1.5234 2.0078-3.3438 0 0 1.2148-1.8203 2.1016-3.8945 0 0 0.89063-2.0664 1.918-4.2656 0 0 1.0352-2.1914 2.7617-5.8516 0 0 1.7266-3.6641 2.9453-6.2773 0 0 1.2226-2.6133 2.918-6.5625 0 0 1.6992-3.9453 2.8242-6.0195 0 0 1.125-2.0742 2.1523-4.7461 0 0 1.0273-2.6719 1.5469-4.0352 0 0 0.53125-1.3633 0.83594-1.8516 0 0 0.31641-0.49219 0 0 0 0-0.30469 0.48828-0.77734 1.6094 0 0-0.47657 1.1172-1.2734 2.6445 0 0-0.79297 1.5312-1.8125 3.1914 0 0-1.0156 1.6641-2.5742 5.0117 0 0-1.5508 3.3477-3.2969 6.4492 0 0-1.7461 3.1055-3.3398 6.1602 0 0-1.5859 3.0625-2.9062 5.5352 0 0-1.3164 2.4648-3.7344 6.5742 0 0-2.418 4.1211-3.7539 6.4297 0 0-1.3398 2.3125-2.832 4.2227 0 0-1.4922 1.9062-2.2109 2.3086 0 0-0.72265 0.40625-1.1758 0.38281 0 0-0.45703-0.0234-0.5-0.39062 0 0-0.0428-0.36331 0.42969-0.82031 0 0 0.47656-0.45313 1.1797-2.1094 0 0 0.70313-1.6523 1.3945-2.9063 0 0 0.69531-1.2461 2.0195-3.875 0 0 1.3281-2.6289 2.1836-4.5117 0 0 0.86328-1.8789 2.6328-5.1719 0 0 1.7734-3.2969 3.4609-6.4219 0 0 1.6914-3.1172 4.1484-8.2227 0 0 2.457-5.1016 4.2266-8.8437 0 0 1.7734-3.7422 4.2656-8.5586 0 0 2.4922-4.8125 3.957-7.8047 0 0 1.4648-2.9844 2.375-4.2383 0 0 0.91015-1.25 1.3476-1.3867 0 0 0.4336-0.13282-8e-3 0.60937 0 0-0.4375 0.74609-1.5664 2.6055 0 0-1.125 1.8594-2.2891 3.6172 0 0-1.168 1.7656-2.9414 5.0586 0 0-1.7734 3.293-3.1289 6.1367 0 0-1.3516 2.8437-4 7.0156 0 0-2.6523 4.168-4.9648 8.2461 0 0-2.3125 4.0742-4.3633 7.7188 0 0-2.0547 3.6445-3.6875 5.9102 0 0-1.6328 2.2734-3.5898 4.7617 0 0-1.9492 2.5-3.0742 3.9336 0 0-1.125 1.4375-1.9844 2.4453 0 0-0.85938 1.0078-1.2969 1.1406 0 0-0.4297 0.13281-0.1211-0.35547 0 0 0.3125-0.49219 0.89844-1.332 0 0 0.59374-0.83985 1.6328-2.7734 0 0 1.0391-1.9297 1.7188-3.9258 0 0 0.68359-1.9922 2.0586-4.8633 0 0 1.375-2.875 2.543-5.2461 0 0 1.1758-2.3672 2.9805-6.0391 0 0 1.8086-3.6719 3.4726-6.3398 0 0 1.668-2.668 3.7969-6.75 0 0 2.1289-4.0742 3.375-6.4531 0 0 1.2539-2.3828 2.6797-4.8086 0 0 1.4297-2.4336 2.043-3.7305 0 0 0.60938-1.293 0.84766-1.6953 0 0 0.24609-0.40234-0.39844 0.42188 0 0-0.64063 0.82422-1.2773 1.9062 0 0-0.63672 1.0898-1.6758 3.6836 0 0-1.0352 2.5859-2.1758 4.5859 0 0-1.1328 1.9961-3.0117 5.7539 0 0-1.875 3.75-3.7578 7.0312 0 0-1.8828 3.2852-3.8711 6.7617 0 0-1.9883 3.4766-3.6875 5.9102 0 0-1.6914 2.4375-3.918 5.707 0 0-2.2305 3.2695-3.4844 4.9648 0 0-1.2539 1.6914-2.3477 3.1719 0 0-1.0898 1.4883-1.3281 2.1289 0 0-0.24609 0.64062-0.61328 0.68359 0 0-0.35937 0.043-0.42578-0.48046 0 0-0.0625-0.51954 0.33203-1.6289 0 0 0.39453-1.1133 1.1836-2.7227 0 0 0.78126-1.6016 1.6953-3.4648 0 0 0.91406-1.8594 2.0469-4.3359 0 0 1.1328-2.4727 2.2305-4.7578 0 0 1.1016-2.2773 3.082-6.4492 0 0 1.9922-4.168 4.4883-9.1641 0 0 2.4961-5 5.0625-10.082 0 0 2.5586-5.0898 5.0508-10.094 0 0 2.4961-4.9961 4.4883-9.0898 0 0 2-4.0898 3.1641-5.8516 0 0 1.168-1.7578 2.3438-3.1758 0 0 1.1836-1.418 1.6914-1.6367 0 0 0.50391-0.21875 0.0703 0.60156 0 0-0.42969 0.82031-1.5586 3.2891 0 0-1.1328 2.4766-2.4492 5.3711 0 0-1.3203 2.8945-3.0312 6.2813 0 0-1.7109 3.3945-3.7422 7.1914 0 0-2.0273 3.8047-3.8281 7.125 0 0-1.7969 3.3242-3.8594 6.418 0 0-2.0625 3.0937-5.0625 8.1016 0 0-3 5.0039-5.1875 7.7344 0 0-2.1875 2.7344-4.1836 5.5234 0 0-1.9961 2.793-3.3164 3.957 0 0-1.3125 1.1719-2.8242 2.2617 0 0-1.5117 1.0859-1.8438 1.6563 0 0-0.32812 0.57422-0.61718 0.60937 0 0-0.28907 0.03516 0.0937-0.54297 0 0 0.3789-0.57812 1.2226-1.7422 0 0 0.83984-1.1641 1.7734-2.8711 0 0 0.9336-1.707 2.168-3.9805 0 0 1.2344-2.2656 2.4453-4.7539 0 0 1.2109-2.4766 2.3633-4.3203 0 0 1.1562-1.832 3.0078-5.1367 0 0 1.8555-3.3047 3.5508-6.3516 0 0 1.7031-3.043 4.1367-7.6875 0 0 2.4258-4.6484 3.7578-7.6523 0 0 1.3359-2.9961 3.0312-6.2812 0 0 1.6953-3.2852 2.4336-4.8359 0 0 0.74219-1.5469 1.3711-2.4492 0 0 0.63672-0.89844 0.38282-0.57812 0 0-0.25391 0.32422-0.85157 1.0859 0 0-0.59375 0.76172-1.6914 2.25 0 0-1.0898 1.4883-1.9023 3.125 0 0-0.80469 1.6328-2.5078 4.8398 0 0-1.707 3.207-3.0156 5.7539 0 0-1.3047 2.5469-3.3555 6.6172 0 0-2.0547 4.0664-3.5 6.7891 0 0-1.4492 2.7227-3.8711 6.7578 0 0-2.4297 4.0391-3.8008 6.0664 0 0-1.3711 2.0234-2.8984 4.3047 0 0-1.5273 2.2813-2.6172 3.3398 0 0-1.0898 1.0664-1.9609 1.9922 0 0-0.8711 0.92969-1.3086 0.98438 0 0-0.44532 0.05468-0.26172-0.79297 0 0 0.1914-0.84375 0.39843-1.7227 0 0 0.21485-0.87109 1.1836-2.7188 0 0 0.96875-1.8398 1.7734-3.4727 0 0 0.8125-1.6367 2.4844-4.4648 0 0 1.668-2.8359 2.5625-5.0977 0 0 0.89453-2.2539 2.6602-5.625 0 0 1.7617-3.3711 3.4687-6.3398 0 0 1.7109-2.9648 4.1875-7.25 0 0 2.4766-4.2773 3.8242-7.1211 0 0 1.3555-2.8438 3.1719-5.7695 0 0 1.8203-2.9258 2.8555-4.4375 0 0 1.0391-1.5039 1.3828-2.3711 0 0 0.34766-0.85938 0.0156-0.52734 0 0-0.32813 0.33594-0.91016 1.2539 0 0-0.57812 0.91797-1.6602 3.1445 0 0-1.0781 2.2266-2.2344 4.0664 0 0-1.1523 1.8398-2.9414 5.0508 0 0-1.7852 3.2148-3.1719 5.7734 0 0-1.3828 2.5586-3.8008 6.6758 0 0-2.4141 4.1133-3.9375 6.8437 0 0-1.5273 2.7344-4.082 7.0195 0 0-2.5547 4.293-4.457 7.418 0 0-1.9023 3.1211-3.3047 5.332 0 0-1.4024 2.2148-2.6797 3.5117 0 0-1.2734 1.2969-1.8867 1.9023 0 0-0.61719 0.60547-0.91406 0.5625 0 0-0.30078-0.04297 0.39453-1.1094 0 0 0.69531-1.0664 1.5547-2.6875 0 0 0.86328-1.6133 1.7891-3.3945 0 0 0.92187-1.7852 2.168-3.9805 0 0 1.2461-2.1914 2.4883-4.3867 0 0 1.2461-2.1953 2.3555-4.4023 0 0 1.1133-2.2031 2.9219-5.875 0 0 1.8125-3.6641 3.543-6.4219 0 0 1.7305-2.7578 4.1719-7.3281 0 0 2.4453-4.5664 3.7812-7.4883 0 0 1.3438-2.9258 3.1719-5.7734 0 0 1.832-2.8516 2.9336-3.832 0 0 1.1016-0.98047 1.543-1.0352 0 0 0.44531-0.05468 0.12891 0.42969 0 0-0.3047 0.48828-0.90235 1.25 0 0-0.59375 0.76953-1.6836 2.3281 0 0-1.0781 1.5664-1.8555 3.4922 0 0-0.76953 1.9219-2.5195 4.7617 0 0-1.75 2.8398-3.125 4.8633 0 0-1.375 2.0273-3.4805 5.6484 0 0-2.0977 3.6289-3.4961 6.1094 0 0-1.3984 2.4805-3.5508 5.7383 0 0-2.1484 3.2578-3.543 5.125 0 0-1.3906 1.8633-3.2695 4.2695 0 0-1.8828 2.4102-3.0156 3.7656 0 0-1.1367 1.3594-1.8945 1.9023 0 0-0.75781 0.54688-0.38671-0.10937 0 0 0.37109-0.65625 1.4258-2.4336 0 0 1.0625-1.7734 1.7656-2.9492 0 0 0.71094-1.168 1.7812-3.4727 0 0 1.0742-2.3047 2.1133-4.4258 0 0 1.043-2.1172 2.4805-5.082 0 0 1.4492-2.957 2.6406-5.7812 0 0 1.1953-2.8203 3.2305-7.0508 0 0 2.0312-4.2305 3.3008-7.0664 0 0 1.2734-2.832 3.0156-5.75 0 0 1.7383-2.918 2.418-4.2969 0 0 0.68359-1.3828 1.0703-1.8828 0 0 0.39062-0.5 0.4375-0.13281 0 0 0.0427 0.36722-0.33985 0.94531 0 0-0.375 0.57812-0.96875 1.418 0 0-0.58593 0.83984-1.7734 2.8633 0 0-1.1797 2.0313-2.4844 4.3945 0 0-1.3086 2.3594-2.6406 5.0937 0 0-1.3359 2.7344-3.0234 5.6758 0 0-1.6875 2.9375-3.4844 6.2617 0 0-1.8008 3.3203-3.8867 6.6758 0 0-2.082 3.3594-3.9258 6.3164 0 0-1.8398 2.957-3.5664 5.5859 0 0-1.7188 2.6211-3.1445 4.0156 0 0-1.4219 1.3906-2.3945 2.1211 0 0-0.96875 0.72656-1.4492 1.1602 0 0-0.47656 0.42968-0.51171 0.14062 0 0-0.0352-0.28906 0.44921-0.67188 0 0 0.48438-0.375 1.2188-1.7344 0 0 0.73828-1.3594 1.3945-2.9023 0 0 0.66797-1.5391 2.0586-4.2539 0 0 1.3906-2.7187 2.543-4.5586 0 0 1.1641-1.8359 2.7578-4.8203 0 0 1.6016-2.9766 3.2852-5.9102 0 0 1.6875-2.9375 2.957-5.5898 0 0 1.2695-2.6523 2.2227-4.832 0 0 0.95312-2.1836 1.9141-5.3789 0 0 0.96484-3.1953 1.3476-5.0703 0 0 0.38673-1.8789 0.32423-3.0117l-0.0586-1.1328" stroke="#2b99f0" stroke-width="8.9726"/><g stroke-width="4.4591"><path d="m538.09 239.23h-0.52344-1.0469-1.0508s-0.52344 0-1.0469-0.0781c0 0-0.52343-0.0781-0.97265-0.52344 0 0-0.44531-0.44531-0.52344-0.96875 0 0-0.0781-0.52343-0.0781-1.0469v-1.0469-1.0469-1.125-1.5703-1.9336s0-0.96875 0.0781-1.5703c0 0 0.0781-0.60156 0.52344-1.0469 0 0 0.44922-0.44531 0.97265-0.52343 0 0 0.52344-0.0781 1.0469 0 0 0 0.52734 0.0781 1.0508 0.52343 0 0 0.52344 0.44532 1.0469 0.89063 0 0 0.52344 0.44531 1.0508 0.67968 0 0 0.52344 0.23438 0.96875 1.0469 0 0 0.44141 0.80859 0.60156 1.4102 0 0 0.15625 0.60157 0.51953 1.125 0 0 0.36719 0.52344 0.53125 1.125 0 0 0.15625 0.60156 0.52344 1.4922 0 0 0.36328 0.89062 0.44141 1.4922 0 0 0.0781 0.60156-0.0781 1.0469 0 0-0.15625 0.44531-0.88672 0.60156 0 0-0.73828 0.15625-1.0508 0.52344 0 0-0.3164 0.36719-1.2812 0.36719 0 0-0.97266 0-2.3086-0.36719 0 0-1.3398-0.36719-2.0976-0.60156 0 0-0.75781-0.23828-1.7305-1.0469 0 0-0.96875-0.8125-2.0117-1.4922 0 0-1.0508-0.67969-2.0195-1.4883 0 0-0.96875-0.8125-1.5742-1.125 0 0-0.60157-0.31641-1.0469-1.125 0 0-0.44531-0.8125-0.52344-1.4141 0 0-0.0781-0.60157-0.0781-1.125 0 0 0-0.52344 0.0781-1.0469 0 0 0.0781-0.52343 0.60157-0.96875 0 0 0.52343-0.44531 1.418-0.52343 0 0 0.89063-0.0781 1.5703-0.0781 0 0 0.67968 0 1.6523 0.0781 0 0 0.96484 0.0781 1.9336 0.44531 0 0 0.97266 0.36719 1.8125 0.60156 0 0 0.83594 0.23438 2.4609 1.0469 0 0 1.6211 0.8125 2.543 1.5703 0 0 0.91406 0.75781 2.1758 2.0156 0 0 1.2539 1.2539 1.9336 2.0117 0 0 0.67969 0.75781 1.207 1.6484 0 0 0.52344 0.89063 0.96875 1.4922 0 0 0.44532 0.60156 0.44532 1.125 0 0 0 0.52344-0.44532 0.96875 0 0-0.44531 0.4414-1.0469 0.52734 0 0-0.60547 0.0742-1.4922 0.0742 0 0-0.89062 0-1.6484-0.15234 0 0-0.76563-0.16407-2.0195-0.89453 0 0-1.2617-0.73438-2.0977-1.0469 0 0-0.83984-0.3164-2.0976-1.125 0 0-1.2539-0.8125-2.0898-1.4922 0 0-0.84375-0.67969-2.0977-1.5664 0 0-1.2617-0.89062-2.0195-1.4922 0 0-0.75781-0.60546-1.5703-1.125 0 0-0.81641-0.52344-0.81641-0.96875 0 0 0-0.44532 0.81641-0.60157 0 0 0.8125-0.15625 1.4922-0.52343 0 0 0.67968-0.36719 1.5742-0.44532 0 0 0.88672-0.0781 1.5664-0.0781 0 0 0.67969 0 1.5742 0.0781 0 0 0.89062 0.0781 1.4922 0.44532 0 0 0.60547 0.36718 1.1289 0.44531 0 0 0.52344 0.0781 1.0469 0.15625 0 0 0.52344 0.0781 1.0508 0.44531 0 0 0.52344 0.36328 0.96875 0.52344 0 0 0.44141 0.15625 0.52344 0.60156 0 0 0.0781 0.44141 0 0.96484 0 0-0.082 0.52344-0.52344 0.96875 0 0-0.44531 0.44532-1.0469 0.52344 0 0-0.60547 0.0781-1.418 0 0 0-0.81641-0.0781-1.125-0.52344 0 0-0.3125-0.44531-1.1289-0.88672 0 0-0.81249-0.44531-1.4961-0.60156 0 0-0.67968-0.16015-1.5703-0.60156 0 0-0.88672-0.44531-1.4102-0.96875 0 0-0.52735-0.52344-0.60547-1.0469 0 0-0.0781-0.52344 0-0.96875 0 0 0.0781-0.44531 0.60547-0.44531 0 0 0.52343 0 1.4102 0.36718 0 0 0.89063 0.36719 1.5703 0.52344 0 0 0.6836 0.15625 1.5742 0.52344 0 0 0.89453 0.36718 1.4961 0.52343 0 0 0.60157 0.15625 1.125 0.52344 0 0 0.52344 0.36328 1.0508 0.52344 0 0 0.52344 0.15625 0.96875 0.60156 0 0 0.44141 0.44141 0.36328 0.88672 0 0-0.0781 0.44531-0.89453 0.52344 0 0-0.80859 0.0781-1.4102 0 0 0-0.60156-0.0781-1.125-0.44141 0 0-0.52344-0.36719-1.1289-0.52344 0 0-0.60156-0.16015-1.4102-0.60156 0 0-0.8125-0.44531-1.0469-0.96875 0 0-0.24218-0.52344-0.60547-1.0469 0 0-0.36718-0.52344-0.36718-0.96875 0 0 0-0.44531 0.44531-0.52344 0 0 0.44141-0.0781 1.043 0 0 0 0.60547 0.0781 1.4961 0.44531 0 0 0.89453 0.36719 1.4961 0.52344 0 0 0.60157 0.15625 1.125 0.52344 0 0 0.52344 0.36718 1.0508 0.52343 0 0 0.52344 0.15625 1.0469 0.52344 0 0 0.52343 0.36328 0.96484 0.52344 0 0 0.44531 0.15625 0.44531 0.52344 0 0 0 0.36328-0.44531 0.4414l-0.44141 0.0781m4.1953-107.27-0.44531-0.0781s-0.44532-0.0781-0.52344-0.52735c0 0-0.0781-0.44531 0-0.89062 0 0 0.0781-0.44531 0.44531-0.60156 0 0 0.36719-0.15625 0.52344-0.60157 0 0 0.15625-0.44531 0.60547-0.88281 0 0 0.44531-0.44922 0.96875-0.60156 0 0 0.52343-0.16406 1.125-0.60156 0 0 0.60546-0.44922 1.4961-0.97266 0 0 0.88672-0.52343 1.5664-1.0469 0 0 0.67969-0.52344 1.5742-1.0469 0 0 0.89063-0.52343 1.4922-0.96875 0 0 0.60547-0.44531 1.207-0.52343 0 0 0.60156-0.0781 1.4922-0.0781h1.4961s0.60156 0 1.043 0.0781c0 0 0.44531 0.0781 0.52343 0.52343 0 0 0.0781 0.44532 0 0.96875 0 0-0.0781 0.52344-0.52343 0.96875 0 0-0.44141 0.44532-0.96485 0.60157 0 0-0.52344 0.15624-1.0469 0.60156 0 0-0.52735 0.44531-1.0508 0.96875 0 0-0.52344 0.51953-1.0469 1.043 0 0-0.52343 0.52344-1.0508 0.96875 0 0-0.52343 0.44532-1.125 0.52344 0 0-0.60156 0.0781-1.4102 0.15625 0 0-0.81641 0.0781-1.1289 0.44531 0 0-0.3164 0.36719-1.125 0.44531 0 0-0.8125 0.0781-1.418 0.0781h-0.96875s-0.36719 0-0.0781-0.0781c0 0 0.28906-0.0781 0.44531-0.44531 0 0 0.15625-0.36718 0.60157-0.52343 0 0 0.44921-0.15625 0.97265-0.51563 0 0 0.51953-0.36719 1.125-0.52344 0 0 0.60156-0.16406 1.4961-0.60937 0 0 0.88672-0.44531 1.5664-0.88672 0 0 0.67969-0.44531 1.5742-0.60156 0 0 0.89062-0.16016 1.4922-0.52344 0 0 0.60156-0.36719 1.1289-0.44531 0 0 0.52343-0.0781 1.0469-0.15625 0 0 0.52344-0.0781 1.043-0.44531 0 0 0.52344-0.36719 0.97266-0.36719 0 0 0.44531 0 0.52343 0.44531 0 0 0.0781 0.44532 0 0.96875 0 0-0.0781 0.52344-0.52343 0.97266 0 0-0.44922 0.4375-1.0508 0.60156 0 0-0.60157 0.15234-1.4961 0.60156 0 0-0.88672 0.4375-1.5664 0.96094 0 0-0.67969 0.52344-1.6484 1.0469 0 0-0.97265 0.52344-2.0195 1.0469 0 0-1.0508 0.52734-2.0156 0.97265 0 0-0.96875 0.44531-1.6484 0.52344 0 0-0.6875 0.0781-1.5742 0.0781 0 0-0.89062 0-1.4141-0.0781 0 0-0.52734-0.0781-0.52734-0.44531 0 0 0-0.3711 0.44922-0.52344 0 0 0.44531-0.15625 0.96875-0.60547 0 0 0.52343-0.44531 1.0469-0.96875 0 0 0.52734-0.52343 1.1289-1.0469 0 0 0.60156-0.52344 1.4883-1.0469 0 0 0.89062-0.52343 1.5742-1.043 0 0 0.67969-0.52344 1.5703-0.96875 0 0 0.89453-0.44532 1.5742-0.60156 0 0 0.67969-0.15625 1.5703-0.52344 0 0 0.89063-0.36719 1.5742-0.44531 0 0 0.67969-0.0781 1.5742-0.0781 0 0 0.88672 0 1.4102 0.0781 0 0 0.52343 0.0781 0.60156 0.52343 0 0 0.0781 0.44532 0.0781 0.96875 0 0 0 0.52344-0.0781 1.125 0 0-0.0781 0.60156-0.52344 1.418 0 0-0.44531 0.80469-1.0469 1.125 0 0-0.60547 0.3125-1.4922 1.125 0 0-0.89063 0.80859-1.6484 1.4102 0 0-0.76562 0.60156-2.0195 1.0469 0 0-1.2617 0.44531-2.0195 0.60156 0 0-0.75781 0.15625-1.6445 0.52344 0 0-0.89453 0.36718-1.5742 0.44531 0 0-0.6836 0.0781-1.5703 0 0 0-0.89453-0.0781-1.3398-0.52344 0 0-0.44531-0.44531-0.15625-0.96875 0 0 0.28906-0.52344 0.52344-1.0469 0 0 0.23437-0.52344 1.043-1.0508 0 0 0.8164-0.52344 1.5-1.0469 0 0 0.67968-0.52343 1.5742-1.0469 0 0 0.88672-0.52344 1.5664-1.0469 0 0 0.67969-0.52343 1.5742-0.96484 0 0 0.89062-0.44531 1.5703-0.60156 0 0 0.67968-0.16016 1.5664-0.52344 0 0 0.89453-0.36719 1.418-0.36719 0 0 0.52344 0 0.60156 0.44532 0 0 0.0781 0.44531 0 0.96875 0 0-0.0781 0.51953-0.44531 1.043 0 0-0.36328 0.52344-0.59766 1.0469 0 0-0.23828 0.52344-1.0508 1.0469 0 0-0.8125 0.52344-1.4141 1.0469 0 0-0.60156 0.52734-1.125 1.0508 0 0-0.52343 0.52343-1.1289 1.0469 0 0-0.60156 0.52344-1.4922 0.96875 0 0-0.89453 0.44531-1.4961 0.52344 0 0-0.60156 0.0781-1.043 0 0 0-0.44531-0.0781-0.52344-0.52344 0 0-0.082-0.44531-0.082-0.96875 0 0 0-0.52344 0.082-0.96875 0 0 0.0781-0.44922 0.52344-0.52734l0.44141-0.0742m-0.73441 81.742-0.52343 0.44531s-0.52344 0.44532-1.0469 0.52344c0 0-0.52734 0.0781-0.97265 0 0 0-0.44532-0.0781-0.44532-0.44531 0 0 0-0.36719 0.36719-0.52344 0 0 0.3711-0.15625 0.52344-0.52343 0 0 0.15625-0.36719 0.52734-0.52344 0 0 0.35938-0.15625 0.51563-0.60156 0 0 0.16406-0.44532 0.60937-0.96875 0 0 0.44531-0.52344 0.97266-1.0469 0 0 0.51562-0.52343 1.1172-1.125 0 0 0.60547-0.60156 1.4961-1.4883 0 0 0.89453-0.89062 1.4961-1.4922 0 0 0.60156-0.60156 1.125-1.0469 0 0 0.52344-0.44531 1.1289-0.60156 0 0 0.60157-0.15625 1.4883-0.60156 0 0 0.89063-0.44531 1.4922-0.89063 0 0 0.60547-0.44531 1.1289-0.52343 0 0 0.52343-0.0781 0.96875 0 0 0 0.44531 0.0781 0.52343 0.52343 0 0 0.0781 0.44532 0.0781 0.96875 0 0 0 0.52344-0.0781 1.0469 0 0-0.0781 0.52344-0.52343 1.0469 0 0-0.44532 0.52344-0.96875 1.0469 0 0-0.52344 0.51953-1.043 1.043 0 0-0.52344 0.52344-0.97266 1.0469 0 0-0.44531 0.52344-0.60156 0.96875 0 0-0.16016 0.44531-0.60156 0.60156 0 0-0.44531 0.15625-0.96875 0.52344 0 0-0.52734 0.36718-0.97266 0.52343 0 0-0.44531 0.15625-0.67968 0.52344 0 0-0.23438 0.36719-1.0469 0.44531 0 0-0.8164 0.0781-1.418 0.0781h-1.125-1.043s-0.52735 0-0.97266-0.0781c0 0-0.44531-0.0781-0.36719-0.60156 0 0 0.0781-0.52344 0.96875-1.4922 0 0 0.88672-0.96875 1.7812-1.9336 0 0 0.89063-0.96875 1.2109-1.5703 0 0 0.3125-0.60156 1.125-1.0469 0 0 0.80859-0.44532 1.4883-0.60156 0 0 0.67969-0.15625 1.5742-0.60157 0 0 0.88671-0.44531 1.4922-0.89062 0 0 0.60547-0.44531 1.1289-0.52344 0 0 0.51953-0.0781 1.043-0.0781 0 0 0.52343 0 0.96875 0.0781 0 0 0.44531 0.0781 0.44531 0.52344 0 0 0 0.44531-0.52344 0.96875 0 0-0.52344 0.52344-1.3359 1.0469 0 0-0.80859 0.52344-1.1211 1.0469 0 0-0.32031 0.51953-1.1328 0.96484 0 0-0.80859 0.44531-1.4883 0.68359 0 0-0.68359 0.23438-1.5742 0.96875 0 0-0.89062 0.73047-1.5742 0.96485 0 0-0.67968 0.23437-1.5664 0.60156 0 0-0.89063 0.36718-1.4922 0.52343 0 0-0.60547 0.15625-1.1289 0.52344 0 0-0.52344 0.36719-0.89063 0.28906 0 0-0.37109-0.0781 0-0.80468 0 0 0.36719-0.73828 0.96875-1.0508 0 0 0.60156-0.31641 1.4961-1.0469 0 0 0.88672-0.73437 1.5664-1.0469 0 0 0.67969-0.31641 1.5742-1.0469 0 0 0.89062-0.73437 1.5703-0.96875 0 0 0.67969-0.23828 1.6523-0.67968 0 0 0.96875-0.44531 1.9414-0.89063 0 0 0.96484-0.44531 1.4883-0.44531 0 0 0.52343 0 0.60156 0.44531 0 0 0.0781 0.44532 0 0.89063 0 0-0.0781 0.4414-0.52344 0.60156 0 0-0.44531 0.15625-0.96484 0.60156 0 0-0.52344 0.44141-1.1289 0.96484 0 0-0.60547 0.52344-1.5703 1.0469 0 0-0.97265 0.52344-1.9414 0.96875 0 0-0.96875 0.44531-1.5742 0.52344 0 0-0.60156 0.0781-1.125 0 0 0-0.52344-0.0781-0.96484-0.52344 0 0-0.44532-0.44531-0.52344-0.96875 0 0-0.0859-0.52344 0-0.96484 0 0 0.0781-0.44532 0.52344-0.6836 0 0 0.4414-0.23437 1.043-1.043 0 0 0.60157-0.8125 1.4961-1.3359 0 0 0.89062-0.52344 1.5703-0.67969 0 0 0.67969-0.15625 1.6523-0.52344 0 0 0.96875-0.36718 1.9414-0.44531 0 0 0.96484-0.0781 1.4883 0 0 0 0.52343 0.0781 0.52343 0.52344 0 0 0 0.44531-0.52343 1.0469 0 0-0.52344 0.60156-1.4102 1.4922 0 0-0.89453 0.88672-1.5742 1.4883 0 0-0.67968 0.60156-1.6523 1.125 0 0-0.96875 0.52344-1.9375 0.96875 0 0-0.97265 0.44531-1.4961 0.60156 0 0-0.52344 0.15625-0.75781 0.52344 0 0-0.23438 0.36718-1.1211 0.44531l-0.89453 0.0781" stroke="#8fcf4c"/><path d="m546.04 250.64v0.36719 0-0.89062s0-0.52735 0.0781-1.0508c0 0 0.0781-0.52343 0.52344-1.0469 0 0 0.4414-0.52344 0.88672-1.0469 0 0 0.44531-0.52344 0.6875-1.125 0 0 0.23437-0.60156 1.0469-1.4883 0 0 0.80859-0.89063 1.4883-1.4922 0 0 0.68359-0.60547 1.5742-1.125 0 0 0.89453-0.52344 1.5742-1.0469 0 0 0.67968-0.52344 1.6484-1.0469 0 0 0.96485-0.52343 1.9375-1.0469 0 0 0.96875-0.52344 1.5703-0.96875 0 0 0.60547-0.44531 1.1289-0.52344 0 0 0.52344-0.0781 0.96875 0 0 0 0.44531 0.0781 0.52343 0.52344 0 0 0.0781 0.44531 0.0781 0.96875 0 0 0 0.52344-0.0781 1.0469 0 0-0.0781 0.52344-0.52343 1.0469 0 0-0.44531 0.52343-0.96875 1.0469 0 0-0.52344 0.51953-1.0508 0.96484 0 0-0.52344 0.44532-1.0469 0.60547 0 0-0.52343 0.15625-1.0469 0.60156 0 0-0.52734 0.44141-1.043 0.88672 0 0-0.52734 0.44532-1.0508 0.52344 0 0-0.52344 0.0781-1.125 0.15625 0 0-0.60156 0.0781-1.4961 0.52344 0 0-0.89063 0.44531-1.5742 0.89062 0 0-0.67969 0.44531-1.5664 0.52344 0 0-0.89063 0.0781-1.4922 0.0781h-1.1289-0.89062s-0.36719 0 0-0.0781c0 0 0.36719-0.0781 0.8125-0.52344 0 0 0.4414-0.44531 0.67969-0.96875 0 0 0.23437-0.52344 1.1289-1.0469 0 0 0.88672-0.52344 1.8555-1.0469 0 0 0.97265-0.52343 1.5742-0.96484 0 0 0.60156-0.44531 1.2031-0.60156 0 0 0.60156-0.16016 1.4961-0.60156 0 0 0.88672-0.44532 1.6524-0.89063 0 0 0.75781-0.44531 2.0937-0.52343 0 0 1.3359-0.0781 2.3047 0 0 0 0.96875 0.0781 1.2031 0.52343 0 0 0.23438 0.44531 0.52735 0.96875 0 0 0.28906 0.51953 0 1.043 0 0-0.29297 0.52344-0.52735 1.0469 0 0-0.23437 0.52344-1.125 1.0469 0 0-0.89063 0.52343-1.8555 1.0469 0 0-0.97266 0.52344-1.5742 1.0469 0 0-0.60937 0.52343-1.2109 1.0469 0 0-0.60156 0.52344-1.5664 0.96875 0 0-0.96875 0.44922-1.9414 0.60156 0 0-0.96875 0.15625-1.5742 0.52735 0 0-0.60157 0.35937-1.125 0.44531 0 0-0.52344 0.0781-0.96485 0 0 0-0.44531-0.0859-0.52343-0.52344 0 0-0.0859-0.44922 0-0.97266 0 0 0.0781-0.52343 0.52343-1.0469 0 0 0.44141-0.52344 1.043-1.0469 0 0 0.60156-0.52344 1.418-1.0469 0 0 0.8125-0.52344 1.2031-1.0469 0 0 0.39063-0.52344 1.5742-1.0469 0 0 1.1758-0.52343 1.8555-0.96484 0 0 0.67969-0.44531 1.2891-0.52344 0 0 0.60156-0.082 1.4961-0.16015 0 0 0.88672-0.0781 1.4883-0.36719 0 0 0.60157-0.28516 1.0469 0.082 0 0 0.44531 0.36328 0.52343 0.88672 0 0 0.0781 0.52344 0 1.0469 0 0-0.0781 0.52344-0.52343 0.96875 0 0-0.44531 0.44532-1.0469 0.6836 0 0-0.60156 0.23437-1.4883 0.97265 0 0-0.89453 0.72656-1.4961 0.96094 0 0-0.60937 0.23437-1.125 0.60156 0 0-0.52734 0.36719-1.1289 0.52344 0 0-0.60157 0.15625-1.4922 0.52343 0 0-0.89453 0.3711-1.4961 0.44532 0 0-0.60157 0.0781-1.0508 0 0 0-0.44532-0.0742-0.44532-0.52344 0 0 0-0.44531 0.44532-1.0469 0 0 0.44921-0.60157 0.97265-1.4922 0 0 0.52344-0.89063 1.125-1.4922 0 0 0.60156-0.60156 1.4961-1.125 0 0 0.88672-0.52343 1.5742-1.0469 0 0 0.67969-0.52344 1.4922-1.043 0 0 0.80859-0.52344 1.1289-0.96875 0 0 0.3125-0.44531 1.125-0.52343 0 0 0.8086-0.0781 1.332 0 0 0 0.52344 0.0781 0.52344 0.52343 0 0 0 0.44531-0.36719 0.96875 0 0-0.36718 0.51953-0.60156 1.125 0 0-0.23437 0.60156-1.0469 1.4922 0 0-0.81641 0.88672-1.5742 1.5664 0 0-0.75781 0.67969-2.0117 1.4922 0 0-1.2617 0.80859-2.0195 1.125 0 0-0.75781 0.3125-1.6523 1.0469 0 0-0.89063 0.73047-1.4961 0.89453 0 0-0.60157 0.15625-1.125 0.23438 0 0-0.52344 0.0742-0.96485 0.36718 0 0-0.44531 0.28125-0.44531-0.0781 0 0 0-0.36719 0.44531-0.89062l0.44141-0.52735m-22.5-122.93h-0.96484s-0.96875 0-1.5742-0.0742c0 0-0.60156-0.0781-1.125-0.44921 0 0-0.52343-0.36719-0.96875-0.52344 0 0-0.44921-0.15625-0.44921-0.52344 0 0 0-0.36719 0.52734-0.44531 0 0 0.52344-0.0781 1.4922-0.0781h1.9414s0.96484 0 1.6445 0.0781c0 0 0.67969 0.0781 1.5742 0.44531 0 0 0.89062 0.36719 1.4961 0.60156 0 0 0.60156 0.23438 1.125 0.96875 0 0 0.52344 0.73047 1.0469 0.97266 0 0 0.52735 0.23437 0.97266 0.67969 0 0 0.44141 0.44531 0.52344 0.96874 0 0 0.0781 0.51563 0.0781 1.0391 0 0 0 0.52343-0.0781 1.0508 0 0-0.082 0.52343-0.52344 0.96875 0 0-0.44531 0.44531-0.97266 0.44531 0 0-0.52343 0-0.96874-0.52344 0 0-0.44532-0.52344-0.60157-1.418 0 0-0.15625-0.88281-0.52343-1.4844 0 0-0.3711-0.60156-0.44922-1.125 0 0-0.0781-0.52344-0.0781-1.0469v-1.0508s0-0.52344 0.0781-0.96875c0 0 0.0781-0.44532 0.52734-0.44532 0 0 0.44531 0 0.89063 0.44532 0 0 0.44531 0.44531 0.60156 0.96875 0 0 0.15625 0.52343 0.52343 1.0508 0 0 0.36329 0.52343 0.52735 0.96875 0 0 0.15625 0.43749 0.52344 0.60156 0 0 0.36328 0.15625 0.52343 0.60156 0 0 0.15625 0.4375 0.52344 0.96094 0 0 0.36328 0.52343 0.44141 0.89453 0 0 0.0781 0.36718 0 0 0 0-0.0781-0.3711-0.51954-0.89453 0 0-0.44531-0.52344-0.96874-0.96094 0 0-0.52344-0.44531-1.0508-0.60156 0 0-0.52343-0.16407-1.0469-0.52344 0 0-0.52344-0.36719-0.96875-0.36719 0 0-0.44922 0-0.44922 0.36719 0 0 0 0.35937 0.44922 0.52344 0 0 0.44531 0.15625 0.89063 0.60156 0 0 0.44531 0.4375 0.60156 0.88281 0 0 0.15625 0.44922 0.60156 0.60938 0 0 0.44922 0.15625 0.81641 0.52343 0 0 0.36328 0.36328-0.16407 0.36328 0 0-0.52343 0-1.8555-0.44531 0 0-1.3398-0.44922-2.4648-0.97265 0 0-1.125-0.52344-2.0976-0.96094 0 0-0.96484-0.44531-1.5664-0.60156 0 0-0.60156-0.16407-1.1289-0.52344 0 0-0.52344-0.36719-1.0469-0.44531l-0.52343-0.0781m18.109-1.754-0.44531 0.0781s-0.44531 0.0781-0.60156 0.44531c0 0-0.15625 0.36329-0.52344 0.36329 0 0-0.37109 0-0.52344-0.44141 0 0-0.15625-0.44531-0.60546-0.89062 0 0-0.44532-0.44532-0.96875-0.60157 0 0-0.52344-0.15625-1.0508-0.60156 0 0-0.51563-0.44531-1.043-0.89062 0 0-0.52344-0.44532-1.125-0.60157 0 0-0.60156-0.15624-1.5742-0.52343 0 0-0.96875-0.36719-1.9375-0.44531 0 0-0.97265-0.0781-1.6523-0.0781h-1.5742-1.4883s-0.60156 0-1.0469 0.0781c0 0-0.44531 0.0781-0.60156 0.44531 0 0-0.15625 0.36719-0.60547 0.52343 0 0-0.44532 0.15625-0.89063 0.60157 0 0-0.44531 0.44531-0.60156 0.89062 0 0-0.15625 0.44531-0.52734 0.60156 0 0-0.36719 0.15625-0.44532 0.60157 0 0-0.0781 0.44531-0.0781 0.96874 0 0 0 0.51954 0.0781 0.96485 0 0 0.0781 0.44531 0.44532 0.60547 0 0 0.37109 0.15625 0.52734 0.52343 0 0 0.15625 0.36328 0.52344 0.51953 0 0 0.36718 0.15625 0.60156 0.60157 0 0 0.23437 0.44531 1.1289 0.96875 0 0 0.89062 0.52343 1.9375 1.0469 0 0 1.043 0.52344 2.0156 0.96875 0 0 0.96875 0.44531 1.6484 0.52344 0 0 0.6836 0.0781 1.5742 0.0781 0 0 0.89063 0 1.5742 0.0781 0 0 0.67969 0.0781 1.5664 0.44531 0 0 0.89063 0.36719 1.4922 0.44531 0 0 0.60547 0.0781 1.1289 0.0781h1.0469 1.0508s0.52344 0 0.96875-0.0781c0 0 0.44531-0.0781 0.52344-0.52344 0 0 0.0781-0.44531 0-0.89062 0 0-0.0781-0.44531-0.52344-0.52344l-0.44531-0.0781m19.543 27.992-0.44531 0.52344s-0.44532 0.52344-0.52344 1.0469c0 0-0.0781 0.52344-0.0781 1.0469 0 0 0 0.52734 0.0781 0.97265 0 0 0.0781 0.4375 0.52344 0.52344l0.44531 0.0781m-3.707-6.0468v-0.52344s0-0.52344 0.0781-0.96094c0 0 0.0781-0.44531 0.44531-0.60156 0 0 0.37109-0.16406 0.52734-0.60156 0 0 0.15625-0.44531 0.60156-0.81641 0 0 0.44532-0.36718 0.8125 0 0 0 0.36329 0.3711 0.0781 0.89453 0 0-0.28906 0.51563-0.44531 1.0391 0 0-0.16016 0.52344-0.60157 1.0469 0 0-0.44531 0.52344-0.97265 1.0469 0 0-0.52344 0.52735-1.0469 1.0508 0 0-0.52343 0.52344-1.0469 0.96875 0 0-0.52734 0.44532-1.0508 0.60157 0 0-0.52344 0.15624-1.0469 0.52343 0 0-0.52344 0.36719-1.0508 0.44531 0 0-0.52344 0.0781-0.8086 0 0 0-0.28906-0.0781 0.44922-0.44531 0 0 0.73047-0.36719 1.4102-0.60156 0 0 0.67968-0.23437 1.5703-1.0469 0 0 0.89453-0.81641 1.4961-1.418 0 0 0.60156-0.60156 1.2031-1.0391 0 0 0.60547-0.44532 1.4922-0.60157 0 0 0.89062-0.16406 1.4922-0.52343 0 0 0.60156-0.36719 0.89453-0.28906 0 0 0.28906 0.0781-0.36328 0.89062 0 0-0.66016 0.80469-0.97657 1.4844 0 0-0.31249 0.67969-1.1992 1.5742 0 0-0.89063 0.89063-1.7852 1.4922 0 0-0.89062 0.60156-1.125 1.125 0 0-0.23437 0.52343-0.60156 0.89062 0 0-0.37109 0.36328-0.37109 0.0781 0 0 0-0.28907 0.44922-0.44532 0 0 0.44531-0.15625 1.0469-0.67968 0 0 0.60156-0.52344 1.418-1.4141 0 0 0.80859-0.89063 1.1211-1.4922 0 0 0.31641-0.60156 1.125-1.0508 0 0 0.81641-0.44531 1.418-0.60156 0 0 0.60156-0.15625 1.125-0.51563 0 0 0.52343-0.36719 0.97265-0.36719 0 0 0.44531 0 0.52344 0.44532 0 0 0.0781 0.4375 0.0781 0.96093v1.0508 0.52344m-14.098 4.4453v-0.52344-1.0469-1.125s0-0.60156 0.0781-1.4883c0 0 0.0781-0.89063 0.44532-1.4922 0 0 0.36328-0.60547 0.52343-1.125 0 0 0.15625-0.52343 0.60157-1.0469 0 0 0.4414-0.52344 0.96484-1.0469 0 0 0.52734-0.52343 1.0508-1.0469 0 0 0.52344-0.52344 1.0469-0.96875 0 0 0.52735-0.44531 1.0508-0.52344 0 0 0.52344-0.0781 1.0469-0.0781h1.0508 1.0469 1.0469 1.0508s0.52343 0 1.043 0.0781c0 0 0.52343 0.0781 0.96875 0.52344 0 0 0.44531 0.44531 0.60937 0.89063 0 0 0.15625 0.44531 0.52344 0.60156 0 0 0.36328 0.15625 0.4414 0.60156 0 0 0.0781 0.44531 0.0781 0.96875v1.0469 1.043s0 0.52344-0.0781 1.0469c0 0-0.0781 0.52343-0.52343 0.96874 0 0-0.44922 0.44532-0.97266 0.60157 0 0-0.52344 0.15625-1.0469 0.52343 0 0-0.51954 0.36719-1.043 0.44532 0 0-0.52344 0.0781-1.1289 0.15625 0 0-0.60156 0.0781-1.4922 0.44531 0 0-0.89453 0.36719-1.5742 0.52344 0 0-0.67969 0.15625-1.5703 0.52343 0 0-0.89453 0.36719-1.5742 0.52344 0 0-0.67969 0.15625-1.6523 0.52344 0 0-0.96485 0.36718-1.9336 0.52343 0 0-0.97265 0.15625-1.5742 0.52344 0 0-0.60157 0.36328-1.125 0.44922l-0.52344 0.0781m-15.445 12.746v0.52343s0 0.52344 0.0781 1.0469c0 0 0.0781 0.52343 0.52344 1.0469 0 0 0.44531 0.52344 0.96875 1.0469 0 0 0.52343 0.52343 1.0508 0.96875 0 0 0.52343 0.4414 1.0469 0.60156 0 0 0.52344 0.15625 1.0469 0.60156 0 0 0.51953 0.44141 1.043 0.88672 0 0 0.52735 0.44531 1.0508 0.52343 0 0 0.52344 0.0781 0.96875-0.0781 0 0 0.44922-0.15625 0.52735-0.96484 0 0 0.0781-0.8125 0.0781-1.4141v-1.125s0-0.52344-0.0781-1.0469c0 0-0.0781-0.52344-0.44922-0.89062 0 0-0.36719-0.36719-0.44531 0 0 0-0.0781 0.36718 0 0.8125 0 0 0.0781 0.44531 0.44531 0.60156 0 0 0.37109 0.15625 0.52734 0.60156 0 0 0.15625 0.44531 0.52344 0.96875 0 0 0.36719 0.51953 0.52344 0.96484 0 0 0.15625 0.44532 0.60156 0.44532 0 0 0.44531 0 0.89453-0.44532 0 0 0.44531-0.44531 0.52344-0.96484 0 0 0.0781-0.52344 0.0781-1.0469v-0.89063s0-0.36719 0.0781 0c0 0 0.0781 0.36719 0.52343 0.89063 0 0 0.44531 0.52343 0.89063 1.0469 0 0 0.4414 0.51953 0.4414 0.96484 0 0 0 0.44532-0.51953 0.52344 0 0-0.52344 0.0781-1.3359 0 0 0-0.81641-0.0781-1.1289-0.52344 0 0-0.3125-0.44531-1.125-0.88672 0 0-0.8125-0.44531-1.4961-0.60156 0 0-0.67969-0.16015-1.6484-0.60156 0 0-0.97265-0.44531-1.8594-0.96875 0 0-0.89063-0.52344-1.0469-1.0469l-0.15625-0.52344m11.574 4.6172-0.0781-0.52735s-0.0781-0.52343-0.52735-1.0469c0 0-0.44531-0.52344-0.88671-1.0391 0 0-0.44532-0.52344-0.60157-0.96875 0 0-0.16015-0.44922-0.60937-0.60156 0 0-0.4375-0.15625-0.96484-0.52344 0 0-0.52344-0.37109-1.0469-0.44922 0 0-0.52344-0.0781-1.0469-0.15625 0 0-0.52735-0.0742-1.0508-0.44531 0 0-0.52344-0.36719-1.0469-0.52344 0 0-0.52343-0.15625-1.0508-0.52344 0 0-0.52343-0.36718-1.0469-0.44531 0 0-0.52344-0.0781-1.125-0.0781h-1.4922-1.4922-1.1289s-0.52344 0-0.96875 0.0781c0 0-0.44531 0.0781-0.60156 0.44531 0 0-0.15625 0.36719-0.52734 0.52344 0 0-0.36719 0.15625-0.44532 0.60156 0 0-0.0781 0.44532-0.0781 0.97266 0 0 0 0.52344 0.0781 1.0469 0 0 0.0781 0.52344 0.44532 1.0469 0 0 0.37109 0.51562 0.52734 1.0391 0 0 0.15625 0.52344 0.60156 1.0469 0 0 0.44531 0.52735 0.96875 1.0508 0 0 0.52734 0.52344 1.0508 0.96875 0 0 0.52344 0.44532 1.125 0.60157 0 0 0.60156 0.15624 1.4883 0.52343 0 0 0.89453 0.36719 1.4961 0.52344 0 0 0.60157 0.15625 1.125 0.52344 0 0 0.52735 0.36718 1.0508 0.44531 0 0 0.52344 0.0781 1.0469 0.0781h1.0508 1.125 1.4961 1.4883s0.60156 0 1.0469-0.0781c0 0 0.44922-0.0781 0.52735-0.52344 0 0 0.0781-0.44531 0.0781-0.96875v-0.52343m2.8086 83.664-0.51954-0.44531s-0.52343-0.44531-0.97265-0.60156c0 0-0.44531-0.15625-0.52344-0.60157 0 0-0.0781-0.44531-0.0781-0.96874v-1.0508-1.0469-1.0391-1.0469-1.125-1.4961-1.5703-1.6484-1.9336-1.7266-2.0234-2.0078-1.6484-1.6523-2.0078-2.0977-2.0938s0-1.2578 0.0781-2.0938c0 0 0.0781-0.83593 0.44531-2.0898 0 0 0.36328-1.2578 0.44922-2.0156 0 0 0.0781-0.76172 0.0781-1.6484v-1.5703-1.6484-2.0195-2.0078-1.5742-1.125-1.0469-1.0469-1.0469-1.125-1.4922-1.4922-1.1289-1.0391-1.125-1.4922-1.5742-1.5703-1.4922-1.125-1.043-1.125-1.5703-1.9375-1.5703-1.125-1.125-1.4883-1.5703s0-0.68749 0.0781-1.6562c0 0 0.0781-0.96484 0.44531-1.9336 0 0 0.36329-0.96874 0.44141-1.5703 0 0 0.0781-0.60156 0.0781-1.2031v-1.5703-2.0156-2.0117s0-0.96875-0.0781-1.6484c0 0-0.0781-0.67969-0.44141-1.5703 0 0-0.36718-0.89453-0.44531-1.5742 0 0-0.0781-0.67969-0.0781-1.5703v-1.6484-2.0117s0-1.2578-0.0781-2.0156c0 0-0.0859-0.75781-0.44922-1.6484 0 0-0.36718-0.89063-0.44531-1.4922 0 0-0.0781-0.60156-0.0781-1.125v-1.043-1.0469-1.0469-1.0469-1.0469-1.0508-1.0469-1.0469-1.0469s0-0.52344-0.0781-1.0469c0 0-0.0781-0.52344-0.44531-1.125 0 0-0.36719-0.60156-0.44531-1.5664 0 0-0.0781-0.96875-0.0781-2.0156v-2.0938s0-1.0469-0.0781-2.0938c0 0-0.0781-1.0469-0.44531-2.0117 0 0-0.3711-0.96875-0.44922-1.6562 0 0-0.0781-0.67969-0.0781-1.5625v-1.6523-2.0078-2.1758-2.5391-2.5391-2.168-2.1719-2.5391-2.5469-2.168-2.168-2.5391-2.5391-2.1719-2.0976-2.0859s0-1.2617-0.0781-2.0195c0 0-0.0781-0.76172-0.44532-1.6484 0 0-0.36718-0.89062-0.44531-1.4922 0 0-0.0781-0.60156-0.0781-1.125v-0.52344" stroke="#02b53f"/><path d="m540.45 99.137-0.15625-0.4375s-0.16015-0.44922-0.96875-0.52734c0 0-0.8164-0.08203-1.3398-0.16016 0 0-0.52344-0.07813-0.52344-0.44141 0 0 0-0.36719 0.52344-0.44531 0 0 0.52344-0.08203 1.418-0.08203 0 0 0.88672 0 1.5703 0.08203 0 0 0.68359 0.07813 1.5742 0.44531 0 0 0.88672 0.36328 1.5664 0.60156 0 0 0.67969 0.23437 1.5742 1.0508 0 0 0.89063 0.80469 1.5703 1.4844 0 0 0.6836 0.67969 1.5703 1.5703 0 0 0.89063 0.89453 1.4922 1.5742 0 0 0.60156 0.67969 1.0508 1.5625 0 0 0.44531 0.89453 0.52344 1.4961 0 0 0.0781 0.60156 0.0781 1.125 0 0 0 0.52344-0.0781 0.96875 0 0-0.0781 0.44532-0.60156 0.60157 0 0-0.52735 0.15625-1.4922 0.44531 0 0-0.96875 0.28906-1.9375 0 0 0-0.97265-0.28906-1.6523-0.52344 0 0-0.67969-0.23437-1.5742-1.0469 0 0-0.89062-0.8086-1.5703-1.5703 0 0-0.67969-0.75782-1.5664-2.0117 0 0-0.89453-1.2617-1.4961-2.0938 0 0-0.60156-0.83594-1.0508-2.0898 0 0-0.44531-1.2617-0.52344-2.0938 0 0-0.0781-0.84375-0.0781-2.1758 0 0 0-1.3359 0.0781-2.3047 0 0 0.0781-0.96875 0.52344-1.2031 0 0 0.44922-0.23438 0.97266-0.60156 0 0 0.52343-0.36719 1.0469-0.44531 0 0 0.51953-0.07813 1.043 0 0 0 0.52734 0.07813 1.1289 0.52344 0 0 0.60157 0.44531 1.4922 1.0469 0 0 0.89453 0.60156 1.4961 1.5703 0 0 0.60157 0.96875 1.0469 1.9336 0 0 0.44922 0.96875 0.60547 1.7344 0 0 0.15625 0.7539 0.52343 2.0156 0 0 0.36328 1.2539 0.52344 2.0898 0 0 0.15625 0.83203 0.52344 2.0938 0 0 0.36328 1.2539 0.36328 1.9336 0 0 0 0.67969-0.36328 1.2031 0 0-0.36719 0.52344-0.52344 0.96875 0 0-0.16016 0.44532-0.67969 0.52344 0 0-0.52343 0.0781-1.4961 0 0 0-0.96875-0.0781-1.8555-0.52344 0 0-0.89453-0.44531-1.207-1.0469 0 0-0.3164-0.60156-1.0469-1.4883 0 0-0.73828-0.89063-0.96875-1.6484 0 0-0.24219-0.76562-0.60547-2.0156 0 0-0.36719-1.2617-0.52344-2.0977 0 0-0.16015-0.83593-0.52343-2.0859 0 0-0.36719-1.2617-0.36719-1.9414 0 0 0-0.67969 0.44531-1.125 0 0 0.44531-0.44531 0.96875-0.52344 0 0 0.51953-0.07813 1.043-0.07813 0 0 0.52734 0 1.0508 0.07813 0 0 0.52344 0.07813 1.0469 0.44531 0 0 0.52344 0.36328 1.0508 0.60156 0 0 0.52344 0.23438 1.0469 1.0469 0 0 0.52344 0.80859 0.96875 1.4883 0 0 0.44922 0.67969 0.60547 1.4922 0 0 0.15625 0.81641 0.52343 1.125 0 0 0.36328 0.3125 0.44531 1.125 0 0 0.0781 0.81641 0.0781 1.418 0 0 0 0.60156-0.0781 1.125 0 0-0.082 0.52344-0.52343 0.96875 0 0-0.44531 0.4414-0.97266 0.52343 0 0-0.52343 0.0781-1.0469-0.0781 0 0-0.52344-0.16016-1.0469-0.97656 0 0-0.52734-0.80469-0.97265-1.4062 0 0-0.44531-0.60156-0.60156-1.2812 0 0-0.15625-0.67969-0.52344-1.9336 0 0-0.37109-1.2617-0.44531-2.0156 0 0-0.0781-0.76562-0.0781-1.6523v-1.4922s0-0.60156 0.0781-1.0469c0 0 0.0742-0.44531 0.52343-0.52344 0 0 0.44532-0.07813 0.96875-0.07813 0 0 0.52344 0 1.0508 0.15625 0 0 0.52344 0.15625 1.0469 0.96875 0 0 0.52344 0.80859 1.0469 1.5703 0 0 0.52735 0.75781 1.0508 2.0195 0 0 0.52344 1.25 1.0469 2.0078 0 0 0.52343 0.75781 0.97265 1.6484 0 0 0.4375 0.89453 0.51563 1.5742 0 0 0.0781 0.67969 0.0781 1.5625 0 0 0 0.89453-0.0781 1.5742 0 0-0.0781 0.68359-0.51563 1.5742 0 0-0.44922 0.88672-0.97265 1.4102 0 0-0.52344 0.52344-0.96875 0.52344 0 0-0.44531 0-0.60156-0.52344 0 0-0.15625-0.52343-0.52735-1.4102 0 0-0.36718-0.89063-0.52343-1.6523 0 0-0.15625-0.75782-0.52344-2.0117 0 0-0.36719-1.2617-0.52344-2.0938 0 0-0.15625-0.83594-0.52344-2.0898 0 0-0.37109-1.2617-0.44921-1.9414 0 0-0.0781-0.68359 0-1.125 0 0 0.0781-0.44531 0.52734-0.52344 0 0 0.44531-0.08203 0.89062 0 0 0 0.44532 0.07813 0.67969 0.60156 0 0 0.23437 0.52344 1.0508 1.4961 0 0 0.80859 0.96093 1.332 1.9297 0 0 0.52344 0.97265 0.68359 1.6523 0 0 0.15625 0.67969 0.52735 1.6484 0 0 0.35937 0.96875 0.4375 1.9375 0 0 0.0781 0.96485 0 1.4883 0 0-0.0781 0.52344-0.51563 0.52344 0 0-0.44922 0-0.89453-0.44531 0 0-0.44531-0.44531-0.60156-1.0469 0 0-0.16016-0.60157-0.60156-1.4961 0 0-0.44531-0.88281-0.89453-1.4844 0 0-0.44531-0.60156-0.52344-1.125l-0.0781-0.52734m2.5508-15.012-0.44531 0.52344s-0.44531 0.52344-0.60156 0.97266c0 0-0.15625 0.44531-0.60156 0.52344 0 0-0.44922 0.07813-0.89453 0 0 0-0.44532-0.07813-0.44532-0.52344 0 0 0-0.44922 0.44532-0.97266 0 0 0.44531-0.52344 0.96874-1.0391 0 0 0.52735-0.52344 1.207-1.0469 0 0 0.67969-0.52344 2.0195-1.0469 0 0 1.332-0.52734 2.457-0.97266 0 0 1.1289-0.44531 2.0977-0.60156 0 0 0.97265-0.15625 1.7305-0.52344 0 0 0.75781-0.36719 2.0195-0.44531 0 0 1.2539-0.07813 2.0195 0 0 0 0.75781 0.07813 1.6484 0.52344 0 0 0.88672 0.44531 1.4102 0.96875 0 0 0.52734 0.52344 0.52734 1.0508 0 0 0 0.52344-0.52734 1.0469 0 0-0.52344 0.52344-1.4883 1.125 0 0-0.96875 0.60156-1.9414 1.4141 0 0-0.96875 0.80859-1.7266 1.125 0 0-0.76172 0.3125-2.0976 1.125 0 0-1.3398 0.80859-2.6211 1.4102 0 0-1.2852 0.60156-3.0625 1.0469 0 0-1.7852 0.44531-3.0664 0.60156 0 0-1.2852 0.15625-2.6172 0.52344 0 0-1.3398 0.36719-2.0195 0.36719 0 0-0.67969 0-1.0469-0.44531 0 0-0.36718-0.44531 0.15625-1.0469 0 0 0.52344-0.60156 1.8633-1.4102 0 0 1.332-0.8125 2.6133-1.125 0 0 1.2852-0.31641 2.9922-1.125 0 0 1.6992-0.8125 2.7773-1.4141 0 0 1.0703-0.60938 3.1367-1.125 0 0 2.0703-0.52344 3.5156-1.0469 0 0 1.4375-0.52344 3.1445-0.97266 0 0 1.7031-0.44531 2.6211-0.52344 0 0 0.91406-0.07813 2.1719-0.07813 0 0 1.2578 0 1.8594 0.15625 0 0 0.60547 0.15625 0.60547 0.97266 0 0 0 0.80469-0.44922 1.4062 0 0-0.44532 0.60156-1.0469 1.2109 0 0-0.60156 0.60156-1.5742 1.4922 0 0-0.96874 0.88672-2.0156 1.4883 0 0-1.0508 0.60156-2.1758 1.125 0 0-1.1289 0.52344-2.6211 0.96875 0 0-1.4922 0.44531-2.9023 0.60156 0 0-1.4141 0.15625-2.4102 0.52344 0 0-0.99609 0.36719-2.9883 0.44531 0 0-1.9922 0.07813-2.9844-0.07813 0 0-0.99609-0.16016-2.25-0.89062 0 0-1.2617-0.73438-1.8633-0.96875 0 0-0.60547-0.23438-0.68359-0.67969 0 0-0.082-0.44531 0-0.96875 0 0 0.0781-0.52344 0.52734-0.96875 0 0 0.4375-0.44922 1.125-0.60156 0 0 0.67969-0.15625 2.0117-0.51953 0 0 1.3398-0.36719 2.5469-0.44531 0 0 1.2031-0.08594 2.6211-0.16016 0 0 1.4102-0.07813 2.6133-0.44141 0 0 1.207-0.36719 2.543-0.44531 0 0 1.3398-0.08594 2.1758-0.08594h2.0977s1.2539 0 1.9336 0.08594c0 0 0.68359 0.07813 1.1289 0.60156 0 0 0.44532 0.52344 0.28907 1.4922 0 0-0.15625 0.96484-1.332 1.9336 0 0-1.1836 0.96875-2.0195 1.5703 0 0-0.84375 0.60156-2.0977 1.0469 0 0-1.2617 0.44531-2.1758 0.60156 0 0-0.91406 0.15625-2.5352 0.52344 0 0-1.6289 0.36328-2.543 0.44531 0 0-0.92187 0.07812-2.2539 0 0 0-1.3398-0.08203-2.3867-0.52344 0 0-1.0508-0.44531-1.5742-0.96875 0 0-0.52344-0.52344-0.36328-0.96875 0 0 0.15625-0.44531 1.4961-0.52344l1.332-0.07813m-6.2578-8.625-0.0781 0.52344s-0.0781 0.52344-0.52343 1.0469c0 0-0.44922 0.52344-0.96485 0.96875 0 0-0.52734 0.44531-1.0508 0.52344 0 0-0.52343 0.07813-0.96875 0 0 0-0.44922-0.07813-0.60547-0.52344 0 0-0.15234-0.44531-0.52343-0.96875 0 0-0.36719-0.52344-0.44531-1.125 0 0-0.0781-0.60156-0.0781-1.4883v-1.5781-1.5703-1.4844-1.207s0-0.60156 0.0781-1.4062c0 0 0.0781-0.8164 0.44531-1.0469 0 0 0.37109-0.24219 0.52343-0.60938 0 0 0.15625-0.36719 0.60547-0.44531 0 0 0.44532-0.07813 1.0469 0.08203 0 0 0.60156 0.15625 1.4961 0.97266 0 0 0.88672 0.80469 1.4883 1.5625 0 0 0.60156 0.75781 1.0469 2.0195 0 0 0.44922 1.25 0.60547 2.0937 0 0 0.15625 0.83594 0.52344 2.0937 0 0 0.36719 1.2539 0.44531 2.0937 0 0 0.0781 0.83594 0.0781 2.0898v1.9375s0 0.67969-0.0781 1.2031c0 0-0.0781 0.52344-0.52343 0.96875 0 0-0.44532 0.44141-1.0508 0.52344 0 0-0.60156 0.07813-1.4102 0 0 0-0.8125-0.08203-1.125-0.60547 0 0-0.32031-0.52344-1.0508-1.4102 0 0-0.73437-0.89062-0.96875-1.7266 0 0-0.23437-0.83984-0.67969-2.4609 0 0-0.44922-1.6211-0.97265-2.6133 0 0-0.52344-0.99609-0.96875-2.6953 0 0-0.44531-1.707-0.52344-2.9883 0 0-0.0781-1.2812-0.0781-2.6094 0 0 0-1.3398 0.0781-2.0977 0 0 0.0781-0.76172 0.52344-1.6484 0 0 0.44531-0.89062 0.96875-1.4141 0 0 0.52343-0.52344 1.0508-0.52344 0 0 0.52344 0 1.125 0.52344 0 0 0.60156 0.52344 1.418 1.4141 0 0 0.80859 0.88672 1.0469 1.5703 0 0 0.23437 0.67969 0.60156 1.5742 0 0 0.36328 0.88281 0.44141 1.6406 0 0 0.0781 0.75781 0.0781 2.0156v2.0977 2.0859s0 1.2617-0.0781 2.1016c0 0-0.0781 0.83594-0.52344 2.0117 0 0-0.44531 1.1758-0.96875 1.4922 0 0-0.52734 0.3125-1.043 0.67969 0 0-0.52734 0.36719-0.97265 0.36719 0 0-0.44531 0-0.60156-0.52344 0 0-0.15625-0.52344-0.52344-1.4141 0 0-0.3711-0.89062-0.52735-1.6484 0 0-0.15234-0.75781-0.52343-2.168 0 0-0.36719-1.4141-0.44531-2.9844 0 0-0.0781-1.5742-0.0781-2.9805v-2.25s0-0.84375 0.0781-2.0977c0 0 0.0781-1.2578 0.52343-2.0156 0 0 0.44531-0.75781 0.89453-1.6484 0 0 0.44532-0.89062 0.67969-1.4141 0 0 0.23438-0.52344 1.043-0.60156 0 0 0.8125-0.07813 1.5 0 0 0 0.67968 0.07813 1.4961 0.52344 0 0 0.80859 0.44531 1.125 1.125 0 0 0.3125 0.67969 1.0469 2.0156 0 0 0.73047 1.332 0.96485 2.5352 0 0 0.23437 1.2031 0.60546 2.6172 0 0 0.36719 1.4141 0.44532 2.543 0 0 0.0781 1.125 0 2.0937 0 0-0.0781 0.96094-0.52344 1.6406 0 0-0.44922 0.6875-0.97266 1.5781 0 0-0.52343 0.88672-1.0469 1.4102 0 0-0.52344 0.52344-1.0508 0.60156 0 0-0.52344 0.07813-1.0469 0 0 0-0.52343-0.07812-1.0469-0.44531 0 0-0.52734-0.36719-1.043-0.60156 0 0-0.52734-0.23437-1.0508-1.0469 0 0-0.52343-0.80859-1.0469-1.4961 0 0-0.52735-0.67969-0.97266-1.5703 0 0-0.44531-0.88281-0.52343-1.6406 0 0-0.0781-0.76562-0.0781-2.0195v-2.0078s0-0.76562 0.15625-1.6562c0 0 0.15625-0.88672 1.0469-1.4883 0 0 0.89454-0.60156 1.8633-1.0469 0 0 0.96485-0.44531 1.5703-0.52344 0 0 0.60156-0.07813 1.2031 0 0 0 0.60156 0.07813 1.418 0.52344 0 0 0.8125 0.44531 1.0469 1.0469 0 0 0.23438 0.60156 0.60156 1.5703 0 0 0.36719 0.96484 0.44532 1.9336 0 0 0.0781 0.96875 0 1.6484 0 0-0.0781 0.67969-0.52344 1.5703 0 0-0.44531 0.89453-0.96875 1.418 0 0-0.52344 0.51563-1.0508 0.67969 0 0-0.52344 0.15625-1.125 0.52344 0 0-0.60156 0.35938-1.4102 0.35938 0 0-0.81641 0-1.1289-0.4375 0 0-0.31641-0.44531-1.0469-0.96875 0 0-0.73829-0.52344-0.97266-1.125 0 0-0.23047-0.60156-0.60156-1.4961 0 0-0.36719-0.89062-0.44531-1.4922 0 0-0.0781-0.60156-0.0781-1.125v-0.52344m1.0663 18.07v-0.36328s0-0.36719-0.0781-0.07813c0 0-0.0781 0.28516-0.52734 0.44531 0 0-0.44531 0.15625-0.96875 0.52734 0 0-0.52344 0.35938-1.0469 0.4375 0 0-0.52735 0.07813-1.1289 0.15625 0 0-0.60156 0.07813-1.4883 0.44531 0 0-0.89062 0.36719-1.4961 0.44531 0 0-0.60157 0.07813-1.125 0.07813h-1.0469-1.0508s-0.52343 0-1.0469-0.07813c0 0-0.52735-0.07812-0.97266-0.52344 0 0-0.44531-0.44531-0.44531-0.96875 0 0 0-0.52344 0.36719-1.0469 0 0 0.37109-0.52344 0.60156-1.043 0 0 0.23437-0.52344 1.0508-1.0469 0 0 0.8125-0.52344 1.418-1.0469 0 0 0.60156-0.52344 1.125-0.96875 0 0 0.52343-0.44531 1.125-0.60156 0 0 0.60547-0.15625 1.4961-0.52344 0 0 0.88672-0.36719 1.5664-0.44531 0 0 0.67969-0.07813 1.5742 0 0 0 0.89063 0.07813 1.4141 0.60156 0 0 0.52735 0.52344 0.60547 1.4922 0 0 0.0781 0.96875-0.0781 1.9375 0 0-0.16407 0.96484-0.89844 1.5664 0 0-0.73047 0.60156-1.043 1.125 0 0-0.3125 0.52344-1.1289 0.96875 0 0-0.8125 0.44531-1.4922 0.60156 0 0-0.67969 0.15625-1.5664 0.52344 0 0-0.89454 0.36719-1.5742 0.44531 0 0-0.6875 0.07812-1.5742 0.07812 0 0-0.89062 0-1.4922-0.07812 0 0-0.60547-0.07813-1.1289-0.44531 0 0-0.52344-0.36719-0.96875-0.52344 0 0-0.44531-0.15625-0.60156-0.52344 0 0-0.15625-0.36719-0.44141-0.52344 0 0-0.28906-0.15625 0-0.60156 0 0 0.28516-0.44531 0.44141-0.96875 0 0 0.15625-0.52344 0.60156-0.96484 0 0 0.44531-0.44531 1.125-0.60156 0 0 0.67968-0.16016 2.0976-0.52344 0 0 1.418-0.36719 2.832-0.44531 0 0 1.4141-0.07813 2.1719-0.07813h1.6484 1.4961s0.60157 0 0.96875 0.07813c0 0 0.36328 0.07813 0 0.52344 0 0-0.36718 0.44531-0.96875 1.0469 0 0-0.60156 0.60156-1.4961 1.4141 0 0-0.89062 0.80859-1.6484 1.1289 0 0-0.75782 0.30859-2.0156 1.0469 0 0-1.2578 0.72656-2.1719 0.96094 0 0-0.92188 0.23437-2.5469 0.60156 0 0-1.6211 0.37109-2.5352 0.52344 0 0-0.92187 0.15625-2.1758 0.52344 0 0-1.2617 0.37109-1.9414 0.37109 0 0-0.67969 0-1.125-0.44531 0 0-0.44532-0.44922-0.36719-1.0508 0 0 0.0781-0.60156 1.0469-1.5703 0 0 0.96875-0.96875 2.3867-1.8555 0 0 1.4102-0.89062 2.6172-1.2031 0 0 1.2031-0.31641 2.6211-1.0469 0 0 1.4141-0.73438 2.6992-0.96875 0 0 1.2812-0.23438 2.9883-0.60156 0 0 1.6992-0.36719 2.6172-0.44531 0 0 0.91406-0.07813 2.168-0.07813 0 0 1.2617 0 1.9453 0.07813 0 0 0.67969 0.07813 1.1289 0.52344 0 0 0.44141 0.44531 0.44141 1.0469 0 0 0 0.60156-0.36328 1.4922 0 0-0.37109 0.88672-0.60938 1.5664 0 0-0.23437 0.67969-1.043 1.5703 0 0-0.8125 0.89062-1.5742 1.4922 0 0-0.75781 0.60156-2.0117 1.125 0 0-1.2617 0.52734-2.0976 1.0508 0 0-0.83985 0.52344-2.1758 0.96875 0 0-1.3359 0.4375-2.4648 0.60156 0 0-1.125 0.15625-2.0976 0.52344 0 0-0.96875 0.35938-1.6484 0.28516 0 0-0.67968-0.07813-1.4883-0.89453 0 0-0.8164-0.80469-1.0508-1.4062 0 0-0.23828-0.60156-0.52343-1.2031 0 0-0.28907-0.60156 0.0781-1.4961 0 0 0.36328-0.89062 0.96484-1.4922 0 0 0.60157-0.60156 1.4961-1.125 0 0 0.89062-0.52344 1.6484-1.0469 0 0 0.75781-0.52344 2.0195-0.96484 0 0 1.2539-0.44531 2.1758-0.52344 0 0 0.91406-0.07813 2.543-0.07813h2.5391 2.168s1.2617 0 1.9453 0.07813c0 0 0.67969 0.07813 1.1289 0.60156 0 0 0.44141 0.52344 0.36329 1.4922 0 0-0.0781 0.96484-0.89454 1.9336 0 0-0.80859 0.96875-1.5664 1.5703 0 0-0.76563 0.60156-2.0195 1.125 0 0-1.2539 0.52734-2.0898 1.0508 0 0-0.84375 0.52344-2.0977 0.96875 0 0-1.2617 0.4375-2.0976 0.52344 0 0-0.84375 0.07813-2.0977 0.07813 0 0-1.2617 0-2.0195-0.07813 0 0-0.75781-0.08594-1.6484-0.60156 0 0-0.89453-0.52344-1.4141-1.4141 0 0-0.52344-0.89453-0.52344-1.4961 0 0 0-0.60156 0.44531-1.125 0 0 0.44141-0.52344 1.043-1.0469 0 0 0.60547-0.52344 1.4961-1.0469 0 0 0.89453-0.52344 1.6523-0.96484 0 0 0.75782-0.44531 2.0195-0.52344 0 0 1.2539-0.08203 1.9336-0.08203h1.2031 1.0508 1.0469 0.52344" stroke="#fdf345"/><path d="m540.74 89.668v-0.52344s0-0.52344 0.0781-0.96875c0 0 0.0781-0.44531 0.52344-0.52344 0 0 0.44531-0.07813 0.97265-0.07813h1.0469s0.52344 0 0.97266 0.07813c0 0 0.4375 0.07813 0.51563 0.52344 0 0 0.0781 0.44531 0 0.89062 0 0-0.0781 0.44531-0.51563 0.52344 0 0-0.44922 0.07813-0.97266 0.07813h-1.0469s-0.52734 0-0.97265-0.07813c0 0-0.44532-0.07813-0.52344-0.52344 0 0-0.0781-0.44531 0-0.89062 0 0 0.0781-0.44531 0.52344-0.60156 0 0 0.44531-0.15625 0.97265-0.52344 0 0 0.52344-0.36719 1.0469-0.44531 0 0 0.52344-0.07812 1.0469 0 0 0 0.51953 0.07813 0.96484 0.52344 0 0 0.44922 0.44531 0.52735 0.96875 0 0 0.0781 0.52344 0.16015 0.96875 0 0 0.0781 0.44531 0.44531 0.60156 0 0 0.36329 0.15625 0.44141 0.60156 0 0 0.0781 0.44531 0 0.89453 0 0-0.0781 0.4375-0.52344 0.60156 0 0-0.44531 0.15234-0.97265 0.52344 0 0-0.52344 0.35938-1.043 0.4375 0 0-0.52344 0.07813-1.0469 0.07813 0 0-0.52343 0-0.96874-0.07813 0 0-0.44922-0.07813-0.52735-0.52344 0 0-0.0781-0.44531-0.0781-0.96484v-1.0469-1.0469s0-0.52344 0.0781-0.96875c0 0 0.0781-0.44531 0.52735-0.52344 0 0 0.44531-0.07813 0.96874-0.07813 0 0 0.52344 0 1.0469 0.07813 0 0 0.51953 0.07813 0.96484 0.52344 0 0 0.44922 0.44531 0.52735 0.96875 0 0 0.0781 0.52344 0 1.125 0 0-0.0781 0.60156-0.52735 1.4961 0 0-0.44531 0.88281-0.96484 1.4844 0 0-0.52344 0.60156-1.0469 1.0469 0 0-0.52343 0.44531-1.0469 0.52344 0 0-0.52734 0.07813-0.97265 0 0 0-0.44532-0.07813-0.60157-0.52344 0 0-0.15625-0.44531-0.52343-0.96875 0 0-0.36719-0.52344-0.44532-1.0469 0 0-0.0781-0.52344-0.0781-1.043 0 0 0-0.52344 0.0781-1.0469 0 0 0.0781-0.52344 0.52344-1.0469 0 0 0.44531-0.52344 0.96875-0.96875 0 0 0.52344-0.44531 1.0508-0.44531 0 0 0.52344 0 1.0469 0.36719 0 0 0.52344 0.36719 0.97266 0.52344 0 0 0.4375 0.15625 0.51563 0.60156 0 0 0.0781 0.44531 0.0781 0.96875 0 0 0 0.52344-0.0781 0.97266 0 0-0.0781 0.4375-0.51563 0.51562 0 0-0.44922 0.07813-0.97266 0.07813h-1.0469-1.0508-0.52344" stroke="#f04523"/></g></g></svg>
